IntelOneMono-LightItalic-mstr.ufo
<glyph name="exclam" format="2">
  <advance width="614"/>
  <unicode hex="0021"/>
  <outline>
    <contour>
      <point x="289" y="227" type="line"/>
      <point x="323" y="227" type="line"/>
      <point x="505" y="710" type="line"/>
      <point x="386" y="710" type="line"/>
    </contour>
    <contour>
      <point x="261" y="93" type="curve" smooth="yes"/>
      <point x="215.0" y="93.0"/>
      <point x="189.0" y="64.0"/>
      <point x="189" y="30" type="curve" smooth="yes"/>
      <point x="189" y="4"/>
      <point x="209" y="-15"/>
      <point x="245" y="-15" type="curve" smooth="yes"/>
      <point x="291.0" y="-15.0"/>
      <point x="317.0" y="15.0"/>
      <point x="317" y="48" type="curve" smooth="yes"/>
      <point x="317" y="74"/>
      <point x="296" y="93"/>
    </contour>
  </outline>
</glyph>
<glyph name="numbersign" format="2">
  <advance width="614"/>
  <unicode hex="0023"/>
  <outline>
    <contour>
      <point x="350" y="666.0" type="line"/>
      <point x="75" y="-12.0" type="line"/>
      <point x="125" y="-12.0" type="line"/>
      <point x="215" y="211.0" type="line"/>
      <point x="215" y="211.0" type="line"/>
      <point x="312" y="447.0" type="line"/>
      <point x="312" y="447.0" type="line"/>
      <point x="401" y="666.0" type="line"/>
    </contour>
    <contour>
      <point x="544" y="666.0" type="line"/>
      <point x="456" y="451.0" type="line"/>
      <point x="456" y="451.0" type="line"/>
      <point x="360" y="213.0" type="line"/>
      <point x="360" y="213.0" type="line"/>
      <point x="268" y="-12.0" type="line"/>
      <point x="320" y="-12.0" type="line"/>
      <point x="595" y="666.0" type="line"/>
    </contour>
    <contour>
      <point x="473" y="428.0" type="line"/>
      <point x="493" y="428.0" type="line"/>
      <point x="492" y="424.0" type="line"/>
      <point x="624" y="424.0" type="line"/>
      <point x="624" y="475.0" type="line"/>
      <point x="496" y="475.0" type="line"/>
      <point x="495" y="471.0" type="line"/>
      <point x="486" y="471.0" type="line"/>
    </contour>
    <contour>
      <point x="393" y="190.0" type="line"/>
      <point x="391" y="186.0" type="line"/>
      <point x="544" y="186.0" type="line"/>
      <point x="544" y="236.0" type="line"/>
      <point x="400" y="236.0" type="line"/>
      <point x="398" y="232.0" type="line"/>
      <point x="381" y="232.0" type="line"/>
      <point x="375" y="190.0" type="line"/>
    </contour>
    <contour>
      <point x="126" y="424.0" type="line"/>
      <point x="277" y="424.0" type="line"/>
      <point x="277" y="428.0" type="line"/>
      <point x="473" y="428.0" type="line"/>
      <point x="486" y="471.0" type="line"/>
      <point x="288" y="471.0" type="line"/>
      <point x="288" y="475.0" type="line"/>
      <point x="126" y="475.0" type="line"/>
    </contour>
    <contour>
      <point x="45" y="186.0" type="line"/>
      <point x="172" y="186.0" type="line"/>
      <point x="174" y="190.0" type="line"/>
      <point x="391" y="190.0" type="line"/>
      <point x="396" y="232.0" type="line"/>
      <point x="179" y="232.0" type="line"/>
      <point x="181" y="236.0" type="line"/>
      <point x="45" y="236.0" type="line"/>
    </contour>
  </outline>
</glyph>
<glyph name="dollar" format="2">
  <advance width="614"/>
  <unicode hex="0024"/>
  <outline>
    <contour>
      <point x="213" y="-142.0" type="line"/>
      <point x="263" y="19.0" type="line"/>
      <point x="210" y="19.0" type="line"/>
      <point x="160" y="-142.0" type="line"/>
    </contour>
    <contour>
      <point x="477" y="630.0" type="line"/>
      <point x="530" y="797.0" type="line"/>
      <point x="477" y="797.0" type="line"/>
      <point x="424" y="630.0" type="line"/>
    </contour>
    <contour>
      <point x="285" y="49" type="curve" smooth="yes"/>
      <point x="213" y="49"/>
      <point x="143" y="77"/>
      <point x="70" y="118" type="curve"/>
      <point x="44" y="69" type="line"/>
      <point x="123" y="25"/>
      <point x="193" y="0"/>
      <point x="285" y="0" type="curve" smooth="yes"/>
      <point x="422" y="0"/>
      <point x="517" y="64"/>
      <point x="517" y="182" type="curve" smooth="yes"/>
      <point x="517" y="241"/>
      <point x="501" y="285"/>
      <point x="405" y="340" type="curve" smooth="yes"/>
      <point x="319" y="389" type="line" smooth="yes"/>
      <point x="258" y="424"/>
      <point x="244" y="457"/>
      <point x="244" y="496" type="curve" smooth="yes"/>
      <point x="244" y="557"/>
      <point x="293" y="606"/>
      <point x="400" y="606" type="curve" smooth="yes"/>
      <point x="468" y="606"/>
      <point x="530" y="590"/>
      <point x="594" y="562" type="curve"/>
      <point x="612" y="614" type="line"/>
      <point x="535" y="642"/>
      <point x="480" y="655"/>
      <point x="400" y="655" type="curve" smooth="yes"/>
      <point x="257" y="655"/>
      <point x="183" y="575"/>
      <point x="183" y="492" type="curve" smooth="yes"/>
      <point x="183" y="431"/>
      <point x="214" y="385"/>
      <point x="285" y="344" type="curve" smooth="yes"/>
      <point x="373" y="296" type="line" smooth="yes"/>
      <point x="440" y="258"/>
      <point x="456" y="218"/>
      <point x="456" y="180" type="curve" smooth="yes"/>
      <point x="456" y="100"/>
      <point x="394" y="49"/>
    </contour>
  </outline>
</glyph>
<glyph name="percent" format="2">
  <advance width="614"/>
  <unicode hex="0025"/>
  <outline>
    <contour>
      <point x="225" y="317" type="curve" smooth="yes"/>
      <point x="338" y="317"/>
      <point x="413" y="436"/>
      <point x="413" y="560" type="curve" smooth="yes"/>
      <point x="413" y="630"/>
      <point x="377" y="670"/>
      <point x="301" y="670" type="curve" smooth="yes"/>
      <point x="188" y="670"/>
      <point x="113" y="551"/>
      <point x="113" y="427" type="curve" smooth="yes"/>
      <point x="113" y="357"/>
      <point x="149" y="317"/>
    </contour>
    <contour>
      <point x="297" y="623" type="curve" smooth="yes"/>
      <point x="341" y="623"/>
      <point x="360" y="600"/>
      <point x="360" y="560" type="curve" smooth="yes"/>
      <point x="360" y="479"/>
      <point x="311" y="364"/>
      <point x="229" y="364" type="curve" smooth="yes"/>
      <point x="185" y="364"/>
      <point x="166" y="387"/>
      <point x="166" y="427" type="curve" smooth="yes"/>
      <point x="166" y="508"/>
      <point x="215" y="623"/>
    </contour>
    <contour>
      <point x="241" y="279" type="line"/>
      <point x="-44" y="1" type="line"/>
      <point x="-45" y="-5" type="line"/>
      <point x="52" y="-5" type="line"/>
      <point x="276" y="279" type="line"/>
    </contour>
    <contour>
      <point x="429" y="376" type="line"/>
      <point x="714" y="654" type="line"/>
      <point x="715" y="660" type="line"/>
      <point x="618" y="660" type="line"/>
      <point x="394" y="376" type="line"/>
    </contour>
    <contour>
      <point x="368" y="-15" type="curve" smooth="yes"/>
      <point x="481" y="-15"/>
      <point x="556" y="104"/>
      <point x="556" y="228" type="curve" smooth="yes"/>
      <point x="556" y="298"/>
      <point x="520" y="338"/>
      <point x="444" y="338" type="curve" smooth="yes"/>
      <point x="331" y="338"/>
      <point x="256" y="219"/>
      <point x="256" y="95" type="curve" smooth="yes"/>
      <point x="256" y="25"/>
      <point x="292" y="-15"/>
    </contour>
    <contour>
      <point x="440" y="291" type="curve" smooth="yes"/>
      <point x="484" y="291"/>
      <point x="503" y="268"/>
      <point x="503" y="228" type="curve" smooth="yes"/>
      <point x="503" y="147"/>
      <point x="454" y="32"/>
      <point x="372" y="32" type="curve" smooth="yes"/>
      <point x="328" y="32"/>
      <point x="309" y="55"/>
      <point x="309" y="95" type="curve" smooth="yes"/>
      <point x="309" y="176"/>
      <point x="358" y="291"/>
    </contour>
  </outline>
</glyph>
<glyph name="ampersand" format="2">
  <advance width="614"/>
  <unicode hex="0026"/>
  <outline>
    <contour>
      <point x="171.00851340774105" y="336.9677679123913"/>
      <point x="121" y="312"/>
      <point x="87" y="278" type="curve" smooth="yes"/>
      <point x="47" y="238"/>
      <point x="31" y="188"/>
      <point x="31" y="124" type="curve" smooth="yes"/>
      <point x="31" y="38"/>
      <point x="82" y="-5"/>
      <point x="168" y="-5" type="curve" smooth="yes"/>
      <point x="269" y="-5"/>
      <point x="318" y="33"/>
      <point x="411" y="166" type="curve"/>
      <point x="418" y="166" type="line"/>
      <point x="584" y="417" type="line"/>
      <point x="532" y="439" type="line"/>
      <point x="389" y="213" type="line"/>
      <point x="377" y="213" type="line"/>
      <point x="287" y="77"/>
      <point x="248" y="47"/>
      <point x="177" y="47" type="curve" smooth="yes"/>
      <point x="127" y="47"/>
      <point x="94" y="72"/>
      <point x="94" y="130" type="curve" smooth="yes"/>
      <point x="94" y="177"/>
      <point x="102" y="215"/>
      <point x="131" y="244" type="curve" smooth="yes"/>
      <point x="159" y="272"/>
      <point x="191.89149815657677" y="290.3665437094428"/>
      <point x="355" y="338" type="curve"/>
      <point x="330" y="379" type="line"/>
    </contour>
    <contour>
      <point x="581" y="647" type="line"/>
      <point x="507" y="663"/>
      <point x="462" y="669"/>
      <point x="423" y="669" type="curve" smooth="yes"/>
      <point x="314" y="669"/>
      <point x="243" y="601"/>
      <point x="243" y="517" type="curve" smooth="yes"/>
      <point x="243" y="489"/>
      <point x="252" y="453"/>
      <point x="272" y="407" type="curve" smooth="yes"/>
      <point x="378" y="162" type="line"/>
      <point x="382" y="162" type="line"/>
      <point x="451" y="0" type="line"/>
      <point x="520" y="0" type="line"/>
      <point x="420" y="224" type="line"/>
      <point x="416" y="224" type="line"/>
      <point x="327" y="429" type="line" smooth="yes"/>
      <point x="310" y="468"/>
      <point x="305" y="493"/>
      <point x="305" y="515" type="curve" smooth="yes"/>
      <point x="305" y="576"/>
      <point x="353" y="618"/>
      <point x="418" y="618" type="curve" smooth="yes"/>
      <point x="455" y="618"/>
      <point x="495" y="613"/>
      <point x="566" y="596" type="curve"/>
    </contour>
  </outline>
</glyph>
<glyph name="parenleft" format="2">
  <advance width="614"/>
  <unicode hex="0028"/>
  <outline>
    <contour>
      <point x="287.0" y="641.0"/>
      <point x="136" y="438.0"/>
      <point x="136" y="228" type="curve" smooth="yes"/>
      <point x="136" y="90"/>
      <point x="213" y="-37"/>
      <point x="381" y="-145" type="curve"/>
      <point x="414" y="-102" type="line"/>
      <point x="258" y="4"/>
      <point x="198" y="114"/>
      <point x="198" y="228" type="curve" smooth="yes"/>
      <point x="198" y="403.0"/>
      <point x="319.0" y="592"/>
      <point x="661" y="760" type="curve"/>
      <point x="636" y="803" type="line"/>
    </contour>
  </outline>
</glyph>
<glyph name="parenright" format="2">
  <advance width="614"/>
  <unicode hex="0029"/>
  <outline>
    <contour>
      <point x="384.0" y="17.0"/>
      <point x="535.0" y="220.0"/>
      <point x="535" y="430" type="curve" smooth="yes"/>
      <point x="535" y="568"/>
      <point x="458" y="695"/>
      <point x="290" y="803" type="curve"/>
      <point x="257" y="760" type="line"/>
      <point x="413" y="654"/>
      <point x="473" y="544"/>
      <point x="473" y="430" type="curve" smooth="yes"/>
      <point x="473.0" y="255.0"/>
      <point x="352.0" y="66.0"/>
      <point x="10" y="-102" type="curve"/>
      <point x="35" y="-145" type="line"/>
    </contour>
  </outline>
</glyph>
<glyph name="asterisk" format="2">
  <advance width="614"/>
  <unicode hex="002A"/>
  <outline>
    <contour>
      <point x="323" y="361.0" type="line"/>
      <point x="360" y="361.0" type="line"/>
      <point x="370" y="398.0" type="line"/>
      <point x="333" y="398.0" type="line"/>
    </contour>
    <contour>
      <point x="467" y="630.0" type="curve"/>
      <point x="372" y="630.0" type="line"/>
      <point x="352" y="562.0"/>
      <point x="358" y="468.0"/>
      <point x="338" y="397.0" type="curve"/>
      <point x="370" y="397.0" type="line"/>
      <point x="390" y="467.0"/>
      <point x="447" y="562.0"/>
    </contour>
    <contour>
      <point x="114" y="422.0" type="line"/>
      <point x="172" y="399.0"/>
      <point x="271" y="397.0"/>
      <point x="331" y="373.0" type="curve"/>
      <point x="348" y="399.0" type="line"/>
      <point x="289" y="422.0"/>
      <point x="227" y="486.0"/>
      <point x="169" y="509.0" type="curve"/>
    </contour>
    <contour>
      <point x="105" y="229.0" type="curve"/>
      <point x="163" y="163.0" type="line"/>
      <point x="221" y="214.0"/>
      <point x="285" y="304.0"/>
      <point x="347" y="358.0" type="curve"/>
      <point x="327" y="381.0" type="line"/>
      <point x="267" y="328.0"/>
      <point x="164" y="281.0"/>
    </contour>
    <contour>
      <point x="497" y="220.0" type="line"/>
      <point x="466" y="272.0"/>
      <point x="397" y="327.0"/>
      <point x="367" y="380.0" type="curve"/>
      <point x="339" y="361.0" type="line"/>
      <point x="369" y="307.0"/>
      <point x="381" y="214.0"/>
      <point x="411" y="163.0" type="curve"/>
    </contour>
    <contour>
      <point x="594" y="508.0" type="line"/>
      <point x="524" y="485.0"/>
      <point x="431" y="421.0"/>
      <point x="358" y="398.0" type="curve"/>
      <point x="360" y="367.0" type="line"/>
      <point x="434" y="391.0"/>
      <point x="537" y="394.0"/>
      <point x="607" y="417.0" type="curve"/>
    </contour>
  </outline>
</glyph>
<glyph name="plus" format="2">
  <advance width="614"/>
  <unicode hex="002B"/>
  <outline>
    <contour>
      <point x="372" y="561.0" type="line"/>
      <point x="236" y="90.0" type="line"/>
      <point x="295" y="90.0" type="line"/>
      <point x="431" y="561.0" type="line"/>
    </contour>
    <contour>
      <point x="93" y="301.0" type="line"/>
      <point x="561" y="301.0" type="line"/>
      <point x="576" y="352.0" type="line"/>
      <point x="108" y="352.0" type="line"/>
    </contour>
  </outline>
</glyph>
<glyph name="comma" format="2">
  <advance width="614"/>
  <unicode hex="002C"/>
  <outline>
    <contour>
      <point x="71" y="-144.0" type="line"/>
      <point x="138" y="-144.0" type="line"/>
      <point x="292" y="-56"/>
      <point x="313" y="-21"/>
      <point x="346" y="120.0" type="curve"/>
      <point x="246" y="120.0" type="line"/>
      <point x="221" y="-3.0"/>
      <point x="206" y="-27.0"/>
      <point x="71" y="-142.0" type="curve"/>
    </contour>
  </outline>
</glyph>
<glyph name="hyphen" format="2">
  <advance width="614"/>
  <unicode hex="002D"/>
  <outline>
    <contour>
      <point x="142.60432419947165" y="309.0" type="line"/>
      <point x="126.83332798273722" y="254.0" type="line"/>
      <point x="500.8333279827373" y="254.0" type="line"/>
      <point x="516.6043241994716" y="309.0" type="line"/>
    </contour>
  </outline>
</glyph>
<glyph name="period" format="2">
  <advance width="614"/>
  <unicode hex="002E"/>
  <outline>
    <contour>
      <point x="251" y="-15" type="curve" smooth="yes"/>
      <point x="307.0" y="-15.0"/>
      <point x="335.0" y="23.0"/>
      <point x="335" y="64" type="curve" smooth="yes"/>
      <point x="335" y="98"/>
      <point x="310" y="122"/>
      <point x="270" y="122" type="curve" smooth="yes"/>
      <point x="215.0" y="122.0"/>
      <point x="185" y="86.0"/>
      <point x="185" y="42" type="curve" smooth="yes"/>
      <point x="185" y="8"/>
      <point x="209" y="-15"/>
    </contour>
  </outline>
</glyph>
<glyph name="slash" format="2">
  <advance width="614"/>
  <unicode hex="002F"/>
  <outline>
    <contour>
      <point x="724" y="755.0" type="line"/>
      <point x="655" y="755.0" type="line"/>
      <point x="-55" y="-100.0" type="line"/>
      <point x="16" y="-100.0" type="line"/>
    </contour>
  </outline>
</glyph>
<glyph name="zero" format="2">
  <advance width="614"/>
  <unicode hex="0030"/>
  <outline>
    <contour>
      <point x="113" y="244" type="line"/>
      <point x="99" y="185" type="line"/>
      <point x="556" y="415" type="line"/>
      <point x="571" y="474" type="line"/>
    </contour>
    <contour>
      <point x="416" y="670" type="curve" smooth="yes"/>
      <point x="345.0" y="670.0"/>
      <point x="283" y="647"/>
      <point x="228" y="592" type="curve" smooth="yes"/>
      <point x="130" y="494"/>
      <point x="70" y="334"/>
      <point x="70" y="186" type="curve" smooth="yes"/>
      <point x="70" y="49"/>
      <point x="141" y="-15"/>
      <point x="248" y="-15" type="curve" smooth="yes"/>
      <point x="319.0" y="-15.0"/>
      <point x="381" y="8"/>
      <point x="436" y="63" type="curve" smooth="yes"/>
      <point x="534" y="161"/>
      <point x="594" y="321"/>
      <point x="594" y="469" type="curve" smooth="yes"/>
      <point x="594" y="606"/>
      <point x="523" y="670"/>
    </contour>
    <contour>
      <point x="251" y="36" type="curve" smooth="yes"/>
      <point x="180.0" y="36"/>
      <point x="133" y="82"/>
      <point x="133" y="183" type="curve" smooth="yes"/>
      <point x="133" y="305"/>
      <point x="181" y="463"/>
      <point x="273" y="555" type="curve" smooth="yes"/>
      <point x="312" y="594"/>
      <point x="359" y="619"/>
      <point x="413" y="619" type="curve" smooth="yes"/>
      <point x="484.0" y="619.0"/>
      <point x="531" y="573"/>
      <point x="531" y="472" type="curve" smooth="yes"/>
      <point x="531" y="350"/>
      <point x="483" y="192"/>
      <point x="391" y="100" type="curve" smooth="yes"/>
      <point x="352" y="61"/>
      <point x="305" y="36"/>
    </contour>
  </outline>
</glyph>
<glyph name="one" format="2">
  <advance width="614"/>
  <unicode hex="0031"/>
  <outline>
    <contour>
      <point x="486" y="664.0" type="line"/>
      <point x="434" y="618.0" type="line"/>
      <point x="205.0" y="0.0" type="line"/>
      <point x="266.0" y="0.0" type="line"/>
      <point x="509" y="664.0" type="line"/>
    </contour>
    <contour>
      <point x="226" y="483.0" type="line"/>
      <point x="471" y="604.0" type="line"/>
      <point x="486" y="664.0" type="line"/>
      <point x="245" y="546.0" type="line"/>
    </contour>
    <contour>
      <point x="57.0" y="0.0" type="line"/>
      <point x="460.0" y="0.0" type="line"/>
      <point x="474.6240146736992" y="51.0" type="line"/>
      <point x="71.62401467369921" y="51.0" type="line"/>
    </contour>
  </outline>
</glyph>
<glyph name="two" format="2">
  <advance width="614"/>
  <unicode hex="0032"/>
  <outline>
    <contour>
      <point x="19.0" y="0.0" type="line"/>
      <point x="472.0" y="0.0" type="line"/>
      <point x="487" y="51.0" type="line"/>
      <point x="100" y="51.0" type="line"/>
      <point x="19" y="37.0" type="line"/>
    </contour>
    <contour>
      <point x="577" y="414"/>
      <point x="598" y="473"/>
      <point x="598" y="533" type="curve" smooth="yes"/>
      <point x="598" y="614"/>
      <point x="535" y="670"/>
      <point x="438" y="670" type="curve" smooth="yes"/>
      <point x="359" y="670"/>
      <point x="301" y="648"/>
      <point x="158" y="545" type="curve"/>
      <point x="189" y="500" type="line"/>
      <point x="323" y="598"/>
      <point x="375" y="619"/>
      <point x="435" y="619" type="curve" smooth="yes"/>
      <point x="498" y="619"/>
      <point x="533" y="584"/>
      <point x="533" y="530" type="curve" smooth="yes"/>
      <point x="533" y="475"/>
      <point x="510" y="429"/>
      <point x="381" y="326" type="curve" smooth="yes"/>
      <point x="19" y="37" type="line"/>
      <point x="121" y="25" type="line"/>
      <point x="121" y="81" type="line"/>
      <point x="93" y="31" type="line"/>
      <point x="426" y="295" type="line" smooth="yes"/>
    </contour>
  </outline>
</glyph>
<glyph name="three" format="2">
  <advance width="614"/>
  <unicode hex="0033"/>
  <outline>
    <contour>
      <point x="319" y="363" type="line"/>
      <point x="319" y="409" type="line"/>
      <point x="294" y="360" type="line"/>
      <point x="604" y="618" type="line"/>
      <point x="499" y="630" type="line"/>
      <point x="499" y="574" type="line"/>
      <point x="525" y="624" type="line"/>
      <point x="224" y="364" type="line"/>
      <point x="224" y="336" type="line"/>
      <point x="419" y="332"/>
      <point x="459" y="293"/>
      <point x="459" y="223" type="curve" smooth="yes"/>
      <point x="459" y="141"/>
      <point x="388" y="66"/>
      <point x="167" y="51" type="curve" smooth="yes"/>
      <point x="35" y="42" type="line"/>
      <point x="25" y="-10" type="line"/>
      <point x="172" y="-1" type="line" smooth="yes"/>
      <point x="425" y="14"/>
      <point x="525" y="105"/>
      <point x="525" y="231" type="curve" smooth="yes"/>
      <point x="525" y="320"/>
      <point x="469" y="374"/>
      <point x="304" y="379" type="curve"/>
    </contour>
    <contour>
      <point x="178" y="604.0" type="line"/>
      <point x="556" y="604.0" type="line"/>
      <point x="604" y="618.0" type="line"/>
      <point x="604" y="655.0" type="line"/>
      <point x="193" y="655.0" type="line"/>
    </contour>
  </outline>
</glyph>
<glyph name="four" format="2">
  <advance width="614"/>
  <unicode hex="0034"/>
  <outline>
    <contour>
      <point x="46" y="186.0" type="line"/>
      <point x="565" y="186.0" type="line"/>
      <point x="580" y="237.0" type="line"/>
      <point x="422" y="237.0" type="line"/>
      <point x="415" y="235.0" type="line"/>
      <point x="99" y="235.0" type="line"/>
      <point x="60" y="233.0" type="line"/>
    </contour>
    <contour>
      <point x="129" y="208" type="line"/>
      <point x="129" y="265" type="line"/>
      <point x="104" y="214" type="line"/>
      <point x="537" y="634" type="line"/>
      <point x="537" y="655" type="line"/>
      <point x="494" y="655" type="line"/>
      <point x="60" y="233" type="line"/>
    </contour>
    <contour>
      <point x="582" y="655.0" type="line"/>
      <point x="523" y="655.0" type="line"/>
      <point x="376" y="209.0" type="line"/>
      <point x="369" y="199.0" type="line"/>
      <point x="303" y="0.0" type="line"/>
      <point x="366" y="0.0" type="line"/>
    </contour>
  </outline>
</glyph>
<glyph name="five" format="2">
  <advance width="614"/>
  <unicode hex="0035"/>
  <outline>
    <contour>
      <point x="265.0" y="655.0" type="line"/>
      <point x="253.0" y="615.0" type="line"/>
      <point x="267.0" y="604.0" type="line"/>
      <point x="599.0" y="604.0" type="line"/>
      <point x="614.0" y="655.0" type="line"/>
    </contour>
    <contour>
      <point x="256.0" y="655.0" type="line"/>
      <point x="132.0" y="316.0" type="line"/>
      <point x="133.0" y="311.0" type="line"/>
      <point x="172.0" y="307.0" type="line"/>
      <point x="203.0" y="360.0" type="line"/>
      <point x="314.0" y="655.0" type="line"/>
    </contour>
    <contour>
      <point x="429" y="23"/>
      <point x="538.0" y="132.0"/>
      <point x="538" y="272" type="curve" smooth="yes"/>
      <point x="538.0" y="372.0"/>
      <point x="465" y="420"/>
      <point x="372" y="420" type="curve" smooth="yes"/>
      <point x="315.0" y="420.0"/>
      <point x="249" y="402"/>
      <point x="178" y="356" type="curve"/>
      <point x="172" y="307" type="line"/>
      <point x="253" y="351"/>
      <point x="307" y="368"/>
      <point x="361" y="368" type="curve" smooth="yes"/>
      <point x="425" y="368"/>
      <point x="473.0" y="333.0"/>
      <point x="473" y="270" type="curve" smooth="yes"/>
      <point x="473.0" y="169.0"/>
      <point x="391" y="73"/>
      <point x="164" y="53" type="curve" smooth="yes"/>
      <point x="42" y="42" type="line"/>
      <point x="32" y="-10" type="line"/>
      <point x="179" y="2" type="line" smooth="yes"/>
    </contour>
  </outline>
</glyph>
<glyph name="six" format="2">
  <advance width="614"/>
  <unicode hex="0036"/>
  <outline>
    <contour>
      <point x="135" y="281.0"/>
      <point x="196" y="393"/>
      <point x="391" y="530" type="curve" smooth="yes"/>
      <point x="566" y="653" type="line"/>
      <point x="566" y="655" type="line"/>
      <point x="483" y="655" type="line"/>
      <point x="346" y="557" type="line" smooth="yes"/>
      <point x="151" y="417"/>
      <point x="75.0" y="286.0"/>
      <point x="75" y="165" type="curve" smooth="yes"/>
      <point x="75" y="42"/>
      <point x="154" y="-15"/>
      <point x="254" y="-15" type="curve" smooth="yes"/>
      <point x="404.0" y="-15.0"/>
      <point x="534.0" y="117.0"/>
      <point x="534.0" y="249.0" type="curve" smooth="yes"/>
      <point x="534.0" y="363.0"/>
      <point x="445" y="427"/>
      <point x="243" y="431" type="curve"/>
      <point x="210" y="392" type="line"/>
      <point x="405.0" y="384.0"/>
      <point x="474.0" y="342.0"/>
      <point x="474.0" y="247.0" type="curve" smooth="yes"/>
      <point x="474.0" y="150.0"/>
      <point x="374.0" y="36.0"/>
      <point x="255" y="36" type="curve" smooth="yes"/>
      <point x="182" y="36"/>
      <point x="135" y="81"/>
      <point x="135" y="162" type="curve" smooth="yes"/>
    </contour>
  </outline>
</glyph>
<glyph name="seven" format="2">
  <advance width="614"/>
  <unicode hex="0037"/>
  <outline>
    <contour>
      <point x="646" y="655.0" type="line"/>
      <point x="181" y="655.0" type="line"/>
      <point x="165" y="600.0" type="line"/>
      <point x="597" y="600.0" type="line"/>
      <point x="646" y="618.0" type="line"/>
    </contour>
    <contour>
      <point x="175" y="0" type="line"/>
      <point x="646" y="618" type="line"/>
      <point x="562" y="642" type="line"/>
      <point x="562" y="570" type="line"/>
      <point x="584" y="623" type="line"/>
      <point x="101" y="2" type="line"/>
      <point x="101" y="0" type="line"/>
    </contour>
  </outline>
</glyph>
<glyph name="eight" format="2">
  <advance width="614"/>
  <unicode hex="0038"/>
  <outline>
    <contour>
      <point x="418" y="331" type="line"/>
      <point x="418" y="336" type="line"/>
      <point x="527" y="357"/>
      <point x="590" y="434"/>
      <point x="590" y="519" type="curve" smooth="yes"/>
      <point x="590" y="615"/>
      <point x="517" y="670"/>
      <point x="407" y="670" type="curve" smooth="yes"/>
      <point x="276" y="670"/>
      <point x="177" y="583"/>
      <point x="177" y="477" type="curve" smooth="yes"/>
      <point x="177" y="418"/>
      <point x="211" y="372"/>
      <point x="268" y="348" type="curve"/>
    </contour>
    <contour>
      <point x="352" y="364" type="curve" smooth="yes"/>
      <point x="287" y="364"/>
      <point x="238.0" y="404.0644671430788"/>
      <point x="238" y="467" type="curve" smooth="yes"/>
      <point x="238" y="553"/>
      <point x="311" y="619"/>
      <point x="405" y="619" type="curve" smooth="yes"/>
      <point x="479.0624728967859" y="619.0"/>
      <point x="529.0" y="582.6929754849621"/>
      <point x="529" y="520" type="curve" smooth="yes"/>
      <point x="529" y="440"/>
      <point x="444" y="364"/>
    </contour>
    <contour>
      <point x="259" y="-15" type="curve" smooth="yes"/>
      <point x="399" y="-15"/>
      <point x="521" y="68"/>
      <point x="521" y="195" type="curve" smooth="yes"/>
      <point x="521" y="257"/>
      <point x="483" y="307"/>
      <point x="418" y="331" type="curve"/>
      <point x="268" y="348" type="line"/>
      <point x="268" y="343" type="line"/>
      <point x="141" y="325"/>
      <point x="60" y="244"/>
      <point x="60" y="146" type="curve" smooth="yes"/>
      <point x="60" y="42"/>
      <point x="140" y="-15"/>
    </contour>
    <contour>
      <point x="261" y="36" type="curve" smooth="yes"/>
      <point x="177" y="36"/>
      <point x="124.0" y="75.35154259094763"/>
      <point x="124" y="146" type="curve" smooth="yes"/>
      <point x="124" y="238"/>
      <point x="214" y="312"/>
      <point x="322" y="312" type="curve" smooth="yes"/>
      <point x="401" y="312"/>
      <point x="457.0" y="269.5979224926767"/>
      <point x="457" y="202" type="curve" smooth="yes"/>
      <point x="457" y="107"/>
      <point x="371" y="36"/>
    </contour>
  </outline>
</glyph>
<glyph name="nine" format="2">
  <advance width="614"/>
  <unicode hex="0039"/>
  <outline>
    <contour>
      <point x="543.0" y="373.0"/>
      <point x="482" y="261"/>
      <point x="287" y="124" type="curve" smooth="yes"/>
      <point x="112" y="1" type="line"/>
      <point x="112" y="-1" type="line"/>
      <point x="195" y="-1" type="line"/>
      <point x="332" y="97" type="line" smooth="yes"/>
      <point x="527" y="237"/>
      <point x="603.0" y="368.0"/>
      <point x="603" y="489" type="curve" smooth="yes"/>
      <point x="603" y="612"/>
      <point x="524" y="669"/>
      <point x="424" y="669" type="curve" smooth="yes"/>
      <point x="274.0" y="669.0"/>
      <point x="144.0" y="537.0"/>
      <point x="144.0" y="405.0" type="curve" smooth="yes"/>
      <point x="144.0" y="291.0"/>
      <point x="233" y="227"/>
      <point x="435" y="223" type="curve"/>
      <point x="468" y="262" type="line"/>
      <point x="273.0" y="270.0"/>
      <point x="204.0" y="312.0"/>
      <point x="204.0" y="407.0" type="curve" smooth="yes"/>
      <point x="204.0" y="504.0"/>
      <point x="304.0" y="618.0"/>
      <point x="423" y="618" type="curve" smooth="yes"/>
      <point x="496" y="618"/>
      <point x="543" y="573"/>
      <point x="543" y="492" type="curve" smooth="yes"/>
    </contour>
  </outline>
</glyph>
<glyph name="colon" format="2">
  <advance width="614"/>
  <unicode hex="003A"/>
  <outline>
    <contour>
      <point x="346" y="335" type="curve" smooth="yes"/>
      <point x="403.0" y="335.0"/>
      <point x="432.0" y="378.0"/>
      <point x="432" y="421" type="curve" smooth="yes"/>
      <point x="432" y="453"/>
      <point x="411" y="472"/>
      <point x="367" y="472" type="curve" smooth="yes"/>
      <point x="310.0" y="472"/>
      <point x="282.0" y="426.0"/>
      <point x="282" y="388" type="curve" smooth="yes"/>
      <point x="282" y="352"/>
      <point x="309" y="335"/>
    </contour>
    <contour>
      <point x="246" y="-15" type="curve" smooth="yes"/>
      <point x="303.0" y="-15.0"/>
      <point x="332.0" y="28.0"/>
      <point x="332" y="71" type="curve" smooth="yes"/>
      <point x="332" y="103"/>
      <point x="311" y="122"/>
      <point x="267" y="122" type="curve" smooth="yes"/>
      <point x="215.0" y="122.0"/>
      <point x="182" y="80.0"/>
      <point x="182" y="38" type="curve" smooth="yes"/>
      <point x="182" y="2"/>
      <point x="209" y="-15"/>
    </contour>
  </outline>
</glyph>
<glyph name="semicolon" format="2">
  <advance width="614"/>
  <unicode hex="003B"/>
  <outline>
    <contour>
      <point x="354" y="335" type="curve" smooth="yes"/>
      <point x="410.0" y="335.0"/>
      <point x="440.0" y="377.0"/>
      <point x="440" y="421" type="curve" smooth="yes"/>
      <point x="440" y="453"/>
      <point x="419" y="472"/>
      <point x="375" y="472" type="curve" smooth="yes"/>
      <point x="318.0" y="472"/>
      <point x="290.0" y="426.0"/>
      <point x="290" y="388" type="curve" smooth="yes"/>
      <point x="290" y="352"/>
      <point x="317" y="335"/>
    </contour>
    <contour>
      <point x="57" y="-144" type="line"/>
      <point x="120" y="-144" type="line"/>
      <point x="258" y="-41"/>
      <point x="282" y="-12"/>
      <point x="332" y="120" type="curve"/>
      <point x="232" y="120" type="line"/>
      <point x="190" y="6"/>
      <point x="175" y="-18"/>
      <point x="57" y="-142" type="curve"/>
    </contour>
  </outline>
</glyph>
<glyph name="less" format="2">
  <advance width="614"/>
  <unicode hex="003C"/>
  <outline>
    <contour>
      <point x="106" y="301.0" type="line"/>
      <point x="612" y="493.0" type="line"/>
      <point x="628" y="552.0" type="line"/>
      <point x="107" y="349.0" type="line"/>
    </contour>
    <contour>
      <point x="107" y="349" type="line"/>
      <point x="92" y="294" type="line"/>
      <point x="496" y="91" type="line"/>
      <point x="511" y="142" type="line"/>
      <point x="114" y="334" type="line"/>
    </contour>
  </outline>
</glyph>
<glyph name="equal" format="2">
  <advance width="614"/>
  <unicode hex="003D"/>
  <outline>
    <contour>
      <point x="82" y="209.0" type="line"/>
      <point x="520" y="209.0" type="line"/>
      <point x="535" y="261.0" type="line"/>
      <point x="97" y="261.0" type="line"/>
    </contour>
    <contour>
      <point x="134" y="392.0" type="line"/>
      <point x="572" y="392.0" type="line"/>
      <point x="587" y="443.0" type="line"/>
      <point x="149" y="443.0" type="line"/>
    </contour>
  </outline>
</glyph>
<glyph name="greater" format="2">
  <advance width="614"/>
  <unicode hex="003E"/>
  <outline>
    <contour>
      <point x="561.0" y="342.0" type="line"/>
      <point x="55.0" y="150.0" type="line"/>
      <point x="39.0" y="91.0" type="line"/>
      <point x="560.0" y="294.0" type="line"/>
    </contour>
    <contour>
      <point x="560.0" y="294.0" type="line"/>
      <point x="575.0" y="349.0" type="line"/>
      <point x="171.0" y="552.0" type="line"/>
      <point x="156.0" y="501.0" type="line"/>
      <point x="553.0" y="309.0" type="line"/>
    </contour>
  </outline>
</glyph>
<glyph name="question" format="2">
  <advance width="614"/>
  <unicode hex="003F"/>
  <outline>
    <contour>
      <point x="253" y="227" type="line"/>
      <point x="283" y="307"/>
      <point x="290" y="314"/>
      <point x="321" y="326" type="curve" smooth="yes"/>
      <point x="436" y="371" type="line" smooth="yes"/>
      <point x="588" y="431"/>
      <point x="628" y="492"/>
      <point x="628" y="582" type="curve" smooth="yes"/>
      <point x="628" y="669"/>
      <point x="555" y="725"/>
      <point x="460" y="725" type="curve" smooth="yes"/>
      <point x="374" y="725"/>
      <point x="314" y="705"/>
      <point x="176" y="618" type="curve"/>
      <point x="203" y="573" type="line"/>
      <point x="348" y="660"/>
      <point x="393" y="674"/>
      <point x="452" y="674" type="curve" smooth="yes"/>
      <point x="519" y="674"/>
      <point x="564" y="641"/>
      <point x="564" y="573" type="curve" smooth="yes"/>
      <point x="564" y="515"/>
      <point x="534" y="467"/>
      <point x="425" y="425" type="curve" smooth="yes"/>
      <point x="292" y="374" type="line" smooth="yes"/>
      <point x="251" y="358"/>
      <point x="241" y="350"/>
      <point x="235" y="328" type="curve" smooth="yes"/>
      <point x="232" y="317"/>
      <point x="227" y="292"/>
      <point x="217" y="227" type="curve"/>
    </contour>
    <contour>
      <point x="197" y="93" type="curve" smooth="yes"/>
      <point x="151.0" y="93.0"/>
      <point x="125.0" y="64.0"/>
      <point x="125" y="30" type="curve" smooth="yes"/>
      <point x="125" y="4"/>
      <point x="145" y="-15"/>
      <point x="181" y="-15" type="curve" smooth="yes"/>
      <point x="227.0" y="-15.0"/>
      <point x="253.0" y="14.0"/>
      <point x="253" y="48" type="curve" smooth="yes"/>
      <point x="253" y="74"/>
      <point x="232" y="93"/>
    </contour>
  </outline>
</glyph>
<glyph name="at" format="2">
  <advance width="614"/>
  <unicode hex="0040"/>
  <outline>
    <contour>
      <point x="361" y="429" type="curve" smooth="yes"/>
      <point x="390" y="458"/>
      <point x="426" y="469"/>
      <point x="469" y="469" type="curve" smooth="yes"/>
      <point x="588" y="469" type="line"/>
      <point x="602" y="515" type="line"/>
      <point x="485" y="515" type="line" smooth="yes"/>
      <point x="416" y="515"/>
      <point x="358" y="497"/>
      <point x="315" y="454" type="curve" smooth="yes"/>
      <point x="266" y="405"/>
      <point x="237" y="312"/>
      <point x="237" y="244" type="curve" smooth="yes"/>
      <point x="237" y="164"/>
      <point x="284" y="129"/>
      <point x="385" y="129" type="curve" smooth="yes"/>
      <point x="435.0" y="129.0"/>
      <point x="478" y="141"/>
      <point x="515" y="178" type="curve" smooth="yes"/>
      <point x="588" y="251"/>
      <point x="637.0" y="479"/>
      <point x="637" y="574" type="curve" smooth="yes"/>
      <point x="637" y="695"/>
      <point x="572" y="725"/>
      <point x="456" y="725" type="curve" smooth="yes"/>
      <point x="376" y="725"/>
      <point x="304" y="702"/>
      <point x="242" y="640" type="curve" smooth="yes"/>
      <point x="133.0" y="531.0"/>
      <point x="49" y="271.0"/>
      <point x="49" y="113" type="curve" smooth="yes"/>
      <point x="49" y="-24"/>
      <point x="121" y="-79"/>
      <point x="252" y="-79" type="curve" smooth="yes"/>
      <point x="301" y="-79"/>
      <point x="345" y="-73"/>
      <point x="409" y="-60" type="curve"/>
      <point x="399" y="-17" type="line"/>
      <point x="343" y="-30"/>
      <point x="302" y="-34"/>
      <point x="270" y="-34" type="curve" smooth="yes"/>
      <point x="158" y="-34"/>
      <point x="98" y="10"/>
      <point x="98" y="127" type="curve" smooth="yes"/>
      <point x="98" y="255"/>
      <point x="177" y="511"/>
      <point x="269" y="603" type="curve" smooth="yes"/>
      <point x="332" y="666"/>
      <point x="391" y="680"/>
      <point x="457" y="680" type="curve" smooth="yes"/>
      <point x="546" y="680"/>
      <point x="588" y="655"/>
      <point x="588" y="570" type="curve" smooth="yes"/>
      <point x="588" y="488"/>
      <point x="536" y="270"/>
      <point x="480" y="214" type="curve" smooth="yes"/>
      <point x="450" y="184"/>
      <point x="419" y="175"/>
      <point x="382" y="175" type="curve" smooth="yes"/>
      <point x="323" y="175"/>
      <point x="293" y="194"/>
      <point x="293" y="249" type="curve" smooth="yes"/>
      <point x="293" y="308"/>
      <point x="326" y="394"/>
    </contour>
  </outline>
</glyph>
<glyph name="A" format="2">
  <advance width="614"/>
  <unicode hex="0041"/>
  <anchor x="424" y="691" name="aboveUC"/>
  <anchor x="412" y="651" name="aboveUCx"/>
  <anchor x="466" y="-10" name="belowogonek"/>
  <anchor x="263" y="-30" name="below"/>
  <anchor x="272" y="0" name="belowx"/>
  <outline>
    <contour>
      <point x="117.6358225375204" y="201.0" type="line"/>
      <point x="466.6358225375204" y="201.0" type="line"/>
      <point x="452.25983721121963" y="252.0" type="line"/>
      <point x="151.25983721121958" y="252.0" type="line"/>
    </contour>
    <contour>
      <point x="47.0" y="0.0" type="line"/>
      <point x="184" y="222.0" type="line"/>
      <point x="184" y="222.0" type="line"/>
      <point x="433" y="627.0" type="line"/>
      <point x="432.8182276720192" y="655.0" type="line"/>
      <point x="392.8182276720192" y="655.0" type="line"/>
      <point x="-20.0" y="0.0" type="line"/>
    </contour>
    <contour>
      <point x="502.0" y="0.0" type="line"/>
      <point x="466.81822767201925" y="655.0" type="line"/>
      <point x="421.8182276720192" y="655.0" type="line"/>
      <point x="412" y="631.0" type="line"/>
      <point x="431" y="224.0" type="line"/>
      <point x="431" y="224.0" type="line"/>
      <point x="442.0" y="0.0" type="line"/>
    </contour>
  </outline>
</glyph>
<glyph name="B" format="2">
  <advance width="614"/>
  <unicode hex="0042"/>
  <anchor x="226" y="-35" name="below"/>
  <outline>
    <contour>
      <point x="243" y="655" type="line"/>
      <point x="229" y="606" type="line"/>
      <point x="436" y="606" type="line" smooth="yes"/>
      <point x="517" y="606"/>
      <point x="551" y="571"/>
      <point x="551" y="519" type="curve" smooth="yes"/>
      <point x="551" y="449"/>
      <point x="478" y="371"/>
      <point x="317" y="364" type="curve" smooth="yes"/>
      <point x="156" y="357" type="line"/>
      <point x="144" y="315" type="line"/>
      <point x="413" y="338" type="line"/>
      <point x="568" y="372"/>
      <point x="617" y="450"/>
      <point x="617" y="529" type="curve" smooth="yes"/>
      <point x="617" y="603"/>
      <point x="562" y="655"/>
      <point x="444" y="655" type="curve" smooth="yes"/>
    </contour>
    <contour>
      <point x="224.8182276720192" y="655.0" type="line"/>
      <point x="37.0" y="0.0" type="line"/>
      <point x="96.0" y="0.0" type="line"/>
      <point x="283.8182276720192" y="655.0" type="line"/>
    </contour>
    <contour>
      <point x="171" y="345" type="line"/>
      <point x="162" y="315" type="line"/>
      <point x="323" y="310" type="line" smooth="yes"/>
      <point x="435" y="307"/>
      <point x="485" y="258"/>
      <point x="485" y="198" type="curve" smooth="yes"/>
      <point x="485" y="123"/>
      <point x="419" y="49"/>
      <point x="297" y="49" type="curve" smooth="yes"/>
      <point x="87" y="49" type="line"/>
      <point x="73" y="0" type="line"/>
      <point x="281" y="0" type="line" smooth="yes"/>
      <point x="459" y="0"/>
      <point x="548" y="87"/>
      <point x="548" y="194" type="curve" smooth="yes"/>
      <point x="548" y="265"/>
      <point x="503" y="316"/>
      <point x="413" y="334" type="curve"/>
      <point x="413" y="338" type="line"/>
    </contour>
  </outline>
</glyph>
<glyph name="C" format="2">
  <advance width="614"/>
  <unicode hex="0043"/>
  <anchor x="462" y="691" name="aboveUC"/>
  <anchor x="452" y="656" name="aboveUCx"/>
  <anchor x="254" y="-40" name="below"/>
  <anchor x="255" y="-15" name="belowcedilla"/>
  <outline>
    <contour>
      <point x="266" y="-15.0" type="curve" smooth="yes"/>
      <point x="348" y="-15.0"/>
      <point x="411" y="7"/>
      <point x="524" y="81" type="curve"/>
      <point x="492" y="127" type="line"/>
      <point x="387" y="59"/>
      <point x="328" y="36"/>
      <point x="265" y="36" type="curve" smooth="yes"/>
      <point x="189" y="36"/>
      <point x="133" y="89"/>
      <point x="133" y="195" type="curve" smooth="yes"/>
      <point x="133.0" y="404.0"/>
      <point x="255.0" y="619.0"/>
      <point x="441.0" y="619.0" type="curve" smooth="yes"/>
      <point x="496" y="619"/>
      <point x="540.0" y="606.0"/>
      <point x="616" y="532" type="curve"/>
      <point x="656" y="576" type="line"/>
      <point x="574.0" y="651.0"/>
      <point x="523" y="670.0"/>
      <point x="443.0" y="670.0" type="curve" smooth="yes"/>
      <point x="219" y="670"/>
      <point x="69.0" y="431.0"/>
      <point x="69" y="193" type="curve" smooth="yes"/>
      <point x="69" y="57"/>
      <point x="138" y="-15.0"/>
    </contour>
  </outline>
</glyph>
<glyph name="D" format="2">
  <advance width="614"/>
  <unicode hex="0044"/>
  <anchor x="405" y="691" name="aboveUC"/>
  <anchor x="199" y="-35" name="below"/>
  <outline>
    <contour>
      <point x="222.0" y="655.0" type="line"/>
      <point x="34.0" y="0.0" type="line"/>
      <point x="86.0" y="0.0" type="line"/>
      <point x="103.0" y="27.0" type="line"/>
      <point x="273.0" y="622.0" type="line"/>
      <point x="283.0" y="655.0" type="line"/>
    </contour>
    <contour>
      <point x="312" y="655" type="curve" smooth="yes"/>
      <point x="271" y="655" type="line"/>
      <point x="256" y="604" type="line"/>
      <point x="320" y="604" type="line" smooth="yes"/>
      <point x="467" y="604"/>
      <point x="540" y="538"/>
      <point x="540" y="425" type="curve" smooth="yes"/>
      <point x="540" y="221"/>
      <point x="384" y="51"/>
      <point x="131" y="51" type="curve" smooth="yes"/>
      <point x="98" y="51" type="line"/>
      <point x="83" y="0" type="line"/>
      <point x="117" y="0" type="line" smooth="yes"/>
      <point x="292" y="0"/>
      <point x="409" y="51"/>
      <point x="485" y="127" type="curve" smooth="yes"/>
      <point x="564" y="206"/>
      <point x="604" y="308"/>
      <point x="604" y="419" type="curve" smooth="yes"/>
      <point x="604" y="489"/>
      <point x="583" y="543"/>
      <point x="544" y="582" type="curve" smooth="yes"/>
      <point x="492" y="634"/>
      <point x="411" y="655"/>
    </contour>
  </outline>
</glyph>
<glyph name="E" format="2">
  <advance width="614"/>
  <unicode hex="0045"/>
  <anchor x="467" y="691" name="aboveUC"/>
  <anchor x="389" y="-10" name="belowogonek"/>
  <anchor x="260" y="-35" name="below"/>
  <outline>
    <contour>
      <point x="224.8182276720192" y="655.0" type="line"/>
      <point x="37.0" y="0.0" type="line"/>
      <point x="98.0" y="0.0" type="line"/>
      <point x="285.8182276720192" y="655.0" type="line"/>
    </contour>
    <contour>
      <point x="223.19421299831998" y="604.0" type="line"/>
      <point x="640.1942129983199" y="604.0" type="line"/>
      <point x="654.8182276720192" y="655.0" type="line"/>
      <point x="237.8182276720192" y="655.0" type="line"/>
    </contour>
    <contour>
      <point x="50.0" y="0.0" type="line"/>
      <point x="476.0" y="0.0" type="line"/>
      <point x="490.6240146736992" y="51.0" type="line"/>
      <point x="64.62401467369921" y="51.0" type="line"/>
    </contour>
    <contour>
      <point x="137.74408804219524" y="306.0" type="line"/>
      <point x="490.74408804219524" y="306.0" type="line"/>
      <point x="505.36810271589445" y="357.0" type="line"/>
      <point x="152.36810271589442" y="357.0" type="line"/>
    </contour>
  </outline>
</glyph>
<glyph name="F" format="2">
  <advance width="614"/>
  <unicode hex="0046"/>
  <outline>
    <contour>
      <point x="224.8182276720192" y="655.0" type="line"/>
      <point x="37.0" y="0.0" type="line"/>
      <point x="98.0" y="0.0" type="line"/>
      <point x="285.8182276720192" y="655.0" type="line"/>
    </contour>
    <contour>
      <point x="223.19421299831998" y="604.0" type="line"/>
      <point x="636.1942129983199" y="604.0" type="line"/>
      <point x="650.8182276720192" y="655.0" type="line"/>
      <point x="237.8182276720192" y="655.0" type="line"/>
    </contour>
    <contour>
      <point x="128.8549810836722" y="275.0" type="line"/>
      <point x="505.8549810836722" y="275.0" type="line"/>
      <point x="520.4789957573714" y="326.0" type="line"/>
      <point x="143.47899575737137" y="326.0" type="line"/>
    </contour>
  </outline>
</glyph>
<glyph name="G" format="2">
  <advance width="614"/>
  <unicode hex="0047"/>
  <anchor x="485" y="696" name="aboveUC"/>
  <anchor x="475" y="661" name="aboveUCx"/>
  <anchor x="288" y="-40" name="below"/>
  <outline>
    <contour>
      <point x="612" y="603" type="curve"/>
      <point x="623" y="655" type="line"/>
      <point x="576" y="662"/>
      <point x="548" y="664.0"/>
      <point x="517" y="664" type="curve" smooth="yes"/>
      <point x="204" y="664"/>
      <point x="61" y="432"/>
      <point x="61" y="223" type="curve" smooth="yes"/>
      <point x="61.0" y="71.24770642201838"/>
      <point x="142.0" y="-15.0"/>
      <point x="316" y="-15.0" type="curve" smooth="yes"/>
      <point x="366" y="-15"/>
      <point x="410" y="-11"/>
      <point x="470" y="7" type="curve"/>
      <point x="578" y="343" type="line"/>
      <point x="342" y="343" type="line"/>
      <point x="328" y="292" type="line"/>
      <point x="539" y="292" type="line"/>
      <point x="508" y="307" type="line"/>
      <point x="413" y="17" type="line"/>
      <point x="452" y="57" type="line"/>
      <point x="407" y="42"/>
      <point x="360" y="36"/>
      <point x="319" y="36" type="curve" smooth="yes"/>
      <point x="186" y="36"/>
      <point x="125" y="99"/>
      <point x="125.0" y="224" type="curve" smooth="yes"/>
      <point x="125" y="416"/>
      <point x="252" y="613"/>
      <point x="508" y="613" type="curve" smooth="yes"/>
      <point x="545" y="613"/>
      <point x="568" y="611"/>
    </contour>
  </outline>
</glyph>
<glyph name="H" format="2">
  <advance width="614"/>
  <unicode hex="0048"/>
  <anchor x="439" y="691" name="aboveUC"/>
  <anchor x="232" y="-35" name="below"/>
  <anchor x="64" y="-10" name="belowcedilla"/>
  <anchor x="242" y="0" name="belowx"/>
  <anchor x="429" y="656" name="aboveUCx"/>
  <outline>
    <contour>
      <point x="221.8182276720192" y="655.0" type="line"/>
      <point x="34.0" y="0.0" type="line"/>
      <point x="95.0" y="0.0" type="line"/>
      <point x="282.8182276720192" y="655.0" type="line"/>
    </contour>
    <contour>
      <point x="574.8182276720192" y="655.0" type="line"/>
      <point x="387.0" y="0.0" type="line"/>
      <point x="448.0" y="0.0" type="line"/>
      <point x="635.8182276720192" y="655.0" type="line"/>
    </contour>
    <contour>
      <point x="154.45734265643642" y="305.0" type="line"/>
      <point x="499.45734265643637" y="305.0" type="line"/>
      <point x="514.0813573301356" y="356.0" type="line"/>
      <point x="169.08135733013563" y="356.0" type="line"/>
    </contour>
  </outline>
</glyph>
<glyph name="I" format="2">
  <advance width="614"/>
  <unicode hex="0049"/>
  <anchor x="232" y="-35" name="below"/>
  <anchor x="239" y="-9" name="belowogonek"/>
  <anchor x="439" y="691" name="aboveUC"/>
  <anchor x="430" y="661" name="aboveUCx"/>
  <outline>
    <contour>
      <point x="406" y="655.0" type="line"/>
      <point x="204.0" y="0.0" type="line"/>
      <point x="265.0" y="0.0" type="line"/>
      <point x="467" y="655.0" type="line"/>
    </contour>
    <contour>
      <point x="253" y="629.0" type="line"/>
      <point x="427" y="602.0" type="line"/>
      <point x="589" y="629.0" type="line"/>
      <point x="597" y="655.0" type="line"/>
      <point x="261" y="655.0" type="line"/>
    </contour>
    <contour>
      <point x="81" y="26.0" type="line"/>
      <point x="73.0" y="0.0" type="line"/>
      <point x="409.0" y="0.0" type="line"/>
      <point x="416" y="26.0" type="line"/>
      <point x="243" y="53.0" type="line"/>
    </contour>
  </outline>
</glyph>
<glyph name="J" format="2">
  <advance width="614"/>
  <unicode hex="004A"/>
  <anchor x="604" y="691" name="aboveUC"/>
  <anchor x="592" y="651" name="aboveUCx"/>
  <outline>
    <contour>
      <point x="263" y="-10.0" type="curve" smooth="yes"/>
      <point x="392" y="-10.0"/>
      <point x="456.18463176148214" y="66.90476190476191"/>
      <point x="488.61416943658537" y="180.0" type="curve" smooth="yes"/>
      <point x="624.8182276720192" y="655.0" type="line"/>
      <point x="563.8182276720192" y="655.0" type="line"/>
      <point x="428.187660208103" y="182.0" type="line" smooth="yes"/>
      <point x="401.0424303562692" y="87.33333333333334"/>
      <point x="346.8285940563065" y="40.0"/>
      <point x="266.4698154303523" y="40.0" type="curve" smooth="yes"/>
      <point x="211.91616736168277" y="40.0"/>
      <point x="167.05774160249325" y="56.0"/>
      <point x="82.18044250779138" y="175.0" type="curve"/>
      <point x="36" y="138.0" type="line"/>
      <point x="124" y="19.0"/>
      <point x="184" y="-10.0"/>
    </contour>
  </outline>
</glyph>
<glyph name="K" format="2">
  <advance width="614"/>
  <unicode hex="004B"/>
  <anchor x="276" y="-35" name="below"/>
  <anchor x="286" y="0" name="belowx"/>
  <outline>
    <contour>
      <point x="285.8182276720192" y="655.0" type="line"/>
      <point x="224.8182276720192" y="655.0" type="line"/>
      <point x="37.0" y="0.0" type="line"/>
      <point x="98.0" y="0.0" type="line"/>
    </contour>
    <contour>
      <point x="186" y="331.0" type="line"/>
      <point x="261" y="323.0" type="line"/>
      <point x="692" y="653.0" type="line"/>
      <point x="692" y="655.0" type="line"/>
      <point x="603" y="655.0" type="line"/>
    </contour>
    <contour>
      <point x="186" y="331.0" type="line"/>
      <point x="440" y="0.0" type="line"/>
      <point x="519" y="0.0" type="line"/>
      <point x="519" y="2.0" type="line"/>
      <point x="245" y="350.0" type="line"/>
    </contour>
  </outline>
</glyph>
<glyph name="L" format="2">
  <advance width="614"/>
  <unicode hex="004C"/>
  <anchor x="270" y="691" name="aboveUC"/>
  <anchor x="262" y="-35" name="below"/>
  <anchor x="465" y="655" name="topright"/>
  <outline>
    <contour>
      <point x="224.8182276720192" y="655.0" type="line"/>
      <point x="37.0" y="0.0" type="line"/>
      <point x="98.0" y="0.0" type="line"/>
      <point x="285.8182276720192" y="655.0" type="line"/>
    </contour>
    <contour>
      <point x="46.0" y="0.0" type="line"/>
      <point x="473.0" y="0.0" type="line"/>
      <point x="487.33726928794044" y="50.0" type="line"/>
      <point x="60.3372692879404" y="50.0" type="line"/>
    </contour>
  </outline>
</glyph>
<glyph name="M" format="2">
  <advance width="614"/>
  <unicode hex="004D"/>
  <anchor x="433" y="691" name="aboveUC"/>
  <anchor x="423" y="656" name="aboveUCx"/>
  <anchor x="248" y="-35" name="below"/>
  <anchor x="258" y="0" name="belowx"/>
  <outline>
    <contour>
      <point x="643.8182276720192" y="655.0" type="line"/>
      <point x="589.8182276720192" y="655.0" type="line"/>
      <point x="422.0" y="0.0" type="line"/>
      <point x="481.0" y="0.0" type="line"/>
    </contour>
    <contour>
      <point x="267.8182276720192" y="655.0" type="line"/>
      <point x="213.8182276720192" y="655.0" type="line"/>
      <point x="1.0" y="0.0" type="line"/>
      <point x="60.0" y="0.0" type="line"/>
    </contour>
    <contour>
      <point x="614.8182276720192" y="655.0" type="line"/>
      <point x="559" y="655.0" type="line"/>
      <point x="288" y="247.0" type="line"/>
      <point x="328" y="247.0" type="line"/>
      <point x="287" y="655.0" type="line"/>
      <point x="236.8182276720192" y="655.0" type="line"/>
      <point x="284.0478963653795" y="185.0" type="line"/>
      <point x="305.0478963653795" y="185.0" type="line"/>
    </contour>
  </outline>
</glyph>
<glyph name="N" format="2">
  <advance width="614"/>
  <unicode hex="004E"/>
  <anchor x="445" y="691" name="aboveUC"/>
  <anchor x="435" y="656" name="aboveUCx"/>
  <anchor x="232" y="-35" name="below"/>
  <anchor x="242" y="0" name="belowx"/>
  <outline>
    <contour>
      <point x="257.23030149987824" y="639.0" type="line"/>
      <point x="369.0" y="0.0" type="line"/>
      <point x="414.0" y="0.0" type="line"/>
      <point x="419.58792617214095" y="16.0" type="line"/>
      <point x="309" y="655.0" type="line"/>
      <point x="263.8182276720192" y="655.0" type="line"/>
    </contour>
    <contour>
      <point x="451.0" y="0.0" type="line"/>
      <point x="638.8182276720192" y="655.0" type="line"/>
      <point x="581" y="655.0" type="line"/>
      <point x="398.0" y="0.0" type="line"/>
    </contour>
    <contour>
      <point x="89.0" y="0.0" type="line"/>
      <point x="272" y="655.0" type="line"/>
      <point x="218.8182276720192" y="655.0" type="line"/>
      <point x="31.0" y="0.0" type="line"/>
    </contour>
  </outline>
</glyph>
<glyph name="O" format="2">
  <advance width="614"/>
  <unicode hex="004F"/>
  <anchor x="426" y="696" name="aboveUC"/>
  <anchor x="416" y="661" name="aboveUCx"/>
  <anchor x="248" y="-40" name="below"/>
  <anchor x="245" y="-15" name="belowogonek"/>
  <outline>
    <contour>
      <point x="407" y="670" type="curve" smooth="yes"/>
      <point x="254" y="670"/>
      <point x="132" y="532"/>
      <point x="84" y="366" type="curve" smooth="yes"/>
      <point x="68" y="311"/>
      <point x="61" y="251"/>
      <point x="61.0" y="206.0" type="curve" smooth="yes"/>
      <point x="61" y="55"/>
      <point x="141" y="-15"/>
      <point x="260" y="-15" type="curve" smooth="yes"/>
      <point x="413" y="-15"/>
      <point x="535" y="123"/>
      <point x="583.0" y="289.0" type="curve" smooth="yes"/>
      <point x="599.0" y="344.0"/>
      <point x="606.0" y="404.0"/>
      <point x="606.0" y="449.0" type="curve" smooth="yes"/>
      <point x="606.0" y="600.0"/>
      <point x="526.0" y="670.0"/>
    </contour>
    <contour>
      <point x="263" y="36" type="curve" smooth="yes"/>
      <point x="180.0" y="36"/>
      <point x="124" y="88"/>
      <point x="124.0" y="203.0" type="curve" smooth="yes"/>
      <point x="124" y="247"/>
      <point x="131" y="306"/>
      <point x="148" y="365" type="curve" smooth="yes"/>
      <point x="187" y="500"/>
      <point x="280" y="619"/>
      <point x="404" y="619" type="curve" smooth="yes"/>
      <point x="487.0" y="619.0"/>
      <point x="543.0" y="567.0"/>
      <point x="543.0" y="452.0" type="curve" smooth="yes"/>
      <point x="543.0" y="408.0"/>
      <point x="536.0" y="349.0"/>
      <point x="519.0" y="290.0" type="curve" smooth="yes"/>
      <point x="480" y="155"/>
      <point x="387" y="36"/>
    </contour>
  </outline>
</glyph>
<glyph name="P" format="2">
  <advance width="614"/>
  <unicode hex="0050"/>
  <anchor x="456" y="691" name="aboveUC"/>
  <outline>
    <contour>
      <point x="256" y="655" type="line"/>
      <point x="241" y="604" type="line"/>
      <point x="427" y="604" type="line" smooth="yes"/>
      <point x="521" y="604"/>
      <point x="564" y="564"/>
      <point x="564" y="498" type="curve" smooth="yes"/>
      <point x="564.0" y="365.0"/>
      <point x="474.0" y="286.0"/>
      <point x="316" y="286" type="curve" smooth="yes"/>
      <point x="150" y="286" type="line"/>
      <point x="136" y="236" type="line"/>
      <point x="306.0" y="236.0" type="line" smooth="yes"/>
      <point x="423" y="236"/>
      <point x="500" y="255"/>
      <point x="558" y="313" type="curve" smooth="yes"/>
      <point x="605" y="360"/>
      <point x="630" y="422"/>
      <point x="630.0" y="490.0" type="curve" smooth="yes"/>
      <point x="630" y="590"/>
      <point x="561" y="655"/>
      <point x="440" y="655" type="curve" smooth="yes"/>
    </contour>
    <contour>
      <point x="225.0" y="655.0" type="line"/>
      <point x="37.0" y="0.0" type="line"/>
      <point x="98.0" y="0.0" type="line"/>
      <point x="286.0" y="655.0" type="line"/>
    </contour>
  </outline>
</glyph>
<glyph name="R" format="2">
  <advance width="614"/>
  <unicode hex="0052"/>
  <guideline x="279.86941648429547" y="289" angle="10.330611753662753" identifier="x4OsohAdMW"/>
  <anchor x="451" y="691" name="aboveUC"/>
  <anchor x="256" y="-35" name="below"/>
  <anchor x="266" y="0" name="belowx"/>
  <outline>
    <contour>
      <point x="270" y="655" type="line"/>
      <point x="255" y="605" type="line"/>
      <point x="432" y="605" type="line" smooth="yes"/>
      <point x="512" y="605"/>
      <point x="550" y="571"/>
      <point x="550" y="516" type="curve" smooth="yes"/>
      <point x="550" y="410"/>
      <point x="481" y="337"/>
      <point x="284" y="329" type="curve" smooth="yes"/>
      <point x="172" y="325" type="line"/>
      <point x="164" y="296" type="line"/>
      <point x="308" y="282" type="line"/>
      <point x="308" y="287" type="line"/>
      <point x="530.0" y="301.0"/>
      <point x="614.0" y="382.0"/>
      <point x="614" y="515" type="curve" smooth="yes"/>
      <point x="614" y="596"/>
      <point x="554" y="655"/>
      <point x="441" y="655" type="curve" smooth="yes"/>
    </contour>
    <contour>
      <point x="224.8182276720192" y="655.0" type="line"/>
      <point x="37.0" y="0.0" type="line"/>
      <point x="98.0" y="0.0" type="line"/>
      <point x="285.8182276720192" y="655.0" type="line"/>
    </contour>
    <contour>
      <point x="507" y="4" type="line"/>
      <point x="399" y="183" type="line" smooth="yes"/>
      <point x="364" y="241"/>
      <point x="343" y="261"/>
      <point x="308" y="282" type="curve"/>
      <point x="167" y="307" type="line"/>
      <point x="158" y="277" type="line"/>
      <point x="257.0" y="277.0"/>
      <point x="282" y="266"/>
      <point x="335" y="174" type="curve" smooth="yes"/>
      <point x="436" y="0" type="line"/>
      <point x="506" y="0" type="line"/>
    </contour>
  </outline>
</glyph>
<glyph name="S" format="2">
  <advance width="614"/>
  <unicode hex="0053"/>
  <anchor x="446" y="696" name="aboveUC"/>
  <anchor x="436" y="661" name="aboveUCx"/>
  <anchor x="234" y="-35" name="below"/>
  <anchor x="239" y="-15" name="belowcedilla"/>
  <outline>
    <contour>
      <point x="284.0" y="38.0" type="curve" smooth="yes"/>
      <point x="208.0" y="38.0"/>
      <point x="136.0" y="67.0"/>
      <point x="60" y="110" type="curve"/>
      <point x="33" y="59" type="line"/>
      <point x="116" y="13"/>
      <point x="188" y="-13"/>
      <point x="284.0" y="-13.0" type="curve" smooth="yes"/>
      <point x="425" y="-13"/>
      <point x="524" y="54"/>
      <point x="524" y="177" type="curve" smooth="yes"/>
      <point x="524" y="238"/>
      <point x="508" y="284"/>
      <point x="408" y="341" type="curve" smooth="yes"/>
      <point x="318" y="392" type="line" smooth="yes"/>
      <point x="255" y="428"/>
      <point x="241" y="462"/>
      <point x="241" y="503" type="curve" smooth="yes"/>
      <point x="241" y="566"/>
      <point x="292" y="617"/>
      <point x="403.0" y="617.0" type="curve" smooth="yes"/>
      <point x="473" y="617"/>
      <point x="537" y="600"/>
      <point x="605" y="571" type="curve"/>
      <point x="623" y="625" type="line"/>
      <point x="543" y="654"/>
      <point x="485" y="668.0"/>
      <point x="403.0" y="668.0" type="curve" smooth="yes"/>
      <point x="254" y="668"/>
      <point x="178" y="584"/>
      <point x="178" y="499" type="curve" smooth="yes"/>
      <point x="178" y="435"/>
      <point x="209" y="387"/>
      <point x="284" y="345" type="curve" smooth="yes"/>
      <point x="374" y="295" type="line" smooth="yes"/>
      <point x="445" y="255"/>
      <point x="461" y="214"/>
      <point x="461" y="175" type="curve" smooth="yes"/>
      <point x="461" y="91"/>
      <point x="397" y="38"/>
    </contour>
  </outline>
</glyph>
<glyph name="T" format="2">
  <advance width="614"/>
  <unicode hex="0054"/>
  <anchor x="429" y="691" name="aboveUC"/>
  <anchor x="232" y="-35" name="below"/>
  <anchor x="239" y="-10" name="belowcedilla"/>
  <outline>
    <contour>
      <point x="390" y="636.0" type="line"/>
      <point x="208.0" y="0.0" type="line"/>
      <point x="269.0" y="0.0" type="line"/>
      <point x="451" y="636.0" type="line"/>
    </contour>
    <contour>
      <point x="160" y="604.0" type="line"/>
      <point x="662" y="604.0" type="line"/>
      <point x="677" y="655.0" type="line"/>
      <point x="175" y="655.0" type="line"/>
    </contour>
  </outline>
</glyph>
<glyph name="U" format="2">
  <advance width="614"/>
  <unicode hex="0055"/>
  <anchor x="439" y="691" name="aboveUC"/>
  <anchor x="429" y="656" name="aboveUCx"/>
  <anchor x="230" y="-40" name="below"/>
  <anchor x="256" y="-15" name="belowogonek"/>
  <outline>
    <contour>
      <point x="466" y="211" type="line" smooth="yes"/>
      <point x="431" y="89"/>
      <point x="369" y="36"/>
      <point x="275" y="36" type="curve" smooth="yes"/>
      <point x="177.0" y="36"/>
      <point x="133" y="85.0"/>
      <point x="133" y="159" type="curve" smooth="yes"/>
      <point x="133.0" y="181"/>
      <point x="137.78392362705375" y="213.21326205031397"/>
      <point x="155" y="273" type="curve" smooth="yes"/>
      <point x="265" y="655" type="line"/>
      <point x="204" y="655" type="line"/>
      <point x="96" y="281" type="line" smooth="yes"/>
      <point x="77.86466531714777" y="218.19800767234503"/>
      <point x="74.0" y="188.44444444444446"/>
      <point x="74" y="162" type="curve" smooth="yes"/>
      <point x="74.0" y="40.37430167597765"/>
      <point x="152" y="-15"/>
      <point x="267" y="-15" type="curve" smooth="yes"/>
      <point x="403" y="-15"/>
      <point x="480" y="52"/>
      <point x="524" y="205" type="curve" smooth="yes"/>
      <point x="654" y="655" type="line"/>
      <point x="594" y="655" type="line"/>
    </contour>
  </outline>
</glyph>
<glyph name="V" format="2">
  <advance width="614"/>
  <unicode hex="0056"/>
  <anchor x="232" y="-35" name="below"/>
  <outline>
    <contour>
      <point x="624" y="655.0" type="line"/>
      <point x="234" y="30.0" type="line"/>
      <point x="233.0" y="0.0" type="line"/>
      <point x="277.0" y="0.0" type="line"/>
      <point x="689.8182276720192" y="655.0" type="line"/>
    </contour>
    <contour>
      <point x="167.8182276720192" y="655.0" type="line"/>
      <point x="205.0" y="0.0" type="line"/>
      <point x="253.0" y="0.0" type="line"/>
      <point x="260" y="26.0" type="line"/>
      <point x="226" y="655.0" type="line"/>
    </contour>
  </outline>
</glyph>
<glyph name="W" format="2">
  <advance width="614"/>
  <unicode hex="0057"/>
  <anchor x="439" y="691" name="aboveUC"/>
  <anchor x="427" y="651" name="aboveUCx"/>
  <outline>
    <contour>
      <point x="405.0" y="0.0" type="line"/>
      <point x="684.8182276720192" y="655.0" type="line"/>
      <point x="624" y="655.0" type="line"/>
      <point x="366" y="27.0" type="line"/>
      <point x="364.0" y="0.0" type="line"/>
    </contour>
    <contour>
      <point x="120.0" y="0.0" type="line"/>
      <point x="129" y="27.0" type="line"/>
      <point x="232" y="655.0" type="line"/>
      <point x="172.8182276720192" y="655.0" type="line"/>
      <point x="77.0" y="0.0" type="line"/>
    </contour>
    <contour>
      <point x="371.0" y="0.0" type="line"/>
      <point x="379" y="27.0" type="line"/>
      <point x="403" y="531.0" type="line"/>
      <point x="379" y="531.0" type="line"/>
      <point x="114" y="27.0" type="line"/>
      <point x="111.0" y="0.0" type="line"/>
      <point x="150.0" y="0.0" type="line"/>
      <point x="375.0137704905286" y="429.0" type="line"/>
      <point x="350.0137704905286" y="429.0" type="line"/>
      <point x="330.0" y="0.0" type="line"/>
    </contour>
  </outline>
</glyph>
<glyph name="X" format="2">
  <advance width="614"/>
  <unicode hex="0058"/>
  <anchor x="439" y="691" name="aboveUC"/>
  <anchor x="429" y="656" name="aboveUCx"/>
  <anchor x="232" y="-35" name="below"/>
  <anchor x="242" y="0" name="belowx"/>
  <outline>
    <contour>
      <point x="-8" y="0" type="line"/>
      <point x="66" y="0" type="line"/>
      <point x="345" y="314" type="line"/>
      <point x="350" y="314" type="line"/>
      <point x="659" y="655" type="line"/>
      <point x="581" y="655" type="line"/>
      <point x="324" y="359" type="line"/>
      <point x="318" y="359" type="line"/>
    </contour>
    <contour>
      <point x="492" y="0" type="line"/>
      <point x="358" y="359" type="line"/>
      <point x="356" y="359" type="line"/>
      <point x="260" y="655" type="line"/>
      <point x="192" y="655" type="line"/>
      <point x="314" y="314" type="line"/>
      <point x="316" y="314" type="line"/>
      <point x="422" y="0" type="line"/>
    </contour>
  </outline>
</glyph>
<glyph name="Y" format="2">
  <advance width="614"/>
  <unicode hex="0059"/>
  <anchor x="424" y="691" name="aboveUC"/>
  <anchor x="414" y="656" name="aboveUCx"/>
  <anchor x="232" y="-35" name="below"/>
  <outline>
    <contour>
      <point x="343" y="322.0" type="line"/>
      <point x="241" y="655.0" type="line"/>
      <point x="174.8182276720192" y="655.0" type="line"/>
      <point x="313" y="228.0" type="line"/>
    </contour>
    <contour>
      <point x="296.1633795703659" y="297.0" type="line"/>
      <point x="211.0" y="0.0" type="line"/>
      <point x="272.0" y="0.0" type="line"/>
      <point x="357.1633795703659" y="297.0" type="line"/>
    </contour>
    <contour>
      <point x="328" y="324.0" type="line"/>
      <point x="297" y="207.0" type="line"/>
      <point x="682.8182276720192" y="655.0" type="line"/>
      <point x="607" y="655.0" type="line"/>
    </contour>
  </outline>
</glyph>
<glyph name="Z" format="2">
  <advance width="614"/>
  <unicode hex="005A"/>
  <anchor x="438" y="691" name="aboveUC"/>
  <anchor x="231" y="-35" name="below"/>
  <anchor x="238" y="-10" name="belowcedilla"/>
  <outline>
    <contour>
      <point x="16.0" y="0.0" type="line"/>
      <point x="480.0" y="0.0" type="line"/>
      <point x="494" y="50.0" type="line"/>
      <point x="76" y="50.0" type="line"/>
      <point x="16" y="29.0" type="line"/>
    </contour>
    <contour>
      <point x="112" y="9" type="line"/>
      <point x="112" y="80" type="line"/>
      <point x="88" y="27" type="line"/>
      <point x="637" y="626" type="line"/>
      <point x="540" y="647" type="line"/>
      <point x="540" y="574" type="line"/>
      <point x="563" y="626" type="line"/>
      <point x="16" y="29" type="line"/>
    </contour>
    <contour>
      <point x="177" y="604.0" type="line"/>
      <point x="585" y="604.0" type="line"/>
      <point x="637" y="626.0" type="line"/>
      <point x="637" y="655.0" type="line"/>
      <point x="192" y="655.0" type="line"/>
    </contour>
  </outline>
</glyph>
<glyph name="bracketleft" format="2">
  <advance width="614"/>
  <unicode hex="005B"/>
  <outline>
    <contour>
      <point x="425" y="783.0" type="line"/>
      <point x="364" y="783.0" type="line"/>
      <point x="102" y="-129.0" type="line"/>
      <point x="163" y="-129.0" type="line"/>
    </contour>
    <contour>
      <point x="384" y="732.0" type="line"/>
      <point x="658" y="732.0" type="line"/>
      <point x="673" y="783.0" type="line"/>
      <point x="399" y="783.0" type="line"/>
    </contour>
    <contour>
      <point x="137" y="-129.0" type="line"/>
      <point x="411" y="-129.0" type="line"/>
      <point x="426" y="-78.0" type="line"/>
      <point x="152" y="-78.0" type="line"/>
    </contour>
  </outline>
</glyph>
<glyph name="backslash" format="2">
  <advance width="614"/>
  <unicode hex="005C"/>
  <outline>
    <contour>
      <point x="196" y="755.0" type="line"/>
      <point x="414" y="-100.0" type="line"/>
      <point x="473" y="-100.0" type="line"/>
      <point x="253" y="755.0" type="line"/>
    </contour>
  </outline>
</glyph>
<glyph name="bracketright" format="2">
  <advance width="614"/>
  <unicode hex="005D"/>
  <outline>
    <contour>
      <point x="245" y="-129.0" type="line"/>
      <point x="306" y="-129.0" type="line"/>
      <point x="568" y="783.0" type="line"/>
      <point x="507" y="783.0" type="line"/>
    </contour>
    <contour>
      <point x="286" y="-78.0" type="line"/>
      <point x="12" y="-78.0" type="line"/>
      <point x="-3" y="-129.0" type="line"/>
      <point x="271" y="-129.0" type="line"/>
    </contour>
    <contour>
      <point x="533" y="783.0" type="line"/>
      <point x="259" y="783.0" type="line"/>
      <point x="244" y="732.0" type="line"/>
      <point x="518" y="732.0" type="line"/>
    </contour>
  </outline>
</glyph>
<glyph name="asciicircum" format="2">
  <advance width="614"/>
  <unicode hex="005E"/>
  <outline>
    <contour>
      <point x="414" y="655.0" type="line"/>
      <point x="409" y="625.0" type="line"/>
      <point x="501" y="271.0" type="line"/>
      <point x="566" y="271.0" type="line"/>
      <point x="459" y="655.0" type="line"/>
    </contour>
    <contour>
      <point x="443" y="655.0" type="line"/>
      <point x="399" y="655.0" type="line"/>
      <point x="70" y="271.0" type="line"/>
      <point x="142" y="271.0" type="line"/>
      <point x="438" y="625.0" type="line"/>
    </contour>
  </outline>
</glyph>
<glyph name="underscore" format="2">
  <advance width="614"/>
  <unicode hex="005F"/>
  <outline>
    <contour>
      <point x="4.544619970271" y="-26.0" type="line"/>
      <point x="-11.226376246463445" y="-81.0" type="line"/>
      <point x="446.7736237535365" y="-81.0" type="line"/>
      <point x="462.544619970271" y="-26.0" type="line"/>
    </contour>
  </outline>
</glyph>
<glyph name="grave" format="2">
  <advance width="614"/>
  <unicode hex="0060"/>
  <outline>
    <contour>
      <point x="435.0" y="426.0" type="line"/>
      <point x="493.0" y="426.0" type="line"/>
      <point x="395" y="710.0" type="line"/>
      <point x="295" y="710.0" type="line"/>
    </contour>
  </outline>
</glyph>
<glyph name="a" format="2">
  <advance width="614"/>
  <unicode hex="0061"/>
  <anchor x="228" y="-35" name="below"/>
  <anchor x="404" y="-10" name="belowogonek"/>
  <anchor x="377" y="507" name="aboveLC"/>
  <anchor x="367" y="472" name="aboveLCx"/>
  <outline>
    <contour>
      <point x="164" y="45.0" type="curve" smooth="yes"/>
      <point x="115" y="45.0"/>
      <point x="102" y="63"/>
      <point x="102.0" y="94.0" type="curve" smooth="yes"/>
      <point x="102.0" y="123"/>
      <point x="112" y="150"/>
      <point x="136" y="174" type="curve" smooth="yes"/>
      <point x="158" y="196"/>
      <point x="190" y="211"/>
      <point x="300" y="222.0" type="curve" smooth="yes"/>
      <point x="454" y="237.0" type="line"/>
      <point x="469" y="283.0" type="line"/>
      <point x="290" y="266.0" type="line" smooth="yes"/>
      <point x="163" y="254"/>
      <point x="122" y="238"/>
      <point x="90" y="206.0" type="curve" smooth="yes"/>
      <point x="55" y="171"/>
      <point x="39.0" y="125"/>
      <point x="39.0" y="84.0" type="curve" smooth="yes"/>
      <point x="39" y="36"/>
      <point x="62" y="-5.0"/>
      <point x="141" y="-5.0" type="curve" smooth="yes"/>
      <point x="213" y="-5"/>
      <point x="275" y="17"/>
      <point x="364" y="70.0" type="curve"/>
      <point x="370" y="70.0" type="line"/>
      <point x="401" y="139.0" type="line"/>
      <point x="303" y="73"/>
      <point x="228" y="45"/>
    </contour>
    <contour>
      <point x="437" y="102" type="curve" smooth="yes"/>
      <point x="514" y="319" type="line" smooth="yes"/>
      <point x="521" y="338"/>
      <point x="523" y="354"/>
      <point x="523" y="369" type="curve" smooth="yes"/>
      <point x="523" y="432"/>
      <point x="474" y="465"/>
      <point x="363" y="465" type="curve" smooth="yes"/>
      <point x="293" y="465"/>
      <point x="240" y="459"/>
      <point x="176" y="448" type="curve"/>
      <point x="161" y="395" type="line"/>
      <point x="241" y="408"/>
      <point x="310" y="415"/>
      <point x="347" y="415" type="curve" smooth="yes"/>
      <point x="431" y="415"/>
      <point x="462" y="395"/>
      <point x="462" y="356" type="curve" smooth="yes"/>
      <point x="462" y="346"/>
      <point x="460" y="335"/>
      <point x="456" y="322" type="curve" smooth="yes"/>
      <point x="375" y="89" type="line"/>
      <point x="370" y="70" type="line"/>
      <point x="376" y="30"/>
      <point x="397" y="7"/>
      <point x="450" y="2" type="curve" smooth="yes"/>
      <point x="499" y="-3" type="line"/>
      <point x="513" y="44" type="line"/>
      <point x="469" y="50" type="line" smooth="yes"/>
      <point x="443" y="54"/>
      <point x="431" y="58"/>
      <point x="431" y="74" type="curve" smooth="yes"/>
      <point x="431" y="81"/>
      <point x="433" y="90"/>
    </contour>
  </outline>
</glyph>
<glyph name="b" format="2">
  <advance width="614"/>
  <unicode hex="0062"/>
  <anchor x="231" y="-35" name="below"/>
  <outline>
    <contour>
      <point x="298" y="710.0" type="line"/>
      <point x="239" y="710.0" type="line"/>
      <point x="44" y="34.0" type="line"/>
      <point x="72" y="34.0" type="line"/>
      <point x="107" y="46.0" type="line"/>
    </contour>
    <contour>
      <point x="84" y="78" type="curve"/>
      <point x="44" y="34" type="line"/>
      <point x="92" y="9"/>
      <point x="168" y="-8"/>
      <point x="226" y="-8" type="curve" smooth="yes"/>
      <point x="433" y="-8"/>
      <point x="558" y="133"/>
      <point x="558" y="300" type="curve" smooth="yes"/>
      <point x="558" y="402"/>
      <point x="493" y="468"/>
      <point x="397" y="468" type="curve" smooth="yes"/>
      <point x="322" y="468"/>
      <point x="257" y="431"/>
      <point x="160" y="325" type="curve"/>
      <point x="136" y="255" type="line"/>
      <point x="281" y="396"/>
      <point x="327" y="418"/>
      <point x="391" y="418" type="curve" smooth="yes"/>
      <point x="451" y="418"/>
      <point x="496" y="372"/>
      <point x="496" y="297" type="curve" smooth="yes"/>
      <point x="496" y="182"/>
      <point x="413" y="42"/>
      <point x="227" y="42" type="curve" smooth="yes"/>
      <point x="165" y="42"/>
      <point x="119" y="55"/>
    </contour>
  </outline>
</glyph>
<glyph name="c" format="2">
  <advance width="614"/>
  <unicode hex="0063"/>
  <anchor x="238" y="-15" name="belowcedilla"/>
  <anchor x="399" y="472" name="aboveLCx"/>
  <anchor x="246" y="-40" name="below"/>
  <anchor x="409" y="507" name="aboveLC"/>
  <outline>
    <contour>
      <point x="375" y="425" type="curve" smooth="yes"/>
      <point x="424" y="425"/>
      <point x="465" y="407"/>
      <point x="541" y="357" type="curve"/>
      <point x="574" y="406" type="line"/>
      <point x="496" y="456"/>
      <point x="443" y="475"/>
      <point x="367" y="475" type="curve" smooth="yes"/>
      <point x="290" y="475"/>
      <point x="212" y="440"/>
      <point x="156" y="384" type="curve" smooth="yes"/>
      <point x="89.0" y="317.0"/>
      <point x="64.0" y="237.0"/>
      <point x="64" y="161" type="curve" smooth="yes"/>
      <point x="64" y="48"/>
      <point x="137" y="-15"/>
      <point x="245" y="-15" type="curve" smooth="yes"/>
      <point x="311" y="-15"/>
      <point x="379" y="-6"/>
      <point x="494" y="51" type="curve"/>
      <point x="471" y="98" type="line"/>
      <point x="367" y="49"/>
      <point x="309" y="35"/>
      <point x="259" y="35" type="curve" smooth="yes"/>
      <point x="177" y="35"/>
      <point x="128" y="88"/>
      <point x="128" y="167" type="curve" smooth="yes"/>
      <point x="128.0" y="229.0"/>
      <point x="158.0" y="304.0"/>
      <point x="207" y="353" type="curve" smooth="yes"/>
      <point x="251" y="397"/>
      <point x="312" y="425"/>
    </contour>
  </outline>
</glyph>
<glyph name="d" format="2">
  <advance width="614"/>
  <unicode hex="0064"/>
  <anchor x="225" y="-35" name="below"/>
  <anchor x="779" y="787" name="topright"/>
  <outline>
    <contour>
      <point x="399.0" y="0.0" type="line"/>
      <point x="448.0" y="0.0" type="line"/>
      <point x="651.5892238887536" y="710.0" type="line"/>
      <point x="592.5892238887536" y="710.0" type="line"/>
      <point x="418.821520118916" y="104.0" type="line"/>
      <point x="418.821520118916" y="104.0" type="line"/>
    </contour>
    <contour>
      <point x="528" y="386" type="curve"/>
      <point x="541" y="436" type="line"/>
      <point x="492" y="459"/>
      <point x="442" y="468"/>
      <point x="396" y="468" type="curve" smooth="yes"/>
      <point x="184" y="468"/>
      <point x="56" y="327"/>
      <point x="56" y="160" type="curve" smooth="yes"/>
      <point x="56" y="58"/>
      <point x="119" y="-8"/>
      <point x="212" y="-8" type="curve" smooth="yes"/>
      <point x="290" y="-8"/>
      <point x="358" y="28"/>
      <point x="456" y="135" type="curve"/>
      <point x="480" y="205" type="line"/>
      <point x="333" y="62"/>
      <point x="283" y="42"/>
      <point x="218" y="42" type="curve" smooth="yes"/>
      <point x="161" y="42"/>
      <point x="118" y="88"/>
      <point x="118" y="163" type="curve" smooth="yes"/>
      <point x="118" y="278"/>
      <point x="205" y="418"/>
      <point x="399" y="418" type="curve" smooth="yes"/>
      <point x="444" y="418"/>
      <point x="486" y="409"/>
    </contour>
  </outline>
</glyph>
<glyph name="e" format="2">
  <advance width="614"/>
  <unicode hex="0065"/>
  <anchor x="244" y="-35" name="below"/>
  <anchor x="315" y="-10" name="belowogonek"/>
  <anchor x="387" y="472" name="aboveLCx"/>
  <anchor x="397" y="507" name="aboveLC"/>
  <outline>
    <contour>
      <point x="408" y="425" type="curve" smooth="yes"/>
      <point x="471" y="425.0"/>
      <point x="505.0" y="394.0"/>
      <point x="505" y="358" type="curve" smooth="yes"/>
      <point x="505.0" y="312.0"/>
      <point x="468" y="264"/>
      <point x="304" y="248" type="curve" smooth="yes"/>
      <point x="111" y="229" type="line"/>
      <point x="97" y="185" type="line"/>
      <point x="307" y="204" type="line" smooth="yes"/>
      <point x="524" y="224"/>
      <point x="567" y="282"/>
      <point x="567.0" y="358" type="curve" smooth="yes"/>
      <point x="567.0" y="426.0"/>
      <point x="510.0" y="475.0"/>
      <point x="408" y="475" type="curve" smooth="yes"/>
      <point x="221" y="475"/>
      <point x="74" y="320"/>
      <point x="74.0" y="158" type="curve" smooth="yes"/>
      <point x="74.0" y="39.0"/>
      <point x="141.0" y="-5"/>
      <point x="393" y="-5" type="curve"/>
      <point x="409" y="44" type="line"/>
      <point x="202" y="44"/>
      <point x="136" y="71"/>
      <point x="136" y="159" type="curve" smooth="yes"/>
      <point x="136" y="300.0"/>
      <point x="264.0" y="425"/>
    </contour>
  </outline>
</glyph>
<glyph name="f" format="2">
  <advance width="614"/>
  <unicode hex="0066"/>
  <guideline x="654.7362054317889" y="714" angle="106.0" identifier="KdhEjVeBcn"/>
  <outline>
    <contour>
      <point x="128" y="410.0" type="line"/>
      <point x="555" y="410.0" type="line"/>
      <point x="569" y="460.0" type="line"/>
      <point x="142" y="460.0" type="line"/>
    </contour>
    <contour>
      <point x="325" y="537.0" type="curve" smooth="yes"/>
      <point x="296" y="435.0" type="line"/>
      <point x="296" y="435.0" type="line"/>
      <point x="171.0" y="0.0" type="line"/>
      <point x="230.0" y="0.0" type="line"/>
      <point x="355" y="435.0" type="line"/>
      <point x="355" y="435.0" type="line"/>
      <point x="383" y="534.0" type="line" smooth="yes"/>
      <point x="407" y="617.0"/>
      <point x="445" y="653.0"/>
      <point x="543" y="659.0" type="curve" smooth="yes"/>
      <point x="667" y="667.0" type="line"/>
      <point x="667" y="719.0" type="line"/>
      <point x="551" y="711.0" type="line" smooth="yes"/>
      <point x="410" y="701"/>
      <point x="359" y="658"/>
    </contour>
  </outline>
</glyph>
<glyph name="g" format="2">
  <advance width="614"/>
  <unicode hex="0067"/>
  <anchor x="384" y="502" name="aboveLC"/>
  <anchor x="374" y="467" name="aboveLCx"/>
  <outline>
    <contour>
      <point x="397" y="29" type="line" smooth="yes"/>
      <point x="349" y="-136"/>
      <point x="294" y="-173"/>
      <point x="126" y="-182" type="curve" smooth="yes"/>
      <point x="17" y="-188.0" type="line"/>
      <point x="17" y="-239.0" type="line"/>
      <point x="132" y="-232" type="line" smooth="yes"/>
      <point x="341" y="-219"/>
      <point x="399" y="-175"/>
      <point x="458" y="32" type="curve" smooth="yes"/>
      <point x="570" y="426.0" type="line"/>
      <point x="542" y="426.0" type="line"/>
      <point x="510" y="421.0" type="line"/>
    </contour>
    <contour>
      <point x="528" y="386" type="curve"/>
      <point x="570" y="426" type="line"/>
      <point x="510" y="454"/>
      <point x="451" y="468"/>
      <point x="395" y="468" type="curve" smooth="yes"/>
      <point x="183" y="468"/>
      <point x="54" y="337"/>
      <point x="54" y="184" type="curve" smooth="yes"/>
      <point x="54" y="82"/>
      <point x="119" y="16"/>
      <point x="214" y="16" type="curve" smooth="yes"/>
      <point x="292" y="16"/>
      <point x="360" y="52"/>
      <point x="458" y="159" type="curve"/>
      <point x="482" y="229" type="line"/>
      <point x="335" y="86"/>
      <point x="285" y="66"/>
      <point x="220" y="66" type="curve" smooth="yes"/>
      <point x="161" y="66"/>
      <point x="116" y="112"/>
      <point x="116" y="187" type="curve" smooth="yes"/>
      <point x="116" y="292"/>
      <point x="204" y="418"/>
      <point x="399" y="418" type="curve" smooth="yes"/>
      <point x="444" y="418"/>
      <point x="486" y="409"/>
    </contour>
  </outline>
</glyph>
<glyph name="h" format="2">
  <advance width="614"/>
  <unicode hex="0068"/>
  <anchor x="236" y="-35" name="below"/>
  <anchor x="246" y="0" name="belowx"/>
  <anchor x="66" y="-10" name="belowcedilla"/>
  <anchor x="280" y="740" name="aboveLC"/>
  <anchor x="262" y="679" name="aboveLCx"/>
  <outline>
    <contour>
      <point x="300" y="710" type="line"/>
      <point x="241" y="710" type="line"/>
      <point x="37" y="0" type="line"/>
      <point x="96" y="0" type="line"/>
    </contour>
    <contour>
      <point x="127" y="188" type="line"/>
      <point x="324" y="389"/>
      <point x="365" y="413"/>
      <point x="422" y="413" type="curve" smooth="yes"/>
      <point x="460" y="413"/>
      <point x="485" y="395"/>
      <point x="485" y="360" type="curve" smooth="yes"/>
      <point x="485" y="347"/>
      <point x="483" y="331"/>
      <point x="472" y="292" type="curve" smooth="yes"/>
      <point x="388" y="0" type="line"/>
      <point x="447" y="0" type="line"/>
      <point x="529" y="284" type="line" smooth="yes"/>
      <point x="542" y="331"/>
      <point x="546" y="354"/>
      <point x="546" y="369" type="curve" smooth="yes"/>
      <point x="546" y="428"/>
      <point x="500" y="465"/>
      <point x="437" y="465" type="curve" smooth="yes"/>
      <point x="362" y="465"/>
      <point x="313" y="440"/>
      <point x="156" y="276" type="curve"/>
    </contour>
  </outline>
</glyph>
<glyph name="i" format="2">
  <advance width="614"/>
  <unicode hex="0069"/>
  <anchor x="245" y="-35" name="below"/>
  <anchor x="253" y="-10" name="belowogonek"/>
  <outline>
    <contour>
      <point x="371" y="460" type="line"/>
      <point x="215" y="0" type="line"/>
      <point x="274" y="0" type="line"/>
      <point x="430" y="460" type="line"/>
    </contour>
    <contour>
      <point x="209" y="460" type="line"/>
      <point x="195" y="410" type="line"/>
      <point x="390" y="410" type="line"/>
      <point x="404" y="460" type="line"/>
    </contour>
    <contour>
      <point x="71" y="50" type="line"/>
      <point x="57" y="0" type="line"/>
      <point x="456" y="0" type="line"/>
      <point x="470" y="50" type="line"/>
    </contour>
    <contour>
      <point x="408" y="614" type="curve" smooth="yes"/>
      <point x="449" y="614.0"/>
      <point x="478.0" y="642"/>
      <point x="478" y="675" type="curve" smooth="yes"/>
      <point x="478.0" y="704"/>
      <point x="459" y="721.0"/>
      <point x="421" y="721" type="curve" smooth="yes"/>
      <point x="376" y="721.0"/>
      <point x="351.0" y="690"/>
      <point x="351" y="661" type="curve" smooth="yes"/>
      <point x="351.0" y="630"/>
      <point x="375" y="614.0"/>
    </contour>
  </outline>
</glyph>
<glyph name="j" format="2">
  <advance width="614"/>
  <unicode hex="006A"/>
  <outline>
    <contour>
      <point x="334" y="8" type="curve" smooth="yes"/>
      <point x="464" y="460.0" type="line"/>
      <point x="405" y="460.0" type="line"/>
      <point x="277" y="13" type="line" smooth="yes"/>
      <point x="236" y="-130"/>
      <point x="199" y="-174"/>
      <point x="33" y="-184" type="curve" smooth="yes"/>
      <point x="-32" y="-188.0" type="line"/>
      <point x="-32" y="-239.0" type="line"/>
      <point x="36" y="-234" type="line" smooth="yes"/>
      <point x="245" y="-219"/>
      <point x="281" y="-176"/>
    </contour>
    <contour>
      <point x="194" y="460.0" type="line"/>
      <point x="180" y="410.0" type="line"/>
      <point x="412" y="410.0" type="line"/>
      <point x="426" y="460.0" type="line"/>
    </contour>
    <contour>
      <point x="461" y="614" type="curve" smooth="yes"/>
      <point x="502" y="614.0"/>
      <point x="531.0" y="642"/>
      <point x="531" y="675" type="curve" smooth="yes"/>
      <point x="531.0" y="704"/>
      <point x="512" y="721.0"/>
      <point x="474" y="721" type="curve" smooth="yes"/>
      <point x="429" y="721.0"/>
      <point x="404.0" y="690"/>
      <point x="404" y="661" type="curve" smooth="yes"/>
      <point x="404.0" y="630"/>
      <point x="428" y="614.0"/>
    </contour>
  </outline>
</glyph>
<glyph name="k" format="2">
  <advance width="614"/>
  <unicode hex="006B"/>
  <anchor x="225" y="-35" name="below"/>
  <anchor x="235" y="0" name="belowx"/>
  <outline>
    <contour>
      <point x="320.5892238887536" y="710.0" type="line"/>
      <point x="261.5892238887536" y="710.0" type="line"/>
      <point x="58.0" y="0.0" type="line"/>
      <point x="117.0" y="0.0" type="line"/>
    </contour>
    <contour>
      <point x="180.39960105394317" y="249.0" type="line"/>
      <point x="226" y="219.0" type="line"/>
      <point x="599" y="458.0" type="line"/>
      <point x="599" y="460.0" type="line"/>
      <point x="509" y="460.0" type="line"/>
    </contour>
    <contour>
      <point x="176.95865642483747" y="237.0" type="line"/>
      <point x="396.0" y="0.0" type="line"/>
      <point x="470.0" y="0.0" type="line"/>
      <point x="470" y="2.0" type="line"/>
      <point x="222" y="271.0" type="line"/>
    </contour>
  </outline>
</glyph>
<glyph name="l" format="2">
  <advance width="614"/>
  <unicode hex="006C"/>
  <anchor x="221" y="-35" name="below"/>
  <anchor x="422" y="752" name="aboveLC"/>
  <anchor x="412" y="716" name="aboveLCx"/>
  <anchor x="633" y="787" name="topright"/>
  <outline>
    <contour>
      <point x="202" y="710.0" type="line"/>
      <point x="187" y="660.0" type="line"/>
      <point x="422" y="660.0" type="line"/>
      <point x="437" y="710.0" type="line"/>
    </contour>
    <contour>
      <point x="234" y="244" type="line" smooth="yes"/>
      <point x="213" y="186"/>
      <point x="206" y="151"/>
      <point x="206" y="119" type="curve" smooth="yes"/>
      <point x="206" y="38.0"/>
      <point x="251" y="-1"/>
      <point x="345" y="-4" type="curve" smooth="yes"/>
      <point x="453" y="-7" type="line"/>
      <point x="468" y="44" type="line"/>
      <point x="352" y="48" type="line" smooth="yes"/>
      <point x="293" y="50"/>
      <point x="267" y="70"/>
      <point x="267" y="127" type="curve" smooth="yes"/>
      <point x="267" y="157"/>
      <point x="272" y="184"/>
      <point x="291" y="236" type="curve" smooth="yes"/>
      <point x="463" y="710" type="line"/>
      <point x="404" y="710" type="line"/>
    </contour>
  </outline>
</glyph>
<glyph name="m" format="2">
  <advance width="614"/>
  <unicode hex="006D"/>
  <guideline x="669.6791287393903" y="243" angle="0.0" identifier="HmSkU0lQMG"/>
  <anchor x="387" y="502" name="aboveLC"/>
  <anchor x="234" y="-35" name="below"/>
  <outline>
    <contour>
      <point x="172.90287744905166" y="460.0" type="line"/>
      <point x="123.90287744905166" y="460.0" type="line"/>
      <point x="-8.0" y="0.0" type="line"/>
      <point x="50.0" y="0.0" type="line"/>
      <point x="130" y="279.0" type="line"/>
      <point x="141" y="289.0" type="line"/>
      <point x="133" y="289.0" type="line"/>
    </contour>
    <contour>
      <point x="97" y="218" type="line"/>
      <point x="236" y="395"/>
      <point x="268" y="415"/>
      <point x="295" y="415" type="curve" smooth="yes"/>
      <point x="311" y="415"/>
      <point x="321" y="408"/>
      <point x="321" y="391" type="curve" smooth="yes"/>
      <point x="321" y="382"/>
      <point x="318" y="371"/>
      <point x="313" y="354" type="curve" smooth="yes"/>
      <point x="212" y="0" type="line"/>
      <point x="270" y="0" type="line"/>
      <point x="346" y="264" type="line"/>
      <point x="363" y="289" type="line"/>
      <point x="353" y="289" type="line"/>
      <point x="377" y="372" type="line" smooth="yes"/>
      <point x="380" y="383"/>
      <point x="382" y="393"/>
      <point x="382" y="403" type="curve" smooth="yes"/>
      <point x="382" y="440"/>
      <point x="357" y="465"/>
      <point x="315" y="465" type="curve" smooth="yes"/>
      <point x="269" y="465"/>
      <point x="213" y="432"/>
      <point x="116" y="289" type="curve"/>
    </contour>
    <contour>
      <point x="317" y="218" type="line"/>
      <point x="456" y="395"/>
      <point x="488" y="415"/>
      <point x="515" y="415" type="curve" smooth="yes"/>
      <point x="531" y="415"/>
      <point x="541" y="408"/>
      <point x="541" y="391" type="curve" smooth="yes"/>
      <point x="541" y="382"/>
      <point x="538" y="371"/>
      <point x="533" y="354" type="curve" smooth="yes"/>
      <point x="432" y="0" type="line"/>
      <point x="490" y="0" type="line"/>
      <point x="597" y="372" type="line" smooth="yes"/>
      <point x="600" y="383"/>
      <point x="602" y="393"/>
      <point x="602" y="403" type="curve" smooth="yes"/>
      <point x="602.0" y="440.0"/>
      <point x="577.0" y="465.0"/>
      <point x="535" y="465" type="curve" smooth="yes"/>
      <point x="488" y="465"/>
      <point x="433" y="432"/>
      <point x="336" y="289" type="curve"/>
    </contour>
  </outline>
</glyph>
<glyph name="n" format="2">
  <advance width="614"/>
  <unicode hex="006E"/>
  <guideline x="526.6850166195126" y="1080" angle="0.0" identifier="mq0bpEJOES"/>
  <anchor x="383" y="502" name="aboveLC"/>
  <anchor x="239" y="-35" name="below"/>
  <anchor x="249" y="0" name="belowx"/>
  <outline>
    <contour>
      <point x="228" y="460" type="line"/>
      <point x="169" y="460" type="line"/>
      <point x="37" y="0" type="line"/>
      <point x="96" y="0" type="line"/>
      <point x="170" y="259" type="line"/>
      <point x="170" y="259" type="line"/>
    </contour>
    <contour>
      <point x="127" y="188" type="line"/>
      <point x="324" y="389"/>
      <point x="365" y="413.0"/>
      <point x="422" y="413.0" type="curve" smooth="yes"/>
      <point x="460" y="413.0"/>
      <point x="485.0" y="395.0"/>
      <point x="485" y="360" type="curve" smooth="yes"/>
      <point x="485.0" y="347"/>
      <point x="483" y="331"/>
      <point x="472" y="292" type="curve" smooth="yes"/>
      <point x="388" y="0" type="line"/>
      <point x="447" y="0" type="line"/>
      <point x="529" y="284" type="line" smooth="yes"/>
      <point x="542" y="331"/>
      <point x="546.0" y="354"/>
      <point x="546" y="369" type="curve" smooth="yes"/>
      <point x="546.0" y="428.0"/>
      <point x="500" y="465.0"/>
      <point x="437" y="465.0" type="curve" smooth="yes"/>
      <point x="362" y="465.0"/>
      <point x="313" y="440"/>
      <point x="156" y="276" type="curve"/>
    </contour>
  </outline>
</glyph>
<glyph name="o" format="2">
  <advance width="614"/>
  <unicode hex="006F"/>
  <anchor x="376" y="507" name="aboveLC"/>
  <anchor x="366" y="472" name="aboveLCx"/>
  <anchor x="244" y="-40" name="below"/>
  <anchor x="245" y="-15" name="belowogonek"/>
  <outline>
    <contour>
      <point x="356" y="475.0" type="curve" smooth="yes"/>
      <point x="177.0" y="475.0"/>
      <point x="58" y="329"/>
      <point x="58" y="187" type="curve" smooth="yes"/>
      <point x="58" y="75"/>
      <point x="132" y="-15"/>
      <point x="258" y="-15.0" type="curve" smooth="yes"/>
      <point x="437.0" y="-15.0"/>
      <point x="556.0" y="131.0"/>
      <point x="556.0" y="273.0" type="curve" smooth="yes"/>
      <point x="556.0" y="385.0"/>
      <point x="482.0" y="475.0"/>
    </contour>
    <contour>
      <point x="263" y="34.0" type="curve" smooth="yes"/>
      <point x="180.0" y="34"/>
      <point x="118" y="97"/>
      <point x="118.0" y="185" type="curve" smooth="yes"/>
      <point x="118.0" y="312"/>
      <point x="226" y="426.0"/>
      <point x="351" y="426.0" type="curve" smooth="yes"/>
      <point x="434.0" y="426.0"/>
      <point x="496.0" y="363.0"/>
      <point x="496.0" y="275.0" type="curve" smooth="yes"/>
      <point x="496.0" y="148.0"/>
      <point x="388.0" y="34.0"/>
    </contour>
  </outline>
</glyph>
<glyph name="q" format="2">
  <advance width="614"/>
  <unicode hex="0071"/>
  <outline>
    <contour>
      <point x="323" y="-230" type="line"/>
      <point x="382" y="-230" type="line"/>
      <point x="570" y="426" type="line"/>
      <point x="542" y="426" type="line"/>
      <point x="507" y="412" type="line"/>
    </contour>
    <contour>
      <point x="528" y="386" type="curve"/>
      <point x="570" y="426" type="line"/>
      <point x="510" y="454"/>
      <point x="451" y="468"/>
      <point x="396" y="468" type="curve" smooth="yes"/>
      <point x="184" y="468"/>
      <point x="56" y="327"/>
      <point x="56" y="160" type="curve" smooth="yes"/>
      <point x="56" y="58"/>
      <point x="119" y="-8"/>
      <point x="212" y="-8" type="curve" smooth="yes"/>
      <point x="290" y="-8"/>
      <point x="358" y="28"/>
      <point x="456" y="135" type="curve"/>
      <point x="480" y="205" type="line"/>
      <point x="333" y="62"/>
      <point x="283" y="42"/>
      <point x="218" y="42" type="curve" smooth="yes"/>
      <point x="161" y="42"/>
      <point x="118" y="88"/>
      <point x="118" y="163" type="curve" smooth="yes"/>
      <point x="118" y="278"/>
      <point x="205" y="418"/>
      <point x="399" y="418" type="curve" smooth="yes"/>
      <point x="444" y="418"/>
      <point x="486" y="409"/>
    </contour>
  </outline>
</glyph>
<glyph name="r" format="2">
  <advance width="614"/>
  <unicode hex="0072"/>
  <guideline x="42.0" y="0.0" angle="106.0" identifier="CLmzBqbu6e"/>
  <anchor x="371" y="502" name="aboveLC"/>
  <anchor x="160" y="-35" name="below"/>
  <outline>
    <contour>
      <point x="303" y="460.0" type="line"/>
      <point x="249" y="460.0" type="line"/>
      <point x="117" y="0.0" type="line"/>
      <point x="176" y="0.0" type="line"/>
      <point x="247" y="247.0" type="line"/>
      <point x="247" y="247.0" type="line"/>
    </contour>
    <contour>
      <point x="219" y="200.0" type="line"/>
      <point x="409" y="382"/>
      <point x="422" y="388"/>
      <point x="513" y="396.0" type="curve" smooth="yes"/>
      <point x="593" y="403.0" type="line"/>
      <point x="593" y="463.0" type="line"/>
      <point x="524" y="459.0" type="line" smooth="yes"/>
      <point x="425" y="453"/>
      <point x="399" y="436"/>
      <point x="237" y="265.0" type="curve"/>
    </contour>
    <contour>
      <point x="139" y="460.0" type="line"/>
      <point x="125" y="410.0" type="line"/>
      <point x="288" y="410.0" type="line"/>
      <point x="302" y="460.0" type="line"/>
    </contour>
    <contour>
      <point x="2" y="50.0" type="line"/>
      <point x="-13" y="0.0" type="line"/>
      <point x="336" y="0.0" type="line"/>
      <point x="351" y="50.0" type="line"/>
    </contour>
  </outline>
</glyph>
<glyph name="s" format="2">
  <advance width="614"/>
  <unicode hex="0073"/>
  <anchor x="404" y="507" name="aboveLC"/>
  <anchor x="221" y="-40" name="below"/>
  <anchor x="233" y="-15" name="belowcedilla"/>
  <anchor x="394" y="472" name="aboveLCx"/>
  <outline>
    <contour>
      <point x="480.0" y="118" type="curve" smooth="yes"/>
      <point x="480" y="175"/>
      <point x="460" y="197"/>
      <point x="355" y="248" type="curve" smooth="yes"/>
      <point x="289" y="280" type="line" smooth="yes"/>
      <point x="223" y="312"/>
      <point x="211" y="326"/>
      <point x="211" y="358" type="curve" smooth="yes"/>
      <point x="211" y="391"/>
      <point x="239" y="417"/>
      <point x="340" y="417" type="curve" smooth="yes"/>
      <point x="394" y="417"/>
      <point x="462" y="408"/>
      <point x="539" y="383" type="curve"/>
      <point x="554" y="435" type="line"/>
      <point x="480" y="456"/>
      <point x="397" y="468"/>
      <point x="340" y="468" type="curve" smooth="yes"/>
      <point x="205" y="468"/>
      <point x="151" y="421"/>
      <point x="151.0" y="352" type="curve" smooth="yes"/>
      <point x="151" y="306"/>
      <point x="169" y="274"/>
      <point x="277" y="223" type="curve" smooth="yes"/>
      <point x="343" y="192" type="line" smooth="yes"/>
      <point x="407" y="162"/>
      <point x="420" y="144"/>
      <point x="420" y="112" type="curve" smooth="yes"/>
      <point x="420" y="73"/>
      <point x="386" y="42"/>
      <point x="286" y="42" type="curve" smooth="yes"/>
      <point x="219" y="42"/>
      <point x="147" y="52"/>
      <point x="63" y="79" type="curve"/>
      <point x="46" y="26" type="line"/>
      <point x="145" y="0"/>
      <point x="209" y="-9"/>
      <point x="283" y="-9" type="curve" smooth="yes"/>
      <point x="424" y="-9"/>
      <point x="480" y="43"/>
    </contour>
  </outline>
</glyph>
<glyph name="u" format="2">
  <advance width="614"/>
  <unicode hex="0075"/>
  <anchor x="384" y="502" name="aboveLC"/>
  <anchor x="221" y="-35" name="below"/>
  <anchor x="415" y="-10" name="belowogonek"/>
  <anchor x="373" y="461" name="aboveLCx"/>
  <outline>
    <contour>
      <point x="386.0" y="0.0" type="line"/>
      <point x="445.0" y="0.0" type="line"/>
      <point x="577.0" y="460.0" type="line"/>
      <point x="518.0" y="460.0" type="line"/>
      <point x="444.0" y="201.0" type="line"/>
      <point x="444.0" y="201.0" type="line"/>
    </contour>
    <contour>
      <point x="487.0" y="272.0" type="line"/>
      <point x="290.0" y="71.0"/>
      <point x="249.0" y="47.0"/>
      <point x="192.0" y="47.0" type="curve" smooth="yes"/>
      <point x="154.0" y="47.0"/>
      <point x="129.0" y="65.0"/>
      <point x="129.0" y="100.0" type="curve" smooth="yes"/>
      <point x="129.0" y="113.0"/>
      <point x="131.0" y="129.0"/>
      <point x="142.0" y="168.0" type="curve" smooth="yes"/>
      <point x="226.0" y="460.0" type="line"/>
      <point x="167.0" y="460.0" type="line"/>
      <point x="85.0" y="176.0" type="line" smooth="yes"/>
      <point x="72.0" y="129.0"/>
      <point x="68.0" y="106.0"/>
      <point x="68.0" y="91.0" type="curve" smooth="yes"/>
      <point x="68.0" y="32.0"/>
      <point x="114.0" y="-5.0"/>
      <point x="177.0" y="-5.0" type="curve" smooth="yes"/>
      <point x="252.0" y="-5.0"/>
      <point x="301.0" y="20.0"/>
      <point x="458.0" y="184.0" type="curve"/>
    </contour>
  </outline>
</glyph>
<glyph name="v" format="2">
  <advance width="614"/>
  <unicode hex="0076"/>
  <anchor x="231" y="-35" name="below"/>
  <outline>
    <contour>
      <point x="546" y="460.0" type="line"/>
      <point x="229" y="25.0" type="line"/>
      <point x="231.0" y="0.0" type="line"/>
      <point x="274.0" y="0.0" type="line"/>
      <point x="614.9028774490516" y="460.0" type="line"/>
    </contour>
    <contour>
      <point x="130.90287744905166" y="460.0" type="line"/>
      <point x="209.0" y="0.0" type="line"/>
      <point x="256.0" y="0.0" type="line"/>
      <point x="259" y="25.0" type="line"/>
      <point x="193" y="460.0" type="line"/>
    </contour>
  </outline>
</glyph>
<glyph name="w" format="2">
  <advance width="614"/>
  <unicode hex="0077"/>
  <anchor x="384" y="502" name="aboveLC"/>
  <anchor x="373" y="462" name="aboveLCx"/>
  <outline>
    <contour>
      <point x="394.0" y="0.0" type="line"/>
      <point x="629.9028774490516" y="460.0" type="line"/>
      <point x="571" y="460.0" type="line"/>
      <point x="359" y="30.0" type="line"/>
      <point x="343.0" y="0.0" type="line"/>
    </contour>
    <contour>
      <point x="126.0" y="0.0" type="line"/>
      <point x="133" y="28.0" type="line"/>
      <point x="168" y="460.0" type="line"/>
      <point x="115.90287744905166" y="460.0" type="line"/>
      <point x="86.0" y="0.0" type="line"/>
    </contour>
    <contour>
      <point x="375.0" y="0.0" type="line"/>
      <point x="374" y="30.0" type="line"/>
      <point x="359" y="390.0" type="line"/>
      <point x="341" y="390.0" type="line"/>
      <point x="119" y="28.0" type="line"/>
      <point x="110.0" y="0.0" type="line"/>
      <point x="151.0" y="0.0" type="line"/>
      <point x="342.030833427954" y="307.0" type="line"/>
      <point x="316.030833427954" y="307.0" type="line"/>
      <point x="329.0" y="0.0" type="line"/>
    </contour>
  </outline>
</glyph>
<glyph name="x" format="2">
  <advance width="614"/>
  <unicode hex="0078"/>
  <anchor x="384" y="502" name="aboveLC"/>
  <anchor x="231" y="-35" name="below"/>
  <anchor x="241" y="0" name="belowx"/>
  <anchor x="374" y="467" name="aboveLCx"/>
  <outline>
    <contour>
      <point x="18" y="0.0" type="line"/>
      <point x="95" y="0.0" type="line"/>
      <point x="322" y="221.0" type="line"/>
      <point x="328" y="221.0" type="line"/>
      <point x="580" y="460.0" type="line"/>
      <point x="503" y="460.0" type="line"/>
      <point x="288" y="252.0" type="line"/>
      <point x="282" y="252.0" type="line"/>
    </contour>
    <contour>
      <point x="481" y="0.0" type="line"/>
      <point x="332" y="252.0" type="line"/>
      <point x="328" y="252.0" type="line"/>
      <point x="217" y="460.0" type="line"/>
      <point x="149" y="460.0" type="line"/>
      <point x="287" y="221.0" type="line"/>
      <point x="291" y="221.0" type="line"/>
      <point x="414" y="0.0" type="line"/>
    </contour>
  </outline>
</glyph>
<glyph name="y" format="2">
  <advance width="614"/>
  <unicode hex="0079"/>
  <anchor x="390" y="502" name="aboveLC"/>
  <anchor x="389" y="-35" name="below"/>
  <anchor x="380" y="467" name="aboveLCx"/>
  <outline>
    <contour>
      <point x="127" y="460.0" type="line"/>
      <point x="212" y="-38.0" type="line"/>
      <point x="237" y="-38.0" type="line"/>
      <point x="253" y="31.0" type="line"/>
      <point x="186" y="460.0" type="line"/>
    </contour>
    <contour>
      <point x="195" y="-130.0" type="curve" smooth="yes"/>
      <point x="611" y="460.0" type="line"/>
      <point x="538" y="460.0" type="line"/>
      <point x="240" y="26.0" type="line"/>
      <point x="240" y="26.0" type="line"/>
      <point x="147" y="-103.0" type="line" smooth="yes"/>
      <point x="96" y="-173.0"/>
      <point x="89" y="-177.0"/>
      <point x="18" y="-179.0" type="curve" smooth="yes"/>
      <point x="-77" y="-182.0" type="line"/>
      <point x="-76" y="-233.0" type="line"/>
      <point x="19" y="-230.0" type="line" smooth="yes"/>
      <point x="126" y="-227.0"/>
      <point x="133" y="-219.0"/>
    </contour>
  </outline>
</glyph>
<glyph name="z" format="2">
  <advance width="614"/>
  <unicode hex="007A"/>
  <anchor x="387" y="502" name="aboveLC"/>
  <anchor x="249" y="-35" name="below"/>
  <anchor x="256" y="-10" name="belowcedilla"/>
  <outline>
    <contour>
      <point x="33.0" y="0.0" type="line"/>
      <point x="473.0" y="0.0" type="line"/>
      <point x="488" y="51.0" type="line"/>
      <point x="90" y="51.0" type="line"/>
      <point x="33" y="29.0" type="line"/>
    </contour>
    <contour>
      <point x="141" y="18" type="line"/>
      <point x="141" y="81" type="line"/>
      <point x="115" y="31" type="line"/>
      <point x="581" y="431" type="line"/>
      <point x="477" y="429" type="line"/>
      <point x="477" y="380" type="line"/>
      <point x="503" y="429" type="line"/>
      <point x="33" y="29" type="line"/>
    </contour>
    <contour>
      <point x="141" y="410.0" type="line"/>
      <point x="526" y="410.0" type="line"/>
      <point x="581" y="431.0" type="line"/>
      <point x="581" y="460.0" type="line"/>
      <point x="155" y="460.0" type="line"/>
    </contour>
  </outline>
</glyph>
<glyph name="braceleft" format="2">
  <advance width="614"/>
  <unicode hex="007B"/>
  <guideline x="428.72177003116553" y="700" angle="0.0" identifier="fcsuI7zwOk"/>
  <outline>
    <contour>
      <point x="357" y="753"/>
      <point x="332" y="713"/>
      <point x="332" y="671" type="curve" smooth="yes"/>
      <point x="332.0" y="651"/>
      <point x="342" y="628"/>
      <point x="361" y="594" type="curve" smooth="yes"/>
      <point x="393" y="537" type="line" smooth="yes"/>
      <point x="409" y="509"/>
      <point x="413.0" y="495"/>
      <point x="413" y="485" type="curve" smooth="yes"/>
      <point x="413" y="451"/>
      <point x="395" y="430"/>
      <point x="117" y="361" type="curve"/>
      <point x="125" y="317" type="line"/>
      <point x="136" y="317" type="line"/>
      <point x="462" y="396"/>
      <point x="476.0" y="439"/>
      <point x="476.0" y="484" type="curve" smooth="yes"/>
      <point x="476" y="507"/>
      <point x="467" y="527"/>
      <point x="443" y="568" type="curve" smooth="yes"/>
      <point x="410" y="625" type="line" smooth="yes"/>
      <point x="395" y="651"/>
      <point x="391.0" y="665"/>
      <point x="391" y="675" type="curve" smooth="yes"/>
      <point x="391.0" y="692"/>
      <point x="401" y="710"/>
      <point x="447" y="716" type="curve" smooth="yes"/>
      <point x="678" y="747" type="line"/>
      <point x="692" y="797" type="line"/>
      <point x="454" y="766" type="line" smooth="yes"/>
    </contour>
    <contour>
      <point x="99" y="301.0" type="line"/>
      <point x="168" y="301.0" type="line"/>
      <point x="186" y="361.0" type="line"/>
      <point x="117" y="361.0" type="line"/>
    </contour>
    <contour>
      <point x="143" y="12"/>
      <point x="129" y="-11"/>
      <point x="129" y="-42" type="curve" smooth="yes"/>
      <point x="129" y="-72"/>
      <point x="150" y="-96"/>
      <point x="204" y="-104" type="curve" smooth="yes"/>
      <point x="425" y="-135" type="line"/>
      <point x="439" y="-87" type="line"/>
      <point x="225" y="-56" type="line" smooth="yes"/>
      <point x="198" y="-52"/>
      <point x="190" y="-43"/>
      <point x="190" y="-31" type="curve" smooth="yes"/>
      <point x="190.0" y="-17"/>
      <point x="195" y="-9"/>
      <point x="243" y="33" type="curve" smooth="yes"/>
      <point x="308" y="90" type="line" smooth="yes"/>
      <point x="384" y="157"/>
      <point x="395" y="178"/>
      <point x="395" y="202" type="curve" smooth="yes"/>
      <point x="395" y="248"/>
      <point x="368" y="264"/>
      <point x="141" y="335" type="curve"/>
      <point x="130" y="335" type="line"/>
      <point x="99" y="301" type="line"/>
      <point x="302" y="243"/>
      <point x="332" y="219"/>
      <point x="332" y="198" type="curve" smooth="yes"/>
      <point x="332" y="180"/>
      <point x="328" y="173"/>
      <point x="275" y="127" type="curve" smooth="yes"/>
      <point x="210" y="70" type="line" smooth="yes"/>
    </contour>
  </outline>
</glyph>
<glyph name="bar" format="2">
  <advance width="614"/>
  <unicode hex="007C"/>
  <outline>
    <contour>
      <point x="486.4927662479" y="755.0" type="line"/>
      <point x="428.4927662479" y="755.0" type="line"/>
      <point x="183.3254614241192" y="-100.0" type="line"/>
      <point x="241.32546142411923" y="-100.0" type="line"/>
    </contour>
  </outline>
</glyph>
<glyph name="braceright" format="2">
  <advance width="614"/>
  <unicode hex="007D"/>
  <outline>
    <contour>
      <point x="315" y="-91"/>
      <point x="340" y="-51"/>
      <point x="340" y="-9" type="curve" smooth="yes"/>
      <point x="340.0" y="11.0"/>
      <point x="330" y="34"/>
      <point x="311" y="68" type="curve" smooth="yes"/>
      <point x="279" y="125" type="line" smooth="yes"/>
      <point x="263" y="153"/>
      <point x="259.0" y="167.0"/>
      <point x="259" y="177" type="curve" smooth="yes"/>
      <point x="259" y="211"/>
      <point x="277" y="232"/>
      <point x="555" y="301" type="curve"/>
      <point x="547" y="345" type="line"/>
      <point x="536" y="345" type="line"/>
      <point x="210" y="266"/>
      <point x="196.0" y="223.0"/>
      <point x="196.0" y="178.0" type="curve" smooth="yes"/>
      <point x="196" y="155"/>
      <point x="205" y="135"/>
      <point x="229" y="94" type="curve" smooth="yes"/>
      <point x="262" y="37" type="line" smooth="yes"/>
      <point x="277" y="11"/>
      <point x="281.0" y="-3.0"/>
      <point x="281" y="-13" type="curve" smooth="yes"/>
      <point x="281.0" y="-30.0"/>
      <point x="271" y="-48"/>
      <point x="225" y="-54" type="curve" smooth="yes"/>
      <point x="-6" y="-85" type="line"/>
      <point x="-20" y="-135" type="line"/>
      <point x="218" y="-104" type="line" smooth="yes"/>
    </contour>
    <contour>
      <point x="573.0" y="361.0" type="line"/>
      <point x="502.0" y="361.0" type="line"/>
      <point x="484.0" y="301.0" type="line"/>
      <point x="555.0" y="301.0" type="line"/>
    </contour>
    <contour>
      <point x="529" y="650"/>
      <point x="543" y="673"/>
      <point x="543" y="704" type="curve" smooth="yes"/>
      <point x="543" y="734"/>
      <point x="522" y="758"/>
      <point x="468" y="766" type="curve" smooth="yes"/>
      <point x="247" y="797" type="line"/>
      <point x="233" y="749" type="line"/>
      <point x="447" y="718" type="line" smooth="yes"/>
      <point x="474" y="714"/>
      <point x="482" y="705"/>
      <point x="482" y="693" type="curve" smooth="yes"/>
      <point x="482.0" y="679.0"/>
      <point x="477" y="671"/>
      <point x="429" y="629" type="curve" smooth="yes"/>
      <point x="364" y="572" type="line" smooth="yes"/>
      <point x="288" y="505"/>
      <point x="277" y="484"/>
      <point x="277" y="460" type="curve" smooth="yes"/>
      <point x="277" y="414"/>
      <point x="304" y="398"/>
      <point x="531" y="327" type="curve"/>
      <point x="542" y="327" type="line"/>
      <point x="573" y="361" type="line"/>
      <point x="370" y="419"/>
      <point x="340" y="443"/>
      <point x="340" y="464" type="curve" smooth="yes"/>
      <point x="340" y="482"/>
      <point x="344" y="489"/>
      <point x="397" y="535" type="curve" smooth="yes"/>
      <point x="462" y="592" type="line" smooth="yes"/>
    </contour>
  </outline>
</glyph>
<glyph name="asciitilde" format="2">
  <advance width="614"/>
  <unicode hex="007E"/>
  <outline>
    <contour>
      <point x="340" y="365.0" type="curve" smooth="yes"/>
      <point x="267" y="424"/>
      <point x="246" y="432"/>
      <point x="222" y="432.0" type="curve" smooth="yes"/>
      <point x="180" y="432"/>
      <point x="156" y="419"/>
      <point x="55" y="253.0" type="curve"/>
      <point x="103" y="224.0" type="line"/>
      <point x="179" y="346"/>
      <point x="196" y="371"/>
      <point x="222" y="371.0" type="curve" smooth="yes"/>
      <point x="237" y="371.0"/>
      <point x="247" y="366"/>
      <point x="323" y="304.0" type="curve" smooth="yes"/>
      <point x="396" y="245"/>
      <point x="417.0" y="237.0"/>
      <point x="441.0" y="237.0" type="curve" smooth="yes"/>
      <point x="483" y="237"/>
      <point x="507" y="250"/>
      <point x="608.0" y="416.0" type="curve"/>
      <point x="560.0" y="445.0" type="line"/>
      <point x="484" y="323"/>
      <point x="467" y="298"/>
      <point x="441.0" y="298.0" type="curve" smooth="yes"/>
      <point x="426.0" y="298.0"/>
      <point x="416" y="303"/>
    </contour>
  </outline>
</glyph>
<glyph name="exclamdown" format="2">
  <advance width="614"/>
  <unicode hex="00A1"/>
  <outline>
    <contour>
      <point x="397" y="483" type="line"/>
      <point x="363" y="483" type="line"/>
      <point x="181" y="0" type="line"/>
      <point x="300" y="0" type="line"/>
    </contour>
    <contour>
      <point x="425" y="617" type="curve" smooth="yes"/>
      <point x="471.0" y="617.0"/>
      <point x="497.0" y="646.0"/>
      <point x="497" y="680" type="curve" smooth="yes"/>
      <point x="497" y="706"/>
      <point x="477" y="725"/>
      <point x="441" y="725" type="curve" smooth="yes"/>
      <point x="395.0" y="725.0"/>
      <point x="369.0" y="695.0"/>
      <point x="369" y="662" type="curve" smooth="yes"/>
      <point x="369" y="636"/>
      <point x="390" y="617"/>
    </contour>
  </outline>
</glyph>
<glyph name="cent" format="2">
  <advance width="614"/>
  <unicode hex="00A2"/>
  <outline>
    <contour>
      <point x="439" y="464" type="line"/>
      <point x="497" y="632" type="line"/>
      <point x="440" y="632" type="line"/>
      <point x="382" y="464" type="line"/>
    </contour>
    <contour>
      <point x="177" y="-142" type="line"/>
      <point x="234" y="-142" type="line"/>
      <point x="294" y="34" type="line"/>
      <point x="237" y="34" type="line"/>
    </contour>
    <contour>
      <point x="383" y="440" type="curve" smooth="yes"/>
      <point x="432" y="440"/>
      <point x="473" y="422"/>
      <point x="549" y="372" type="curve"/>
      <point x="582" y="421" type="line"/>
      <point x="504" y="471"/>
      <point x="451" y="490"/>
      <point x="375" y="490" type="curve" smooth="yes"/>
      <point x="298" y="490"/>
      <point x="220" y="455"/>
      <point x="164" y="399" type="curve" smooth="yes"/>
      <point x="97" y="332"/>
      <point x="72" y="252"/>
      <point x="72" y="176" type="curve" smooth="yes"/>
      <point x="72" y="63"/>
      <point x="145" y="0"/>
      <point x="253" y="0" type="curve" smooth="yes"/>
      <point x="319" y="0"/>
      <point x="387" y="9"/>
      <point x="502" y="66" type="curve"/>
      <point x="479" y="113" type="line"/>
      <point x="375" y="64"/>
      <point x="317" y="50"/>
      <point x="267" y="50" type="curve" smooth="yes"/>
      <point x="185" y="50"/>
      <point x="136" y="103"/>
      <point x="136" y="182" type="curve" smooth="yes"/>
      <point x="136" y="244"/>
      <point x="166" y="319"/>
      <point x="215" y="368" type="curve" smooth="yes"/>
      <point x="259" y="412"/>
      <point x="320" y="440"/>
    </contour>
  </outline>
</glyph>
<glyph name="sterling" format="2">
  <advance width="614"/>
  <unicode hex="00A3"/>
  <outline>
    <contour>
      <point x="10.0" y="0.0" type="line"/>
      <point x="485.0" y="0.0" type="line"/>
      <point x="500" y="51.0" type="line"/>
      <point x="66" y="51.0" type="line"/>
      <point x="10" y="37.0" type="line"/>
    </contour>
    <contour>
      <point x="93" y="248" type="line"/>
      <point x="272" y="248" type="line"/>
      <point x="274" y="248" type="line"/>
      <point x="517" y="248" type="line"/>
      <point x="530" y="296" type="line"/>
      <point x="276" y="296" type="line"/>
      <point x="275" y="296" type="line"/>
      <point x="106" y="296" type="line"/>
    </contour>
    <contour>
      <point x="301" y="199"/>
      <point x="312" y="234"/>
      <point x="312.0" y="292" type="curve" smooth="yes"/>
      <point x="312" y="362"/>
      <point x="247" y="409"/>
      <point x="247" y="483" type="curve" smooth="yes"/>
      <point x="247" y="554"/>
      <point x="309" y="619"/>
      <point x="418" y="619" type="curve" smooth="yes"/>
      <point x="502" y="619"/>
      <point x="546" y="580"/>
      <point x="576" y="508" type="curve"/>
      <point x="632" y="534" type="line"/>
      <point x="591" y="623"/>
      <point x="534" y="670"/>
      <point x="421" y="670" type="curve" smooth="yes"/>
      <point x="268" y="670"/>
      <point x="183" y="580"/>
      <point x="183" y="482" type="curve" smooth="yes"/>
      <point x="183" y="382"/>
      <point x="250" y="345"/>
      <point x="250.0" y="286" type="curve" smooth="yes"/>
      <point x="250.0" y="246.6324110671937"/>
      <point x="220.8092043177853" y="194.1125201991041"/>
      <point x="10" y="37" type="curve"/>
      <point x="25" y="32" type="line"/>
      <point x="82" y="32" type="line"/>
    </contour>
  </outline>
</glyph>
<glyph name="yen" format="2">
  <advance width="614"/>
  <unicode hex="00A5"/>
  <outline>
    <contour>
      <point x="173.8182276720192" y="655.0" type="line"/>
      <point x="318.6719110390787" y="236.0" type="line"/>
      <point x="337" y="324.0" type="line"/>
      <point x="237" y="655.0" type="line"/>
    </contour>
    <contour>
      <point x="98" y="274.0" type="line"/>
      <point x="301" y="274.0" type="line"/>
      <point x="314.33201421433614" y="322.0" type="line"/>
      <point x="111.33201421433614" y="322.0" type="line"/>
    </contour>
    <contour>
      <point x="60" y="140.0" type="line"/>
      <point x="502" y="140.0" type="line"/>
      <point x="514.9081325226559" y="188.0" type="line"/>
      <point x="72.90813252265588" y="188.0" type="line"/>
    </contour>
    <contour>
      <point x="320" y="326.0" type="line"/>
      <point x="299.8188925821139" y="240.0" type="line"/>
      <point x="683.8182276720192" y="655.0" type="line"/>
      <point x="610" y="655.0" type="line"/>
    </contour>
    <contour>
      <point x="337" y="274.0" type="line"/>
      <point x="540" y="274.0" type="line"/>
      <point x="553.3320142143361" y="322.0" type="line"/>
      <point x="350.33201421433614" y="322.0" type="line"/>
    </contour>
    <contour>
      <point x="296.3031434130895" y="294.0" type="line"/>
      <point x="212.0" y="0.0" type="line"/>
      <point x="267.0" y="0.0" type="line"/>
      <point x="351.3031434130895" y="294.0" type="line"/>
    </contour>
  </outline>
</glyph>
<glyph name="section" format="2">
  <advance width="614"/>
  <unicode hex="00A7"/>
  <outline>
    <contour>
      <point x="554" y="236" type="curve" smooth="yes"/>
      <point x="554.0" y="288.59375"/>
      <point x="534.8403094850169" y="320.1929077968284"/>
      <point x="426" y="389" type="curve" smooth="yes"/>
      <point x="339" y="444" type="line" smooth="yes"/>
      <point x="263.2651322838507" y="491.87836464814035"/>
      <point x="256.0" y="509.7096774193548"/>
      <point x="256" y="541" type="curve" smooth="yes"/>
      <point x="256.0" y="588.560975609756"/>
      <point x="291.3970588235294" y="619.0"/>
      <point x="422.0" y="619.0" type="curve" smooth="yes"/>
      <point x="482.84" y="619.0"/>
      <point x="536.805175849479" y="611.5487060376303"/>
      <point x="591" y="598" type="curve"/>
      <point x="605" y="651" type="line"/>
      <point x="552.8081685350132" y="661.8322669078274"/>
      <point x="483.98387096774195" y="670.0"/>
      <point x="422.0" y="670.0" type="curve" smooth="yes"/>
      <point x="259.4183673469388" y="670.0"/>
      <point x="196.0" y="616.5827338129496"/>
      <point x="196" y="535" type="curve" smooth="yes"/>
      <point x="196.0" y="486.496"/>
      <point x="211.98030586486402" y="453.9777113654939"/>
      <point x="287" y="406" type="curve" smooth="yes"/>
      <point x="373" y="351" type="line" smooth="yes"/>
      <point x="478.57037016441626" y="283.4840655925245"/>
      <point x="492.0" y="264.9765625"/>
      <point x="492" y="230" type="curve" smooth="yes"/>
      <point x="492.0" y="182.25945945945946"/>
      <point x="479.7608872238364" y="157.82824339777284"/>
      <point x="225" y="38" type="curve"/>
      <point x="270" y="13" type="line"/>
      <point x="527.2507394436998" y="120.52277000185894"/>
      <point x="554.0" y="166.8287037037037"/>
    </contour>
    <contour>
      <point x="51.0" y="194.0" type="curve" smooth="yes"/>
      <point x="51.0" y="141.0"/>
      <point x="70.0" y="110.0"/>
      <point x="179.0" y="41.0" type="curve" smooth="yes"/>
      <point x="266.0" y="-14.0" type="line" smooth="yes"/>
      <point x="342.0" y="-62.0"/>
      <point x="349.0" y="-80.0"/>
      <point x="349.0" y="-111.0" type="curve" smooth="yes"/>
      <point x="349.0" y="-159.0"/>
      <point x="314.0" y="-189.0"/>
      <point x="183.0" y="-189.0" type="curve" smooth="yes"/>
      <point x="122.0" y="-189.0"/>
      <point x="68.0" y="-182.0"/>
      <point x="14.0" y="-168.0" type="curve"/>
      <point x="0.0" y="-221.0" type="line"/>
      <point x="52.0" y="-232.0"/>
      <point x="121.0" y="-240.0"/>
      <point x="183.0" y="-240.0" type="curve" smooth="yes"/>
      <point x="346.0" y="-240.0"/>
      <point x="409.0" y="-187.0"/>
      <point x="409.0" y="-105.0" type="curve" smooth="yes"/>
      <point x="409.0" y="-56.0"/>
      <point x="393.0" y="-24.0"/>
      <point x="318.0" y="24.0" type="curve" smooth="yes"/>
      <point x="232.0" y="79.0" type="line" smooth="yes"/>
      <point x="126.0" y="147.0"/>
      <point x="113.0" y="165.0"/>
      <point x="113.0" y="200.0" type="curve" smooth="yes"/>
      <point x="113.0" y="248.0"/>
      <point x="125.0" y="272.0"/>
      <point x="380.0" y="392.0" type="curve"/>
      <point x="335.0" y="417.0" type="line"/>
      <point x="78.0" y="309.0"/>
      <point x="51.0" y="263.0"/>
    </contour>
  </outline>
</glyph>
<glyph name="copyright" format="2">
  <advance width="614"/>
  <unicode hex="00A9"/>
  <outline>
    <contour>
      <point x="280" y="97" type="curve" smooth="yes"/>
      <point x="319.5827814569536" y="97.0"/>
      <point x="354" y="107"/>
      <point x="419" y="172" type="curve"/>
      <point x="389" y="202" type="line"/>
      <point x="334" y="147"/>
      <point x="310.34513274336285" y="140.0"/>
      <point x="288" y="140" type="curve" smooth="yes"/>
      <point x="259" y="140"/>
      <point x="243" y="163"/>
      <point x="243" y="212" type="curve" smooth="yes"/>
      <point x="243" y="321.0"/>
      <point x="321.0" y="515.0"/>
      <point x="399" y="515" type="curve" smooth="yes"/>
      <point x="424.0" y="515.0"/>
      <point x="438.5656007808267" y="505.2228655171163"/>
      <point x="472" y="456" type="curve"/>
      <point x="508" y="484" type="line"/>
      <point x="467.2463762935851" y="547.4998322867395"/>
      <point x="442.03003754693367" y="558.0"/>
      <point x="403" y="558" type="curve" smooth="yes"/>
      <point x="283.5296803652968" y="558.0"/>
      <point x="192.0" y="347.0"/>
      <point x="192" y="210" type="curve" smooth="yes"/>
      <point x="192" y="136"/>
      <point x="220" y="97"/>
    </contour>
    <contour>
      <point x="134" y="328" type="curve" smooth="yes"/>
      <point x="214" y="606"/>
      <point x="314" y="680"/>
      <point x="437" y="680" type="curve" smooth="yes"/>
      <point x="523" y="680"/>
      <point x="575" y="647"/>
      <point x="575" y="546" type="curve" smooth="yes"/>
      <point x="575" y="493"/>
      <point x="563" y="422"/>
      <point x="536" y="328" type="curve" smooth="yes"/>
      <point x="456" y="50"/>
      <point x="357" y="-25"/>
      <point x="233" y="-25" type="curve" smooth="yes"/>
      <point x="147" y="-25"/>
      <point x="95" y="8"/>
      <point x="95" y="113" type="curve" smooth="yes"/>
      <point x="95" y="166"/>
      <point x="108" y="236"/>
    </contour>
    <contour>
      <point x="581" y="308" type="curve" smooth="yes"/>
      <point x="609" y="407"/>
      <point x="623" y="486"/>
      <point x="623" y="546" type="curve" smooth="yes"/>
      <point x="623" y="679"/>
      <point x="554" y="725"/>
      <point x="440" y="725" type="curve" smooth="yes"/>
      <point x="293" y="725"/>
      <point x="172" y="636"/>
      <point x="89" y="348" type="curve" smooth="yes"/>
      <point x="61" y="250"/>
      <point x="48" y="172"/>
      <point x="48" y="112" type="curve" smooth="yes"/>
      <point x="48" y="-23"/>
      <point x="116" y="-70"/>
      <point x="230" y="-70" type="curve" smooth="yes"/>
      <point x="378" y="-70"/>
      <point x="498" y="20"/>
    </contour>
  </outline>
</glyph>
<glyph name="ordfeminine" format="2">
  <advance width="614"/>
  <unicode hex="00AA"/>
  <outline>
    <contour>
      <point x="127" y="234" type="line"/>
      <point x="114" y="187" type="line"/>
      <point x="493" y="187" type="line"/>
      <point x="506" y="234" type="line"/>
    </contour>
    <contour>
      <point x="269" y="370" type="curve" smooth="yes"/>
      <point x="225.9375" y="370.0"/>
      <point x="216.0" y="384.0"/>
      <point x="216" y="408" type="curve" smooth="yes"/>
      <point x="216.0" y="427.11940298507466"/>
      <point x="225.0025211593761" y="454.0025211593761"/>
      <point x="240" y="469" type="curve" smooth="yes"/>
      <point x="257.14101723502813" y="486.14101723502813"/>
      <point x="301.78118276521917" y="492.18894723397386"/>
      <point x="375" y="499" type="curve" smooth="yes"/>
      <point x="504" y="511" type="line"/>
      <point x="516" y="550" type="line"/>
      <point x="367" y="537" type="line" smooth="yes"/>
      <point x="263.45218580716363" y="527.9656269496184"/>
      <point x="224.71065442993628" y="516.7106544299363"/>
      <point x="199" y="491" type="curve" smooth="yes"/>
      <point x="175" y="467"/>
      <point x="162" y="431"/>
      <point x="162" y="395" type="curve" smooth="yes"/>
      <point x="162.0" y="357.0"/>
      <point x="182.02499999999998" y="325.0"/>
      <point x="251" y="325" type="curve" smooth="yes"/>
      <point x="309.3783783783784" y="325.0"/>
      <point x="359.45954666856574" y="341.8597329691552"/>
      <point x="431" y="384" type="curve"/>
      <point x="435" y="384" type="line"/>
      <point x="464" y="438" type="line"/>
      <point x="386.931155669215" y="386.295585448967"/>
      <point x="322.0" y="370.0"/>
    </contour>
    <contour>
      <point x="492" y="409" type="curve" smooth="yes"/>
      <point x="546" y="578" type="line" smooth="yes"/>
      <point x="551" y="593"/>
      <point x="553" y="605"/>
      <point x="553" y="617" type="curve" smooth="yes"/>
      <point x="553.0" y="666.0"/>
      <point x="511" y="692.0"/>
      <point x="419" y="692" type="curve" smooth="yes"/>
      <point x="361.36301369863014" y="692.0"/>
      <point x="318.3387584485762" y="687.3742013517722"/>
      <point x="266" y="679" type="curve"/>
      <point x="253" y="632" type="line"/>
      <point x="319" y="644"/>
      <point x="375" y="648.0"/>
      <point x="405" y="648" type="curve" smooth="yes"/>
      <point x="475.050505050505" y="648.0"/>
      <point x="500.0" y="633.7391304347826"/>
      <point x="500" y="607" type="curve" smooth="yes"/>
      <point x="500.0" y="599.0"/>
      <point x="498" y="591"/>
      <point x="495" y="580" type="curve" smooth="yes"/>
      <point x="439" y="398" type="line"/>
      <point x="435" y="384" type="line"/>
      <point x="440.0" y="352.0"/>
      <point x="455" y="335"/>
      <point x="494" y="331" type="curve" smooth="yes"/>
      <point x="537" y="327" type="line"/>
      <point x="548" y="363" type="line"/>
      <point x="514" y="368" type="line" smooth="yes"/>
      <point x="496" y="371"/>
      <point x="488" y="374"/>
      <point x="488" y="387" type="curve" smooth="yes"/>
      <point x="488" y="392"/>
      <point x="489" y="399"/>
    </contour>
  </outline>
</glyph>
<glyph name="guillemetleft" format="2">
  <advance width="614"/>
  <unicode hex="00AB"/>
  <outline>
    <contour>
      <point x="109" y="214.0" type="line"/>
      <point x="351" y="400.0" type="line"/>
      <point x="372" y="471.0" type="line"/>
      <point x="74" y="254.0" type="line"/>
      <point x="74" y="207.0" type="line"/>
    </contour>
    <contour>
      <point x="114" y="232.0" type="line"/>
      <point x="74" y="254.0" type="line"/>
      <point x="60" y="203.0" type="line"/>
      <point x="232" y="-15.0" type="line"/>
      <point x="248" y="39.0" type="line"/>
    </contour>
    <contour>
      <point x="336" y="194.0" type="line"/>
      <point x="578" y="400.0" type="line"/>
      <point x="599" y="471.0" type="line"/>
      <point x="301" y="234.0" type="line"/>
      <point x="301" y="187.0" type="line"/>
    </contour>
    <contour>
      <point x="341" y="212.0" type="line"/>
      <point x="301" y="234.0" type="line"/>
      <point x="287" y="183.0" type="line"/>
      <point x="459" y="-15.0" type="line"/>
      <point x="475" y="39.0" type="line"/>
    </contour>
  </outline>
</glyph>
<glyph name="registered" format="2">
  <advance width="614"/>
  <unicode hex="00AE"/>
  <outline>
    <contour>
      <point x="320" y="208" type="curve" smooth="yes"/>
      <point x="516" y="208"/>
      <point x="629" y="389"/>
      <point x="629" y="537" type="curve" smooth="yes"/>
      <point x="629" y="655"/>
      <point x="556" y="725"/>
      <point x="427" y="725" type="curve" smooth="yes"/>
      <point x="233" y="725"/>
      <point x="121" y="544"/>
      <point x="121" y="396" type="curve" smooth="yes"/>
      <point x="121" y="278"/>
      <point x="193" y="208"/>
    </contour>
    <contour>
      <point x="426" y="689" type="curve" smooth="yes"/>
      <point x="530" y="689"/>
      <point x="588" y="633"/>
      <point x="588" y="536" type="curve" smooth="yes"/>
      <point x="588" y="414"/>
      <point x="491" y="243"/>
      <point x="320" y="243" type="curve" smooth="yes"/>
      <point x="219" y="243"/>
      <point x="162" y="300"/>
      <point x="162" y="397" type="curve" smooth="yes"/>
      <point x="162" y="519"/>
      <point x="258" y="689"/>
    </contour>
    <contour>
      <point x="360" y="604" type="line"/>
      <point x="354" y="567" type="line"/>
      <point x="424" y="567" type="line" smooth="yes"/>
      <point x="456" y="567"/>
      <point x="471" y="554"/>
      <point x="471" y="535" type="curve" smooth="yes"/>
      <point x="471" y="506"/>
      <point x="444" y="486"/>
      <point x="365" y="484" type="curve" smooth="yes"/>
      <point x="321" y="483" type="line"/>
      <point x="317" y="461" type="line"/>
      <point x="393" y="456" type="line"/>
      <point x="393" y="458" type="line"/>
      <point x="481" y="463"/>
      <point x="515" y="493"/>
      <point x="515" y="542" type="curve" smooth="yes"/>
      <point x="515" y="579"/>
      <point x="487" y="604"/>
      <point x="436" y="604" type="curve" smooth="yes"/>
    </contour>
    <contour>
      <point x="324" y="604" type="line"/>
      <point x="249" y="343" type="line"/>
      <point x="291" y="343" type="line"/>
      <point x="366" y="604" type="line"/>
    </contour>
    <contour>
      <point x="472" y="345" type="line"/>
      <point x="430" y="416" type="line" smooth="yes"/>
      <point x="416" y="439"/>
      <point x="408" y="448"/>
      <point x="393" y="456" type="curve"/>
      <point x="319" y="465" type="line"/>
      <point x="315" y="454" type="line"/>
      <point x="352" y="454"/>
      <point x="360" y="448"/>
      <point x="381" y="412" type="curve" smooth="yes"/>
      <point x="421" y="343" type="line"/>
      <point x="472" y="343" type="line"/>
    </contour>
  </outline>
</glyph>
<glyph name="degree" format="2">
  <advance width="614"/>
  <unicode hex="00B0"/>
  <outline>
    <contour>
      <point x="354" y="293" type="curve" smooth="yes"/>
      <point x="493.0" y="293.0"/>
      <point x="592" y="408"/>
      <point x="592" y="532" type="curve" smooth="yes"/>
      <point x="592.0" y="625.0"/>
      <point x="524.0" y="692.0"/>
      <point x="411" y="692" type="curve" smooth="yes"/>
      <point x="272.0" y="692.0"/>
      <point x="173" y="577"/>
      <point x="173" y="453" type="curve" smooth="yes"/>
      <point x="173.0" y="360.0"/>
      <point x="241.0" y="293.0"/>
    </contour>
    <contour>
      <point x="414" y="649" type="curve" smooth="yes"/>
      <point x="493.0" y="649.0"/>
      <point x="540.0" y="602.0"/>
      <point x="540" y="534" type="curve" smooth="yes"/>
      <point x="540" y="433"/>
      <point x="458" y="336"/>
      <point x="351" y="336" type="curve" smooth="yes"/>
      <point x="272.0" y="336.0"/>
      <point x="225.0" y="383.0"/>
      <point x="225" y="451" type="curve" smooth="yes"/>
      <point x="225" y="552"/>
      <point x="307" y="649"/>
    </contour>
  </outline>
</glyph>
<glyph name="plusminus" format="2">
  <advance width="614"/>
  <unicode hex="00B1"/>
  <outline>
    <contour>
      <point x="475.0" y="0.0" type="line"/>
      <point x="490" y="51.0" type="line"/>
      <point x="22" y="51.0" type="line"/>
      <point x="7.0" y="0.0" type="line"/>
    </contour>
    <contour>
      <point x="398.8182276720192" y="655.0" type="line"/>
      <point x="275.230966409973" y="224.0" type="line"/>
      <point x="334.230966409973" y="224.0" type="line"/>
      <point x="457.81822767201925" y="655.0" type="line"/>
    </contour>
    <contour>
      <point x="126" y="415.0" type="line"/>
      <point x="594" y="415.0" type="line"/>
      <point x="609" y="466.0" type="line"/>
      <point x="141" y="466.0" type="line"/>
    </contour>
  </outline>
</glyph>
<glyph name="paragraph" format="2">
  <advance width="614"/>
  <unicode hex="00B6"/>
  <outline>
    <contour>
      <point x="572.8182276720192" y="655.0" type="line"/>
      <point x="385.0" y="0.0" type="line"/>
      <point x="443.0" y="0.0" type="line"/>
      <point x="630.8182276720192" y="655.0" type="line"/>
    </contour>
    <contour>
      <point x="363" y="298" type="line"/>
      <point x="454" y="614" type="line"/>
      <point x="466" y="655" type="line"/>
      <point x="433" y="655" type="line" smooth="yes"/>
      <point x="229" y="655"/>
      <point x="150" y="558"/>
      <point x="150" y="433" type="curve" smooth="yes"/>
      <point x="150" y="344"/>
      <point x="219" y="298"/>
      <point x="359" y="298" type="curve" smooth="yes"/>
    </contour>
    <contour>
      <point x="442.627939927114" y="609.0" type="line"/>
      <point x="597.6279399271141" y="609.0" type="line"/>
      <point x="610.8182276720192" y="655.0" type="line"/>
      <point x="455.81822767201925" y="655.0" type="line"/>
    </contour>
  </outline>
</glyph>
<glyph name="ordmasculine" format="2">
  <advance width="614"/>
  <unicode hex="00BA"/>
  <outline>
    <contour>
      <point x="127" y="234" type="line"/>
      <point x="114" y="187" type="line"/>
      <point x="479" y="187" type="line"/>
      <point x="492" y="234" type="line"/>
    </contour>
    <contour>
      <point x="357" y="367" type="curve" smooth="yes"/>
      <point x="282.0" y="367.0"/>
      <point x="242.0" y="415.0"/>
      <point x="242" y="474" type="curve" smooth="yes"/>
      <point x="242" y="574"/>
      <point x="331" y="647"/>
      <point x="417" y="647" type="curve" smooth="yes"/>
      <point x="492.0" y="647.0"/>
      <point x="532.0" y="599.0"/>
      <point x="532" y="540" type="curve" smooth="yes"/>
      <point x="532" y="440"/>
      <point x="443" y="367"/>
    </contour>
    <contour>
      <point x="417" y="692" type="curve" smooth="yes"/>
      <point x="302.0" y="692.0"/>
      <point x="192" y="597"/>
      <point x="192" y="471" type="curve" smooth="yes"/>
      <point x="192.0" y="377.0"/>
      <point x="265.0" y="322.0"/>
      <point x="357" y="322" type="curve" smooth="yes"/>
      <point x="472.0" y="322.0"/>
      <point x="582" y="417"/>
      <point x="582" y="543" type="curve" smooth="yes"/>
      <point x="582.0" y="637.0"/>
      <point x="509.0" y="692.0"/>
    </contour>
  </outline>
</glyph>
<glyph name="guillemetright" format="2">
  <advance width="614"/>
  <unicode hex="00BB"/>
  <outline>
    <contour>
      <point x="505.0" y="242.0" type="line"/>
      <point x="263.0" y="56.0" type="line"/>
      <point x="242.0" y="-15.0" type="line"/>
      <point x="540.0" y="202.0" type="line"/>
      <point x="540.0" y="249.0" type="line"/>
    </contour>
    <contour>
      <point x="500.0" y="224.0" type="line"/>
      <point x="540.0" y="202.0" type="line"/>
      <point x="554.0" y="253.0" type="line"/>
      <point x="382.0" y="471.0" type="line"/>
      <point x="366.0" y="417.0" type="line"/>
    </contour>
    <contour>
      <point x="278.0" y="262.0" type="line"/>
      <point x="36.0" y="56.0" type="line"/>
      <point x="15.0" y="-15.0" type="line"/>
      <point x="313.0" y="222.0" type="line"/>
      <point x="313.0" y="269.0" type="line"/>
    </contour>
    <contour>
      <point x="273.0" y="244.0" type="line"/>
      <point x="313.0" y="222.0" type="line"/>
      <point x="327.0" y="273.0" type="line"/>
      <point x="155.0" y="471.0" type="line"/>
      <point x="139.0" y="417.0" type="line"/>
    </contour>
  </outline>
</glyph>
<glyph name="questiondown" format="2">
  <advance width="614"/>
  <unicode hex="00BF"/>
  <outline>
    <contour>
      <point x="439" y="483" type="line"/>
      <point x="409" y="403"/>
      <point x="402" y="396"/>
      <point x="371" y="384" type="curve" smooth="yes"/>
      <point x="256" y="339" type="line" smooth="yes"/>
      <point x="104" y="279"/>
      <point x="64" y="218"/>
      <point x="64" y="128" type="curve" smooth="yes"/>
      <point x="64" y="41"/>
      <point x="137" y="-15"/>
      <point x="232" y="-15" type="curve" smooth="yes"/>
      <point x="318" y="-15"/>
      <point x="378" y="5"/>
      <point x="516" y="92" type="curve"/>
      <point x="489" y="137" type="line"/>
      <point x="344" y="50"/>
      <point x="299" y="36"/>
      <point x="240" y="36" type="curve" smooth="yes"/>
      <point x="173" y="36"/>
      <point x="128" y="69"/>
      <point x="128" y="137" type="curve" smooth="yes"/>
      <point x="128" y="195"/>
      <point x="158" y="243"/>
      <point x="267" y="285" type="curve" smooth="yes"/>
      <point x="400" y="336" type="line" smooth="yes"/>
      <point x="441" y="352"/>
      <point x="451" y="360"/>
      <point x="457" y="382" type="curve" smooth="yes"/>
      <point x="460" y="393"/>
      <point x="465" y="418"/>
      <point x="475" y="483" type="curve"/>
    </contour>
    <contour>
      <point x="495" y="617" type="curve" smooth="yes"/>
      <point x="541.0" y="617.0"/>
      <point x="567.0" y="646.0"/>
      <point x="567" y="680" type="curve" smooth="yes"/>
      <point x="567" y="706"/>
      <point x="547" y="725"/>
      <point x="511" y="725" type="curve" smooth="yes"/>
      <point x="465.0" y="725.0"/>
      <point x="439.0" y="696.0"/>
      <point x="439" y="662" type="curve" smooth="yes"/>
      <point x="439" y="636"/>
      <point x="460" y="617"/>
    </contour>
  </outline>
</glyph>
<glyph name="Aring" format="2">
  <advance width="614"/>
  <unicode hex="00C5"/>
  <outline>
    <contour>
      <point x="118" y="201" type="line"/>
      <point x="467" y="201" type="line"/>
      <point x="452" y="252" type="line"/>
      <point x="151" y="252" type="line"/>
    </contour>
    <contour>
      <point x="47" y="0" type="line"/>
      <point x="184" y="222" type="line"/>
      <point x="184" y="222" type="line"/>
      <point x="433" y="627" type="line"/>
      <point x="432" y="638" type="line"/>
      <point x="393" y="655" type="line"/>
      <point x="-20" y="0" type="line"/>
    </contour>
    <contour>
      <point x="502" y="0" type="line"/>
      <point x="468" y="639" type="line"/>
      <point x="421" y="638" type="line"/>
      <point x="412" y="631" type="line"/>
      <point x="431" y="224" type="line"/>
      <point x="431" y="224" type="line"/>
      <point x="442" y="0" type="line"/>
    </contour>
    <contour>
      <point x="451" y="790" type="curve" smooth="yes"/>
      <point x="516" y="790"/>
      <point x="550" y="770"/>
      <point x="550" y="735" type="curve" smooth="yes"/>
      <point x="550" y="696"/>
      <point x="516" y="653"/>
      <point x="443" y="653" type="curve" smooth="yes"/>
      <point x="378" y="653"/>
      <point x="344" y="673"/>
      <point x="344" y="708" type="curve" smooth="yes"/>
      <point x="344" y="747"/>
      <point x="378" y="790"/>
    </contour>
    <contour>
      <point x="433" y="609" type="curve" smooth="yes"/>
      <point x="555" y="609"/>
      <point x="599" y="677"/>
      <point x="599" y="737" type="curve" smooth="yes"/>
      <point x="599" y="801"/>
      <point x="537" y="834"/>
      <point x="461" y="834" type="curve" smooth="yes"/>
      <point x="339" y="834"/>
      <point x="295" y="766"/>
      <point x="295" y="706" type="curve" smooth="yes"/>
      <point x="295" y="642"/>
      <point x="357" y="609"/>
    </contour>
  </outline>
</glyph>
<glyph name="AE" format="2">
  <advance width="614"/>
  <unicode hex="00C6"/>
  <outline>
    <contour>
      <point x="-8.0" y="0.0" type="line"/>
      <point x="391.50261148501374" y="626.0" type="line"/>
      <point x="399.8182276720192" y="655.0" type="line"/>
      <point x="350.8182276720192" y="655.0" type="line"/>
      <point x="-75.0" y="0.0" type="line"/>
    </contour>
    <contour>
      <point x="97.34907715176158" y="200.0" type="line"/>
      <point x="323.3490771517616" y="200.0" type="line"/>
      <point x="337.97309182546076" y="251.0" type="line"/>
      <point x="142.97309182546078" y="251.0" type="line"/>
    </contour>
    <contour>
      <point x="338.19421299832" y="604.0" type="line"/>
      <point x="442.19421299832" y="604.0" type="line"/>
      <point x="456.81822767201925" y="655.0" type="line"/>
      <point x="352.8182276720192" y="655.0" type="line"/>
    </contour>
    <contour>
      <point x="423.8182276720192" y="655.0" type="line"/>
      <point x="236.0" y="0.0" type="line"/>
      <point x="297.0" y="0.0" type="line"/>
      <point x="484.81822767201925" y="655.0" type="line"/>
    </contour>
    <contour>
      <point x="423.19421299832" y="604.0" type="line"/>
      <point x="698.1942129983199" y="604.0" type="line"/>
      <point x="712.8182276720192" y="655.0" type="line"/>
      <point x="437.8182276720192" y="655.0" type="line"/>
    </contour>
    <contour>
      <point x="250.0" y="0.0" type="line"/>
      <point x="525.0" y="0.0" type="line"/>
      <point x="539.6240146736992" y="51.0" type="line"/>
      <point x="264.6240146736992" y="51.0" type="line"/>
    </contour>
    <contour>
      <point x="337.74408804219524" y="306.0" type="line"/>
      <point x="584.7440880421952" y="306.0" type="line"/>
      <point x="599.3681027158945" y="357.0" type="line"/>
      <point x="352.36810271589445" y="357.0" type="line"/>
    </contour>
  </outline>
</glyph>
<glyph name="Ccedilla" format="2">
  <advance width="614"/>
  <unicode hex="00C7"/>
  <outline>
    <contour>
      <point x="266.0" y="-15.0" type="curve" smooth="yes"/>
      <point x="348.0" y="-15.0"/>
      <point x="411" y="7"/>
      <point x="524" y="81" type="curve"/>
      <point x="492" y="127" type="line"/>
      <point x="387" y="59"/>
      <point x="328" y="36"/>
      <point x="265" y="36" type="curve" smooth="yes"/>
      <point x="189" y="36"/>
      <point x="133" y="89"/>
      <point x="133" y="195" type="curve" smooth="yes"/>
      <point x="133.0" y="404.0"/>
      <point x="255.0" y="619.0"/>
      <point x="441.0" y="619.0" type="curve" smooth="yes"/>
      <point x="496" y="619"/>
      <point x="540.0" y="606.0"/>
      <point x="616" y="532" type="curve"/>
      <point x="656" y="576" type="line"/>
      <point x="574.0" y="651.0"/>
      <point x="523.0" y="670.0"/>
      <point x="443.0" y="670.0" type="curve" smooth="yes"/>
      <point x="219" y="670"/>
      <point x="69.0" y="431.0"/>
      <point x="69" y="193" type="curve" smooth="yes"/>
      <point x="69" y="57"/>
      <point x="138.0" y="-15.0"/>
    </contour>
    <contour>
      <point x="250" y="16" type="line"/>
      <point x="176" y="-98" type="line"/>
      <point x="179" y="-108" type="line"/>
      <point x="291" y="-120"/>
      <point x="312" y="-131"/>
      <point x="312" y="-155" type="curve" smooth="yes"/>
      <point x="312" y="-186"/>
      <point x="291" y="-202"/>
      <point x="85" y="-221" type="curve"/>
      <point x="85" y="-270" type="line"/>
      <point x="357" y="-245"/>
      <point x="376" y="-206"/>
      <point x="376" y="-151" type="curve" smooth="yes"/>
      <point x="376" y="-106"/>
      <point x="358" y="-84"/>
      <point x="233" y="-65" type="curve"/>
      <point x="217" y="-106" type="line"/>
      <point x="293" y="16" type="line"/>
    </contour>
  </outline>
</glyph>
<glyph name="Eth" format="2">
  <advance width="614"/>
  <unicode hex="00D0"/>
  <outline>
    <contour>
      <point x="56" y="308" type="line"/>
      <point x="343" y="308" type="line"/>
      <point x="356" y="352" type="line"/>
      <point x="69" y="352" type="line"/>
    </contour>
    <contour>
      <point x="242" y="655" type="line"/>
      <point x="54" y="0" type="line"/>
      <point x="106" y="0" type="line"/>
      <point x="123" y="27" type="line"/>
      <point x="293" y="622" type="line"/>
      <point x="303" y="655" type="line"/>
    </contour>
    <contour>
      <point x="323" y="655.0" type="curve" smooth="yes"/>
      <point x="291" y="655" type="line"/>
      <point x="276" y="604" type="line"/>
      <point x="340" y="604" type="line" smooth="yes"/>
      <point x="475" y="604"/>
      <point x="542" y="538"/>
      <point x="542" y="425" type="curve" smooth="yes"/>
      <point x="542" y="221"/>
      <point x="393" y="51"/>
      <point x="151" y="51" type="curve" smooth="yes"/>
      <point x="118" y="51" type="line"/>
      <point x="103" y="0" type="line"/>
      <point x="137" y="0" type="line" smooth="yes"/>
      <point x="303" y="0"/>
      <point x="413" y="53"/>
      <point x="487" y="127" type="curve" smooth="yes"/>
      <point x="566" y="206"/>
      <point x="606" y="308"/>
      <point x="606" y="419" type="curve" smooth="yes"/>
      <point x="606" y="489"/>
      <point x="586" y="544"/>
      <point x="547" y="583" type="curve" smooth="yes"/>
      <point x="497" y="633"/>
      <point x="423" y="655"/>
    </contour>
  </outline>
</glyph>
<glyph name="multiply" format="2">
  <advance width="614"/>
  <unicode hex="00D7"/>
  <outline>
    <contour>
      <point x="179" y="497" type="line"/>
      <point x="310" y="312" type="line"/>
      <point x="449" y="117" type="line"/>
      <point x="494" y="151" type="line"/>
      <point x="354" y="346" type="line"/>
      <point x="225" y="528" type="line"/>
    </contour>
    <contour>
      <point x="115" y="123" type="line"/>
      <point x="348" y="305" type="line"/>
      <point x="583" y="488" type="line"/>
      <point x="550" y="529" type="line"/>
      <point x="316" y="346" type="line"/>
      <point x="85" y="166" type="line"/>
    </contour>
  </outline>
</glyph>
<glyph name="Oslash" format="2">
  <advance width="614"/>
  <unicode hex="00D8"/>
  <outline>
    <contour>
      <point x="541" y="594" type="line"/>
      <point x="527" y="578" type="line"/>
      <point x="551" y="545" type="line"/>
      <point x="566" y="561" type="line"/>
      <point x="569" y="561" type="line"/>
      <point x="726" y="726" type="line"/>
      <point x="656" y="726" type="line"/>
      <point x="544" y="594" type="line"/>
    </contour>
    <contour>
      <point x="119" y="111" type="line"/>
      <point x="106" y="96" type="line"/>
      <point x="104" y="96" type="line"/>
      <point x="-56" y="-71" type="line"/>
      <point x="14" y="-71" type="line"/>
      <point x="127" y="63" type="line"/>
      <point x="130" y="63" type="line"/>
      <point x="142" y="76" type="line"/>
    </contour>
    <contour>
      <point x="407" y="670" type="curve" smooth="yes"/>
      <point x="254" y="670"/>
      <point x="132" y="532"/>
      <point x="84" y="366" type="curve" smooth="yes"/>
      <point x="68" y="311"/>
      <point x="61" y="251"/>
      <point x="61" y="206" type="curve" smooth="yes"/>
      <point x="61" y="60.0"/>
      <point x="148.0" y="-15"/>
      <point x="260" y="-15" type="curve" smooth="yes"/>
      <point x="413" y="-15"/>
      <point x="535" y="123"/>
      <point x="583" y="289" type="curve" smooth="yes"/>
      <point x="599" y="344"/>
      <point x="606" y="404"/>
      <point x="606" y="449" type="curve" smooth="yes"/>
      <point x="606.0" y="595.0"/>
      <point x="520.0" y="670.0"/>
    </contour>
    <contour>
      <point x="263" y="36" type="curve" smooth="yes"/>
      <point x="180" y="36"/>
      <point x="124" y="88"/>
      <point x="124" y="203" type="curve" smooth="yes"/>
      <point x="124" y="247"/>
      <point x="131" y="306"/>
      <point x="148" y="365" type="curve" smooth="yes"/>
      <point x="187" y="500"/>
      <point x="280" y="619"/>
      <point x="404" y="619" type="curve" smooth="yes"/>
      <point x="487" y="619"/>
      <point x="543" y="567"/>
      <point x="543" y="452" type="curve" smooth="yes"/>
      <point x="543" y="408"/>
      <point x="536" y="349"/>
      <point x="519" y="290" type="curve" smooth="yes"/>
      <point x="480" y="155"/>
      <point x="387" y="36"/>
    </contour>
  </outline>
</glyph>
<glyph name="Thorn" format="2">
  <advance width="614"/>
  <unicode hex="00DE"/>
  <outline>
    <contour>
      <point x="225" y="655" type="line"/>
      <point x="37" y="0" type="line"/>
      <point x="98" y="0" type="line"/>
      <point x="286" y="655" type="line"/>
    </contour>
    <contour>
      <point x="211" y="497" type="line"/>
      <point x="196" y="446" type="line"/>
      <point x="418" y="446" type="line" smooth="yes"/>
      <point x="497" y="446"/>
      <point x="538" y="417"/>
      <point x="538.0" y="359" type="curve" smooth="yes"/>
      <point x="538.0" y="284"/>
      <point x="480.0" y="208.0"/>
      <point x="336" y="208.0" type="curve" smooth="yes"/>
      <point x="128" y="208" type="line"/>
      <point x="113" y="158" type="line"/>
      <point x="325" y="158.0" type="line" smooth="yes"/>
      <point x="432" y="158"/>
      <point x="499" y="176"/>
      <point x="549" y="226" type="curve" smooth="yes"/>
      <point x="583" y="260"/>
      <point x="602" y="308"/>
      <point x="602" y="362" type="curve" smooth="yes"/>
      <point x="602" y="440"/>
      <point x="545" y="497"/>
      <point x="421" y="497.0" type="curve" smooth="yes"/>
    </contour>
  </outline>
</glyph>
<glyph name="germandbls" format="2">
  <advance width="614"/>
  <unicode hex="00DF"/>
  <outline>
    <contour>
      <point x="600" y="487"/>
      <point x="618" y="538"/>
      <point x="618" y="601" type="curve" smooth="yes"/>
      <point x="618" y="670"/>
      <point x="567" y="725"/>
      <point x="452" y="725.0" type="curve" smooth="yes"/>
      <point x="312.0" y="725.0"/>
      <point x="214" y="640"/>
      <point x="169" y="482" type="curve" smooth="yes"/>
      <point x="31" y="0" type="line"/>
      <point x="90" y="0" type="line"/>
      <point x="228" y="482" type="line" smooth="yes"/>
      <point x="262" y="602"/>
      <point x="346" y="674"/>
      <point x="455" y="674" type="curve" smooth="yes"/>
      <point x="518" y="674"/>
      <point x="555" y="646"/>
      <point x="555" y="600" type="curve" smooth="yes"/>
      <point x="555.0" y="544.0"/>
      <point x="539" y="511.0"/>
      <point x="349" y="374" type="curve"/>
      <point x="351" y="357" type="line"/>
      <point x="385" y="343" type="line"/>
    </contour>
    <contour>
      <point x="477.0" y="99.0"/>
      <point x="444" y="58"/>
      <point x="360" y="52" type="curve" smooth="yes"/>
      <point x="264" y="45" type="line"/>
      <point x="264" y="-6" type="line"/>
      <point x="351" y="0" type="line" smooth="yes"/>
      <point x="497" y="10"/>
      <point x="540" y="78"/>
      <point x="540" y="165" type="curve" smooth="yes"/>
      <point x="540" y="219"/>
      <point x="508" y="276"/>
      <point x="393" y="382" type="curve"/>
      <point x="349" y="374" type="line"/>
      <point x="343" y="351" type="line"/>
      <point x="449" y="253"/>
      <point x="477" y="203"/>
      <point x="477" y="162" type="curve" smooth="yes"/>
    </contour>
  </outline>
</glyph>
<glyph name="ae" format="2">
  <advance width="614"/>
  <unicode hex="00E6"/>
  <outline>
    <contour>
      <point x="319" y="207" type="line"/>
      <point x="360" y="371" type="line"/>
      <point x="360" y="441"/>
      <point x="340" y="470"/>
      <point x="258" y="470" type="curve" smooth="yes"/>
      <point x="217" y="470"/>
      <point x="176" y="465"/>
      <point x="134" y="456" type="curve"/>
      <point x="119" y="405" type="line"/>
      <point x="181" y="416"/>
      <point x="218" y="420"/>
      <point x="259" y="420" type="curve" smooth="yes"/>
      <point x="293" y="420"/>
      <point x="308" y="408"/>
      <point x="308" y="376" type="curve" smooth="yes"/>
      <point x="308" y="362"/>
      <point x="304" y="344"/>
      <point x="269" y="220" type="curve"/>
    </contour>
    <contour>
      <point x="318" y="148" type="curve" smooth="yes"/>
      <point x="318" y="256"/>
      <point x="409" y="420"/>
      <point x="491" y="420" type="curve" smooth="yes"/>
      <point x="522" y="420"/>
      <point x="541" y="405"/>
      <point x="541" y="373" type="curve" smooth="yes"/>
      <point x="541.0" y="329.0"/>
      <point x="504.0" y="274.0"/>
      <point x="314" y="259" type="curve"/>
      <point x="300" y="215" type="line"/>
      <point x="562.0" y="235.0"/>
      <point x="603.0" y="299.0"/>
      <point x="603" y="374" type="curve" smooth="yes"/>
      <point x="603" y="436"/>
      <point x="561" y="470"/>
      <point x="500" y="470.0" type="curve" smooth="yes"/>
      <point x="423" y="470"/>
      <point x="329" y="398"/>
      <point x="284" y="220" type="curve"/>
      <point x="269" y="220" type="line"/>
      <point x="260" y="190"/>
      <point x="256" y="168"/>
      <point x="256" y="147" type="curve" smooth="yes"/>
      <point x="256" y="36"/>
      <point x="297" y="-5"/>
      <point x="452" y="-5" type="curve"/>
      <point x="468" y="44" type="line"/>
      <point x="354" y="44"/>
      <point x="318" y="68"/>
    </contour>
    <contour>
      <point x="124" y="45" type="curve" smooth="yes"/>
      <point x="75" y="45"/>
      <point x="62" y="63"/>
      <point x="62" y="94" type="curve" smooth="yes"/>
      <point x="62" y="122"/>
      <point x="71" y="149"/>
      <point x="89" y="167" type="curve" smooth="yes"/>
      <point x="109" y="187"/>
      <point x="132" y="200"/>
      <point x="297" y="215" type="curve"/>
      <point x="311" y="259" type="line"/>
      <point x="122" y="247"/>
      <point x="75" y="231"/>
      <point x="43" y="199" type="curve" smooth="yes"/>
      <point x="13" y="169"/>
      <point x="-1" y="124"/>
      <point x="-1" y="84" type="curve" smooth="yes"/>
      <point x="-1" y="36"/>
      <point x="22" y="-5"/>
      <point x="101" y="-5" type="curve" smooth="yes"/>
      <point x="146" y="-5"/>
      <point x="179" y="4"/>
      <point x="263" y="59" type="curve"/>
      <point x="285" y="59" type="line"/>
      <point x="267" y="108" type="line"/>
      <point x="193.0" y="59.0"/>
      <point x="155.0" y="45.0"/>
    </contour>
  </outline>
</glyph>
<glyph name="ccedilla" format="2">
  <advance width="614"/>
  <unicode hex="00E7"/>
  <outline>
    <contour>
      <point x="375" y="425" type="curve" smooth="yes"/>
      <point x="424" y="425"/>
      <point x="465" y="407"/>
      <point x="541" y="357" type="curve"/>
      <point x="574" y="406" type="line"/>
      <point x="496" y="456"/>
      <point x="443" y="475"/>
      <point x="367" y="475" type="curve" smooth="yes"/>
      <point x="290" y="475"/>
      <point x="212" y="440"/>
      <point x="156" y="384" type="curve" smooth="yes"/>
      <point x="89.0" y="317.0"/>
      <point x="64.0" y="237.0"/>
      <point x="64" y="161" type="curve" smooth="yes"/>
      <point x="64" y="48"/>
      <point x="137" y="-15"/>
      <point x="245" y="-15" type="curve" smooth="yes"/>
      <point x="311" y="-15"/>
      <point x="379" y="-6"/>
      <point x="494" y="51" type="curve"/>
      <point x="471" y="98" type="line"/>
      <point x="367" y="49"/>
      <point x="309" y="35"/>
      <point x="259" y="35" type="curve" smooth="yes"/>
      <point x="177" y="35"/>
      <point x="128" y="88"/>
      <point x="128" y="167" type="curve" smooth="yes"/>
      <point x="128.0" y="229.0"/>
      <point x="158.0" y="304.0"/>
      <point x="207" y="353" type="curve" smooth="yes"/>
      <point x="251" y="397"/>
      <point x="312" y="425"/>
    </contour>
    <contour>
      <point x="233.00000000000006" y="16" type="line"/>
      <point x="159.00000000000006" y="-98" type="line"/>
      <point x="162.00000000000006" y="-108" type="line"/>
      <point x="274.00000000000006" y="-120"/>
      <point x="295.00000000000006" y="-131"/>
      <point x="295.00000000000006" y="-155" type="curve" smooth="yes"/>
      <point x="295.00000000000006" y="-186"/>
      <point x="274.00000000000006" y="-202"/>
      <point x="68.00000000000006" y="-221" type="curve"/>
      <point x="68.00000000000006" y="-270" type="line"/>
      <point x="340.00000000000006" y="-245"/>
      <point x="359.00000000000006" y="-206"/>
      <point x="359.00000000000006" y="-151" type="curve" smooth="yes"/>
      <point x="359.00000000000006" y="-106"/>
      <point x="341.00000000000006" y="-84"/>
      <point x="216.00000000000006" y="-65" type="curve"/>
      <point x="200.00000000000006" y="-106" type="line"/>
      <point x="276.00000000000006" y="16" type="line"/>
    </contour>
  </outline>
</glyph>
<glyph name="eth" format="2">
  <advance width="614"/>
  <unicode hex="00F0"/>
  <guideline x="342.47833084727665" y="741" angle="180.0" identifier="G57mRtmwhU"/>
  <outline>
    <contour>
      <point x="602" y="739" type="line"/>
      <point x="458" y="640" type="line"/>
      <point x="458" y="640" type="line"/>
      <point x="298" y="530" type="line"/>
      <point x="324" y="491" type="line"/>
      <point x="490" y="606" type="line"/>
      <point x="490" y="606" type="line"/>
      <point x="627" y="701" type="line"/>
    </contour>
    <contour>
      <point x="513" y="340" type="line"/>
      <point x="495" y="255"/>
      <point x="456" y="164"/>
      <point x="400" y="108" type="curve" smooth="yes"/>
      <point x="353" y="61"/>
      <point x="297" y="35"/>
      <point x="242" y="35" type="curve" smooth="yes"/>
      <point x="164" y="35"/>
      <point x="116" y="81"/>
      <point x="116" y="157" type="curve" smooth="yes"/>
      <point x="116" y="268"/>
      <point x="203" y="376"/>
      <point x="345" y="376" type="curve" smooth="yes"/>
      <point x="402" y="376"/>
      <point x="450" y="364"/>
      <point x="538" y="299" type="curve"/>
      <point x="539" y="355" type="line"/>
      <point x="464" y="409"/>
      <point x="405" y="426"/>
      <point x="336" y="426" type="curve" smooth="yes"/>
      <point x="146" y="426"/>
      <point x="55" y="284"/>
      <point x="55" y="153" type="curve" smooth="yes"/>
      <point x="55" y="46"/>
      <point x="126" y="-15"/>
      <point x="246" y="-15" type="curve" smooth="yes"/>
      <point x="319" y="-15"/>
      <point x="391" y="18"/>
      <point x="449" y="76" type="curve" smooth="yes"/>
      <point x="545" y="172"/>
      <point x="584" y="330"/>
      <point x="584" y="442" type="curve" smooth="yes"/>
      <point x="584" y="586"/>
      <point x="497" y="689"/>
      <point x="338" y="725" type="curve"/>
      <point x="315" y="684" type="line"/>
      <point x="479" y="644"/>
      <point x="525" y="533"/>
      <point x="525" y="447" type="curve" smooth="yes"/>
      <point x="525" y="415"/>
      <point x="521" y="378"/>
      <point x="513" y="341" type="curve"/>
    </contour>
  </outline>
</glyph>
<glyph name="divide" format="2">
  <advance width="614"/>
  <unicode hex="00F7"/>
  <outline>
    <contour>
      <point x="93" y="301" type="line"/>
      <point x="561" y="301" type="line"/>
      <point x="576" y="352" type="line"/>
      <point x="108" y="352" type="line"/>
    </contour>
    <contour>
      <point x="269" y="82" type="curve" smooth="yes"/>
      <point x="309.0" y="82.0"/>
      <point x="336.0" y="113.0"/>
      <point x="336" y="149" type="curve" smooth="yes"/>
      <point x="336" y="172"/>
      <point x="320" y="186"/>
      <point x="289" y="186" type="curve" smooth="yes"/>
      <point x="247.0" y="186.0"/>
      <point x="222.0" y="155.0"/>
      <point x="222" y="119" type="curve" smooth="yes"/>
      <point x="222" y="96"/>
      <point x="237" y="82"/>
    </contour>
    <contour>
      <point x="382" y="466" type="curve" smooth="yes"/>
      <point x="422.0" y="466.0"/>
      <point x="449.0" y="497.0"/>
      <point x="449" y="533" type="curve" smooth="yes"/>
      <point x="449" y="556"/>
      <point x="433" y="570"/>
      <point x="402" y="570" type="curve" smooth="yes"/>
      <point x="360.0" y="570.0"/>
      <point x="335.0" y="539.0"/>
      <point x="335" y="503" type="curve" smooth="yes"/>
      <point x="335" y="480"/>
      <point x="350" y="466"/>
    </contour>
  </outline>
</glyph>
<glyph name="thorn" format="2">
  <advance width="614"/>
  <unicode hex="00FE"/>
  <outline>
    <contour>
      <point x="-32" y="-230" type="line"/>
      <point x="27" y="-230" type="line"/>
      <point x="297" y="710" type="line"/>
      <point x="238" y="710" type="line"/>
    </contour>
    <contour>
      <point x="91" y="78" type="curve"/>
      <point x="83" y="22" type="line"/>
      <point x="121" y="5"/>
      <point x="167" y="-8"/>
      <point x="221" y="-8" type="curve" smooth="yes"/>
      <point x="430" y="-8"/>
      <point x="557" y="133"/>
      <point x="557" y="300" type="curve" smooth="yes"/>
      <point x="557" y="404"/>
      <point x="495" y="468"/>
      <point x="394" y="468" type="curve" smooth="yes"/>
      <point x="319" y="468"/>
      <point x="254" y="430"/>
      <point x="158" y="325" type="curve"/>
      <point x="134" y="255" type="line"/>
      <point x="279" y="396"/>
      <point x="325" y="418"/>
      <point x="388" y="418" type="curve" smooth="yes"/>
      <point x="449" y="418"/>
      <point x="495" y="372"/>
      <point x="495" y="297" type="curve" smooth="yes"/>
      <point x="495" y="182"/>
      <point x="410" y="42"/>
      <point x="222" y="42" type="curve" smooth="yes"/>
      <point x="165" y="42"/>
      <point x="123" y="56"/>
    </contour>
  </outline>
</glyph>
<glyph name="Aogonek" format="2">
  <advance width="614"/>
  <unicode hex="0104"/>
  <outline>
    <contour>
      <point x="117.6358225375204" y="201.0" type="line"/>
      <point x="466.6358225375204" y="201.0" type="line"/>
      <point x="452.25983721121963" y="252.0" type="line"/>
      <point x="151.25983721121958" y="252.0" type="line"/>
    </contour>
    <contour>
      <point x="47.0" y="0.0" type="line"/>
      <point x="184.0" y="222.0" type="line"/>
      <point x="184.0" y="222.0" type="line"/>
      <point x="433.0" y="627.0" type="line"/>
      <point x="432.8182276720192" y="655.0" type="line"/>
      <point x="392.8182276720192" y="655.0" type="line"/>
      <point x="-20.0" y="0.0" type="line"/>
    </contour>
    <contour>
      <point x="502.0" y="0.0" type="line"/>
      <point x="466.81822767201925" y="655.0" type="line"/>
      <point x="421.8182276720192" y="655.0" type="line"/>
      <point x="412.0" y="631.0" type="line"/>
      <point x="431.0" y="224.0" type="line"/>
      <point x="431.0" y="224.0" type="line"/>
      <point x="442.0" y="0.0" type="line"/>
    </contour>
    <contour>
      <point x="335.999999999999" y="-96"/>
      <point x="317.999999999999" y="-130"/>
      <point x="317.999999999999" y="-170" type="curve" smooth="yes"/>
      <point x="317.999999999999" y="-208.0"/>
      <point x="336.999999999999" y="-227"/>
      <point x="409.999999999999" y="-231" type="curve" smooth="yes"/>
      <point x="484.999999999999" y="-235" type="line"/>
      <point x="500.999999999999" y="-192" type="line"/>
      <point x="435.999999999999" y="-188" type="line" smooth="yes"/>
      <point x="389.999999999999" y="-185"/>
      <point x="379.999999999999" y="-176"/>
      <point x="379.999999999999" y="-158" type="curve" smooth="yes"/>
      <point x="379.999999999999" y="-135.16956174678012"/>
      <point x="386.999999999999" y="-101"/>
      <point x="499.999999999999" y="12" type="curve"/>
      <point x="475.999999999999" y="26" type="line"/>
    </contour>
  </outline>
</glyph>
<glyph name="aogonek" format="2">
  <advance width="614"/>
  <unicode hex="0105"/>
  <outline>
    <contour>
      <point x="164.0" y="45.0" type="curve" smooth="yes"/>
      <point x="115.0" y="45.0"/>
      <point x="102" y="63"/>
      <point x="102.0" y="94.0" type="curve" smooth="yes"/>
      <point x="102.0" y="123.0"/>
      <point x="112" y="150"/>
      <point x="136" y="174" type="curve" smooth="yes"/>
      <point x="158" y="196"/>
      <point x="190" y="211"/>
      <point x="300.0" y="222.0" type="curve" smooth="yes"/>
      <point x="454.0" y="237.0" type="line"/>
      <point x="469.0" y="283.0" type="line"/>
      <point x="290.0" y="266.0" type="line" smooth="yes"/>
      <point x="163" y="254"/>
      <point x="122" y="238"/>
      <point x="90.0" y="206.0" type="curve" smooth="yes"/>
      <point x="55" y="171"/>
      <point x="39.0" y="125.0"/>
      <point x="39.0" y="84.0" type="curve" smooth="yes"/>
      <point x="39" y="36"/>
      <point x="62.0" y="-5.0"/>
      <point x="141.0" y="-5.0" type="curve" smooth="yes"/>
      <point x="213" y="-5"/>
      <point x="275" y="17"/>
      <point x="364.0" y="70.0" type="curve"/>
      <point x="370.0" y="70.0" type="line"/>
      <point x="401.0" y="139.0" type="line"/>
      <point x="303" y="73"/>
      <point x="228" y="45"/>
    </contour>
    <contour>
      <point x="437" y="102" type="curve" smooth="yes"/>
      <point x="514" y="319" type="line" smooth="yes"/>
      <point x="521" y="338"/>
      <point x="523" y="354"/>
      <point x="523" y="369" type="curve" smooth="yes"/>
      <point x="523" y="432"/>
      <point x="474" y="465"/>
      <point x="363" y="465" type="curve" smooth="yes"/>
      <point x="293" y="465"/>
      <point x="240" y="459"/>
      <point x="176" y="448" type="curve"/>
      <point x="161" y="395" type="line"/>
      <point x="241" y="408"/>
      <point x="310" y="415"/>
      <point x="347" y="415" type="curve" smooth="yes"/>
      <point x="431" y="415"/>
      <point x="462" y="395"/>
      <point x="462" y="356" type="curve" smooth="yes"/>
      <point x="462" y="346"/>
      <point x="460" y="335"/>
      <point x="456" y="322" type="curve" smooth="yes"/>
      <point x="375" y="89" type="line"/>
      <point x="370" y="70" type="line"/>
      <point x="376" y="30"/>
      <point x="397" y="7"/>
      <point x="450" y="2" type="curve" smooth="yes"/>
      <point x="499" y="-3" type="line"/>
      <point x="513" y="44" type="line"/>
      <point x="469" y="50" type="line" smooth="yes"/>
      <point x="443" y="54"/>
      <point x="431" y="58"/>
      <point x="431" y="74" type="curve" smooth="yes"/>
      <point x="431" y="81"/>
      <point x="433" y="90"/>
    </contour>
    <contour>
      <point x="273.9999999999997" y="-96"/>
      <point x="255.99999999999972" y="-130"/>
      <point x="255.99999999999972" y="-170" type="curve" smooth="yes"/>
      <point x="255.99999999999972" y="-208.0"/>
      <point x="274.9999999999997" y="-227"/>
      <point x="347.9999999999997" y="-231" type="curve" smooth="yes"/>
      <point x="422.9999999999997" y="-235" type="line"/>
      <point x="438.9999999999997" y="-192" type="line"/>
      <point x="373.9999999999997" y="-188" type="line" smooth="yes"/>
      <point x="327.9999999999997" y="-185"/>
      <point x="317.9999999999997" y="-176"/>
      <point x="317.9999999999997" y="-158" type="curve" smooth="yes"/>
      <point x="317.9999999999997" y="-135.16956174678012"/>
      <point x="324.9999999999997" y="-101"/>
      <point x="437.9999999999997" y="12" type="curve"/>
      <point x="413.9999999999997" y="26" type="line"/>
    </contour>
  </outline>
</glyph>
<glyph name="dcroat" format="2">
  <advance width="614"/>
  <unicode hex="0111"/>
  <anchor x="245.96391149844175" y="-35" name="below"/>
  <outline>
    <contour>
      <point x="322" y="535" type="line"/>
      <point x="667" y="535" type="line"/>
      <point x="681" y="583" type="line"/>
      <point x="336" y="583" type="line"/>
    </contour>
    <contour>
      <point x="379" y="0" type="line"/>
      <point x="428" y="0" type="line"/>
      <point x="632" y="710" type="line"/>
      <point x="573" y="710" type="line"/>
      <point x="399" y="104" type="line"/>
      <point x="399" y="104" type="line"/>
    </contour>
    <contour>
      <point x="496" y="346" type="curve"/>
      <point x="509" y="396" type="line"/>
      <point x="466" y="417"/>
      <point x="424" y="428"/>
      <point x="384" y="428" type="curve" smooth="yes"/>
      <point x="179" y="428"/>
      <point x="56" y="301"/>
      <point x="56" y="150" type="curve" smooth="yes"/>
      <point x="56" y="54"/>
      <point x="119" y="-8"/>
      <point x="212" y="-8" type="curve" smooth="yes"/>
      <point x="284" y="-8"/>
      <point x="342" y="32"/>
      <point x="436" y="135" type="curve"/>
      <point x="460" y="205" type="line"/>
      <point x="319" y="68"/>
      <point x="278" y="42"/>
      <point x="218" y="42" type="curve" smooth="yes"/>
      <point x="161" y="42"/>
      <point x="118" y="84"/>
      <point x="118" y="153" type="curve" smooth="yes"/>
      <point x="118" y="255"/>
      <point x="201" y="378"/>
      <point x="387" y="378" type="curve" smooth="yes"/>
      <point x="425" y="378"/>
      <point x="459" y="367"/>
    </contour>
  </outline>
</glyph>
<glyph name="Eogonek" format="2">
  <advance width="614"/>
  <unicode hex="0118"/>
  <outline>
    <contour>
      <point x="224.8182276720192" y="655.0" type="line"/>
      <point x="37.0" y="0.0" type="line"/>
      <point x="98.0" y="0.0" type="line"/>
      <point x="285.8182276720192" y="655.0" type="line"/>
    </contour>
    <contour>
      <point x="223.19421299831998" y="604.0" type="line"/>
      <point x="640.1942129983199" y="604.0" type="line"/>
      <point x="654.8182276720192" y="655.0" type="line"/>
      <point x="237.8182276720192" y="655.0" type="line"/>
    </contour>
    <contour>
      <point x="50.0" y="0.0" type="line"/>
      <point x="476.0" y="0.0" type="line"/>
      <point x="490.6240146736992" y="51.0" type="line"/>
      <point x="64.62401467369921" y="51.0" type="line"/>
    </contour>
    <contour>
      <point x="137.74408804219524" y="306.0" type="line"/>
      <point x="490.74408804219524" y="306.0" type="line"/>
      <point x="505.36810271589445" y="357.0" type="line"/>
      <point x="152.36810271589442" y="357.0" type="line"/>
    </contour>
    <contour>
      <point x="259.00000000000006" y="-96"/>
      <point x="241.00000000000006" y="-130"/>
      <point x="241.00000000000006" y="-170" type="curve" smooth="yes"/>
      <point x="241.00000000000006" y="-208.0"/>
      <point x="260.00000000000006" y="-227"/>
      <point x="333.00000000000006" y="-231" type="curve" smooth="yes"/>
      <point x="408.00000000000006" y="-235" type="line"/>
      <point x="424.00000000000006" y="-192" type="line"/>
      <point x="359.00000000000006" y="-188" type="line" smooth="yes"/>
      <point x="313.00000000000006" y="-185"/>
      <point x="303.00000000000006" y="-176"/>
      <point x="303.00000000000006" y="-158" type="curve" smooth="yes"/>
      <point x="303.00000000000006" y="-135.16956174678012"/>
      <point x="310.00000000000006" y="-101"/>
      <point x="423.00000000000006" y="12" type="curve"/>
      <point x="399.00000000000006" y="26" type="line"/>
    </contour>
  </outline>
</glyph>
<glyph name="eogonek" format="2">
  <advance width="614"/>
  <unicode hex="0119"/>
  <anchor x="397" y="498" name="aboveLCx"/>
  <anchor x="407" y="531" name="aboveLC"/>
  <outline>
    <contour>
      <point x="408" y="425" type="curve" smooth="yes"/>
      <point x="471" y="425"/>
      <point x="505" y="394"/>
      <point x="505" y="358" type="curve" smooth="yes"/>
      <point x="505" y="312"/>
      <point x="468" y="264"/>
      <point x="304" y="248" type="curve" smooth="yes"/>
      <point x="111" y="229" type="line"/>
      <point x="97" y="185" type="line"/>
      <point x="307" y="204" type="line" smooth="yes"/>
      <point x="524" y="224"/>
      <point x="567" y="282"/>
      <point x="567" y="358" type="curve" smooth="yes"/>
      <point x="567" y="426"/>
      <point x="510" y="475"/>
      <point x="408" y="475" type="curve" smooth="yes"/>
      <point x="221" y="475"/>
      <point x="74" y="320"/>
      <point x="74" y="158" type="curve" smooth="yes"/>
      <point x="74" y="39"/>
      <point x="141" y="-5"/>
      <point x="393" y="-5" type="curve"/>
      <point x="409" y="44" type="line"/>
      <point x="202" y="44"/>
      <point x="136" y="71"/>
      <point x="136" y="159" type="curve" smooth="yes"/>
      <point x="136" y="300"/>
      <point x="264" y="425"/>
    </contour>
    <contour>
      <point x="216" y="-170" type="curve" smooth="yes"/>
      <point x="216" y="-208"/>
      <point x="235" y="-227"/>
      <point x="308" y="-231" type="curve" smooth="yes"/>
      <point x="383" y="-235" type="line"/>
      <point x="399" y="-192" type="line"/>
      <point x="334" y="-188" type="line" smooth="yes"/>
      <point x="288" y="-185"/>
      <point x="278" y="-176"/>
      <point x="278" y="-158" type="curve" smooth="yes"/>
      <point x="278" y="-137"/>
      <point x="288" y="-110"/>
      <point x="393" y="-5" type="curve"/>
      <point x="357" y="2" type="line"/>
      <point x="233" y="-107"/>
      <point x="216" y="-135"/>
    </contour>
  </outline>
</glyph>
<glyph name="Hbar" format="2">
  <advance width="614"/>
  <unicode hex="0126"/>
  <outline>
    <contour>
      <point x="104.77754900695138" y="477.0" type="line"/>
      <point x="209.7775490069514" y="477.0" type="line"/>
      <point x="210.7775490069514" y="477.0" type="line"/>
      <point x="546.7775490069514" y="477.0" type="line"/>
      <point x="546.7775490069514" y="477.0" type="line"/>
      <point x="650.7775490069514" y="477.0" type="line"/>
      <point x="663.3943459803389" y="521.0" type="line"/>
      <point x="561.3943459803389" y="521.0" type="line"/>
      <point x="561.3943459803389" y="521.0" type="line"/>
      <point x="220.39434598033893" y="521.0" type="line"/>
      <point x="220.39434598033893" y="521.0" type="line"/>
      <point x="117.39434598033893" y="521.0" type="line"/>
    </contour>
    <contour>
      <point x="241.8182276720192" y="655.0" type="line"/>
      <point x="54.0" y="0.0" type="line"/>
      <point x="115.0" y="0.0" type="line"/>
      <point x="302.8182276720192" y="655.0" type="line"/>
    </contour>
    <contour>
      <point x="554.8182276720192" y="655.0" type="line"/>
      <point x="367.0" y="0.0" type="line"/>
      <point x="428.0" y="0.0" type="line"/>
      <point x="615.8182276720192" y="655.0" type="line"/>
    </contour>
    <contour>
      <point x="158.72243494126025" y="285.0" type="line"/>
      <point x="483.7224349412603" y="285.0" type="line"/>
      <point x="498.3464496149595" y="336.0" type="line"/>
      <point x="173.34644961495945" y="336.0" type="line"/>
    </contour>
  </outline>
</glyph>
<glyph name="hbar" format="2">
  <advance width="614"/>
  <unicode hex="0127"/>
  <outline>
    <contour>
      <point x="466" y="535" type="line"/>
      <point x="480" y="583" type="line"/>
      <point x="135" y="583" type="line"/>
      <point x="121" y="535" type="line"/>
    </contour>
    <contour>
      <point x="317" y="710" type="line"/>
      <point x="258" y="710" type="line"/>
      <point x="54" y="0" type="line"/>
      <point x="113" y="0" type="line"/>
    </contour>
    <contour>
      <point x="132" y="151" type="line"/>
      <point x="327" y="350"/>
      <point x="365" y="376"/>
      <point x="421" y="376" type="curve" smooth="yes"/>
      <point x="453" y="376"/>
      <point x="474" y="358"/>
      <point x="474" y="323" type="curve" smooth="yes"/>
      <point x="474" y="310"/>
      <point x="472" y="295"/>
      <point x="461" y="255" type="curve" smooth="yes"/>
      <point x="389" y="0" type="line"/>
      <point x="448" y="0" type="line"/>
      <point x="518" y="247" type="line" smooth="yes"/>
      <point x="531" y="294"/>
      <point x="535" y="317"/>
      <point x="535" y="332" type="curve" smooth="yes"/>
      <point x="535" y="391"/>
      <point x="493" y="428"/>
      <point x="436" y="428" type="curve" smooth="yes"/>
      <point x="363" y="428"/>
      <point x="316" y="401"/>
      <point x="161" y="239" type="curve"/>
    </contour>
  </outline>
</glyph>
<glyph name="Iogonek" format="2">
  <advance width="614"/>
  <unicode hex="012E"/>
  <outline>
    <contour>
      <point x="406.0" y="655.0" type="line"/>
      <point x="204.0" y="0.0" type="line"/>
      <point x="265.0" y="0.0" type="line"/>
      <point x="467.0" y="655.0" type="line"/>
    </contour>
    <contour>
      <point x="253.0" y="629.0" type="line"/>
      <point x="427.0" y="602.0" type="line"/>
      <point x="589.0" y="629.0" type="line"/>
      <point x="597.0" y="655.0" type="line"/>
      <point x="261.0" y="655.0" type="line"/>
    </contour>
    <contour>
      <point x="81.0" y="26.0" type="line"/>
      <point x="73.0" y="0.0" type="line"/>
      <point x="409.0" y="0.0" type="line"/>
      <point x="416.0" y="26.0" type="line"/>
      <point x="243.0" y="53.0" type="line"/>
    </contour>
    <contour>
      <point x="109.00000000000006" y="-95"/>
      <point x="91.00000000000006" y="-129"/>
      <point x="91.00000000000006" y="-169" type="curve" smooth="yes"/>
      <point x="91.00000000000006" y="-207.0"/>
      <point x="110.00000000000006" y="-226"/>
      <point x="183.00000000000006" y="-230" type="curve" smooth="yes"/>
      <point x="258.00000000000006" y="-234" type="line"/>
      <point x="274.00000000000006" y="-191" type="line"/>
      <point x="209.00000000000006" y="-187" type="line" smooth="yes"/>
      <point x="163.00000000000006" y="-184"/>
      <point x="153.00000000000006" y="-175"/>
      <point x="153.00000000000006" y="-157" type="curve" smooth="yes"/>
      <point x="153.00000000000006" y="-134.16956174678012"/>
      <point x="160.00000000000006" y="-100"/>
      <point x="273.00000000000006" y="13" type="curve"/>
      <point x="249.00000000000006" y="27" type="line"/>
    </contour>
  </outline>
</glyph>
<glyph name="iogonek" format="2">
  <advance width="614"/>
  <unicode hex="012F"/>
  <outline>
    <contour>
      <point x="371" y="460" type="line"/>
      <point x="215" y="0" type="line"/>
      <point x="274" y="0" type="line"/>
      <point x="430" y="460" type="line"/>
    </contour>
    <contour>
      <point x="209" y="460" type="line"/>
      <point x="195" y="410" type="line"/>
      <point x="390" y="410" type="line"/>
      <point x="404" y="460" type="line"/>
    </contour>
    <contour>
      <point x="71" y="50" type="line"/>
      <point x="57" y="0" type="line"/>
      <point x="456" y="0" type="line"/>
      <point x="470" y="50" type="line"/>
    </contour>
    <contour>
      <point x="408" y="614" type="curve" smooth="yes"/>
      <point x="449.0" y="614.0"/>
      <point x="478.0" y="642.0"/>
      <point x="478" y="675" type="curve" smooth="yes"/>
      <point x="478.0" y="704.0"/>
      <point x="459.0" y="721.0"/>
      <point x="421" y="721" type="curve" smooth="yes"/>
      <point x="376.0" y="721.0"/>
      <point x="351.0" y="690.0"/>
      <point x="351" y="661" type="curve" smooth="yes"/>
      <point x="351.0" y="630.0"/>
      <point x="375.0" y="614.0"/>
    </contour>
    <contour>
      <point x="122.99999999999977" y="-96"/>
      <point x="104.99999999999977" y="-130"/>
      <point x="104.99999999999977" y="-170" type="curve" smooth="yes"/>
      <point x="104.99999999999977" y="-208.0"/>
      <point x="123.99999999999977" y="-227"/>
      <point x="196.99999999999977" y="-231" type="curve" smooth="yes"/>
      <point x="271.9999999999998" y="-235" type="line"/>
      <point x="287.9999999999998" y="-192" type="line"/>
      <point x="222.99999999999977" y="-188" type="line" smooth="yes"/>
      <point x="176.99999999999977" y="-185"/>
      <point x="166.99999999999977" y="-176"/>
      <point x="166.99999999999977" y="-158" type="curve" smooth="yes"/>
      <point x="166.99999999999977" y="-135.16956174678012"/>
      <point x="173.99999999999977" y="-101"/>
      <point x="286.9999999999998" y="12" type="curve"/>
      <point x="262.9999999999998" y="26" type="line"/>
    </contour>
  </outline>
</glyph>
<glyph name="dotlessi" format="2">
  <advance width="614"/>
  <unicode hex="0131"/>
  <anchor x="235" y="-35" name="below"/>
  <anchor x="395" y="502" name="aboveLC"/>
  <anchor x="242" y="-10" name="belowogonek"/>
  <outline>
    <contour>
      <point x="371" y="460" type="line"/>
      <point x="215" y="0" type="line"/>
      <point x="274" y="0" type="line"/>
      <point x="430" y="460" type="line"/>
    </contour>
    <contour>
      <point x="209" y="460" type="line"/>
      <point x="195" y="410" type="line"/>
      <point x="390" y="410" type="line"/>
      <point x="404" y="460" type="line"/>
    </contour>
    <contour>
      <point x="71" y="50" type="line"/>
      <point x="57" y="0" type="line"/>
      <point x="456" y="0" type="line"/>
      <point x="470" y="50" type="line"/>
    </contour>
  </outline>
</glyph>
<glyph name="Lslash" format="2">
  <advance width="614"/>
  <unicode hex="0141"/>
  <outline>
    <contour>
      <point x="37.20209560872635" y="196.0" type="line"/>
      <point x="173.56823569791337" y="274.0" type="line"/>
      <point x="172" y="264.0" type="line"/>
      <point x="460" y="429.0" type="line"/>
      <point x="478" y="491.0" type="line"/>
      <point x="186" y="324.0" type="line"/>
      <point x="188" y="334.0" type="line"/>
      <point x="55" y="258.0" type="line"/>
    </contour>
    <contour>
      <point x="254.8182276720192" y="655.0" type="line"/>
      <point x="67.0" y="0.0" type="line"/>
      <point x="128.0" y="0.0" type="line"/>
      <point x="315.8182276720192" y="655.0" type="line"/>
    </contour>
    <contour>
      <point x="76.0" y="0.0" type="line"/>
      <point x="473.0" y="0.0" type="line"/>
      <point x="487.33726928794044" y="50.0" type="line"/>
      <point x="90.33726928794039" y="50.0" type="line"/>
    </contour>
  </outline>
</glyph>
<glyph name="lslash" format="2">
  <advance width="614"/>
  <unicode hex="0142"/>
  <outline>
    <contour>
      <point x="303" y="342" type="line"/>
      <point x="521" y="437" type="line"/>
      <point x="537" y="492" type="line"/>
      <point x="319" y="397" type="line"/>
    </contour>
    <contour>
      <point x="99" y="262" type="line"/>
      <point x="306" y="352" type="line"/>
      <point x="322" y="407" type="line"/>
      <point x="115" y="317" type="line"/>
    </contour>
    <contour>
      <point x="202" y="710" type="line"/>
      <point x="187" y="660" type="line"/>
      <point x="422" y="660" type="line"/>
      <point x="437" y="710" type="line"/>
    </contour>
    <contour>
      <point x="234" y="244" type="line" smooth="yes"/>
      <point x="213" y="186"/>
      <point x="206" y="151"/>
      <point x="206" y="119" type="curve" smooth="yes"/>
      <point x="206" y="38"/>
      <point x="251" y="-1"/>
      <point x="345" y="-4" type="curve" smooth="yes"/>
      <point x="453" y="-7" type="line"/>
      <point x="468" y="44" type="line"/>
      <point x="352" y="48" type="line" smooth="yes"/>
      <point x="293" y="50"/>
      <point x="267" y="70"/>
      <point x="267" y="127" type="curve" smooth="yes"/>
      <point x="267" y="157"/>
      <point x="272" y="184"/>
      <point x="291" y="236" type="curve" smooth="yes"/>
      <point x="463" y="710" type="line"/>
      <point x="404" y="710" type="line"/>
    </contour>
  </outline>
</glyph>
<glyph name="Eng" format="2">
  <advance width="614"/>
  <unicode hex="014A"/>
  <outline>
    <contour>
      <point x="385" y="-46" type="line" smooth="yes"/>
      <point x="358" y="-143"/>
      <point x="316" y="-172"/>
      <point x="233" y="-178" type="curve" smooth="yes"/>
      <point x="89" y="-188" type="line"/>
      <point x="89" y="-239" type="line"/>
      <point x="221" y="-230" type="line" smooth="yes"/>
      <point x="341" y="-222"/>
      <point x="402" y="-174"/>
      <point x="430" y="-74" type="curve" smooth="yes"/>
      <point x="639" y="655" type="line"/>
      <point x="581" y="655" type="line"/>
    </contour>
    <contour>
      <point x="89" y="0" type="line"/>
      <point x="272" y="655" type="line"/>
      <point x="219" y="655" type="line"/>
      <point x="31" y="0" type="line"/>
    </contour>
    <contour>
      <point x="389" y="-89" type="line"/>
      <point x="420" y="16" type="line"/>
      <point x="309" y="655" type="line"/>
      <point x="264" y="655" type="line"/>
      <point x="257" y="639" type="line"/>
      <point x="384" y="-87" type="line"/>
    </contour>
  </outline>
</glyph>
<glyph name="eng" format="2">
  <advance width="614"/>
  <unicode hex="014B"/>
  <outline>
    <contour>
      <point x="449" y="8" type="curve" smooth="yes"/>
      <point x="529" y="284" type="line" smooth="yes"/>
      <point x="543" y="331"/>
      <point x="546" y="354"/>
      <point x="546" y="369" type="curve" smooth="yes"/>
      <point x="546" y="428"/>
      <point x="500" y="465"/>
      <point x="437" y="465" type="curve" smooth="yes"/>
      <point x="362" y="465"/>
      <point x="313" y="440"/>
      <point x="156" y="276" type="curve"/>
      <point x="127" y="188" type="line"/>
      <point x="324" y="389"/>
      <point x="365" y="413"/>
      <point x="422" y="413" type="curve" smooth="yes"/>
      <point x="460" y="413"/>
      <point x="485" y="395"/>
      <point x="485" y="360" type="curve" smooth="yes"/>
      <point x="485" y="347"/>
      <point x="483" y="331"/>
      <point x="472" y="292" type="curve" smooth="yes"/>
      <point x="392" y="13" type="line" smooth="yes"/>
      <point x="351" y="-130"/>
      <point x="314" y="-174"/>
      <point x="148" y="-184" type="curve" smooth="yes"/>
      <point x="83" y="-188" type="line"/>
      <point x="83" y="-239" type="line"/>
      <point x="151" y="-234" type="line" smooth="yes"/>
      <point x="360" y="-219"/>
      <point x="396" y="-176"/>
    </contour>
    <contour>
      <point x="228" y="460" type="line"/>
      <point x="169" y="460" type="line"/>
      <point x="37" y="0" type="line"/>
      <point x="96" y="0" type="line"/>
      <point x="170" y="259" type="line"/>
      <point x="170" y="259" type="line"/>
    </contour>
  </outline>
</glyph>
<glyph name="OE" format="2">
  <advance width="614"/>
  <unicode hex="0152"/>
  <outline>
    <contour>
      <point x="226.0" y="0.0" type="curve" smooth="yes"/>
      <point x="250" y="0" type="line"/>
      <point x="265" y="51" type="line"/>
      <point x="228.0" y="51.0" type="line" smooth="yes"/>
      <point x="132" y="51"/>
      <point x="92" y="96"/>
      <point x="92" y="185" type="curve" smooth="yes"/>
      <point x="92" y="287"/>
      <point x="138" y="444"/>
      <point x="217" y="523" type="curve" smooth="yes"/>
      <point x="272" y="578"/>
      <point x="333" y="604"/>
      <point x="416" y="604.0" type="curve" smooth="yes"/>
      <point x="444" y="604" type="line"/>
      <point x="459" y="655" type="line"/>
      <point x="441" y="655.0" type="line" smooth="yes"/>
      <point x="317" y="655"/>
      <point x="245" y="633"/>
      <point x="169" y="557" type="curve" smooth="yes"/>
      <point x="89" y="477"/>
      <point x="29" y="303"/>
      <point x="29" y="179" type="curve" smooth="yes"/>
      <point x="29" y="63"/>
      <point x="90" y="0"/>
    </contour>
    <contour>
      <point x="299" y="0" type="line"/>
      <point x="487" y="655" type="line"/>
      <point x="449" y="655" type="line"/>
      <point x="418" y="628" type="line"/>
      <point x="247" y="33" type="line"/>
      <point x="238" y="0" type="line"/>
    </contour>
    <contour>
      <point x="460" y="604" type="line"/>
      <point x="700" y="604" type="line"/>
      <point x="715" y="655" type="line"/>
      <point x="469" y="655" type="line"/>
    </contour>
    <contour>
      <point x="340" y="306" type="line"/>
      <point x="587" y="306" type="line"/>
      <point x="601" y="357" type="line"/>
      <point x="354" y="357" type="line"/>
    </contour>
    <contour>
      <point x="264" y="0" type="line"/>
      <point x="527" y="0" type="line"/>
      <point x="542" y="51" type="line"/>
      <point x="279" y="51" type="line"/>
    </contour>
  </outline>
</glyph>
<glyph name="oe" format="2">
  <advance width="614"/>
  <unicode hex="0153"/>
  <outline>
    <contour>
      <point x="325" y="148" type="curve" smooth="yes"/>
      <point x="325" y="258"/>
      <point x="416" y="425"/>
      <point x="498" y="425" type="curve" smooth="yes"/>
      <point x="529" y="425"/>
      <point x="548" y="408"/>
      <point x="548" y="373" type="curve" smooth="yes"/>
      <point x="548" y="329"/>
      <point x="511" y="274"/>
      <point x="321" y="259" type="curve"/>
      <point x="307" y="215" type="line"/>
      <point x="569" y="235"/>
      <point x="610" y="299"/>
      <point x="610" y="374" type="curve" smooth="yes"/>
      <point x="610.0" y="439.0"/>
      <point x="568.0" y="475.0"/>
      <point x="507" y="475" type="curve" smooth="yes"/>
      <point x="430" y="475"/>
      <point x="337" y="401"/>
      <point x="291" y="220" type="curve"/>
      <point x="288" y="220" type="line"/>
      <point x="277" y="188"/>
      <point x="272" y="168"/>
      <point x="272" y="147" type="curve" smooth="yes"/>
      <point x="272" y="36"/>
      <point x="311" y="-5"/>
      <point x="459" y="-5" type="curve"/>
      <point x="475" y="44" type="line"/>
      <point x="361" y="44"/>
      <point x="325" y="68"/>
    </contour>
    <contour>
      <point x="118" y="-15" type="curve" smooth="yes"/>
      <point x="254" y="-15"/>
      <point x="348.0" y="191.4859379741702"/>
      <point x="348" y="342" type="curve" smooth="yes"/>
      <point x="348" y="429"/>
      <point x="312" y="475"/>
      <point x="250" y="475" type="curve" smooth="yes"/>
      <point x="203" y="475"/>
      <point x="162" y="453"/>
      <point x="127" y="418" type="curve" smooth="yes"/>
      <point x="56" y="347"/>
      <point x="14" y="226"/>
      <point x="14" y="126" type="curve" smooth="yes"/>
      <point x="14" y="38"/>
      <point x="53" y="-15"/>
    </contour>
    <contour>
      <point x="75" y="125" type="curve" smooth="yes"/>
      <point x="75" y="214"/>
      <point x="119" y="332"/>
      <point x="175" y="388" type="curve" smooth="yes"/>
      <point x="198" y="411"/>
      <point x="222" y="425"/>
      <point x="246" y="425" type="curve" smooth="yes"/>
      <point x="284" y="425"/>
      <point x="304" y="389"/>
      <point x="304" y="333" type="curve" smooth="yes"/>
      <point x="304" y="242"/>
      <point x="260" y="127"/>
      <point x="203" y="70" type="curve" smooth="yes"/>
      <point x="181" y="48"/>
      <point x="158" y="35"/>
      <point x="134" y="35" type="curve" smooth="yes"/>
      <point x="96" y="35"/>
      <point x="75" y="69"/>
    </contour>
  </outline>
</glyph>
<glyph name="Scedilla" format="2">
  <advance width="614"/>
  <unicode hex="015E"/>
  <outline>
    <contour>
      <point x="284.0" y="38.0" type="curve" smooth="yes"/>
      <point x="208.0" y="38.0"/>
      <point x="136.0" y="67.0"/>
      <point x="60" y="110" type="curve"/>
      <point x="33" y="59" type="line"/>
      <point x="116" y="13"/>
      <point x="188" y="-13"/>
      <point x="284.0" y="-13.0" type="curve" smooth="yes"/>
      <point x="425" y="-13"/>
      <point x="524" y="54"/>
      <point x="524" y="177" type="curve" smooth="yes"/>
      <point x="524" y="238"/>
      <point x="508" y="284"/>
      <point x="408" y="341" type="curve" smooth="yes"/>
      <point x="318" y="392" type="line" smooth="yes"/>
      <point x="255" y="428"/>
      <point x="241" y="462"/>
      <point x="241" y="503" type="curve" smooth="yes"/>
      <point x="241" y="566"/>
      <point x="292" y="617"/>
      <point x="403.0" y="617.0" type="curve" smooth="yes"/>
      <point x="473" y="617"/>
      <point x="537" y="600"/>
      <point x="605" y="571" type="curve"/>
      <point x="623" y="625" type="line"/>
      <point x="543" y="654"/>
      <point x="485.0" y="668.0"/>
      <point x="403.0" y="668.0" type="curve" smooth="yes"/>
      <point x="254" y="668"/>
      <point x="178" y="584"/>
      <point x="178" y="499" type="curve" smooth="yes"/>
      <point x="178" y="435"/>
      <point x="209" y="387"/>
      <point x="284" y="345" type="curve" smooth="yes"/>
      <point x="374" y="295" type="line" smooth="yes"/>
      <point x="445" y="255"/>
      <point x="461" y="214"/>
      <point x="461" y="175" type="curve" smooth="yes"/>
      <point x="461" y="91"/>
      <point x="397" y="38"/>
    </contour>
    <contour>
      <point x="234.00000000000023" y="16" type="line"/>
      <point x="160.00000000000023" y="-98" type="line"/>
      <point x="163.00000000000023" y="-108" type="line"/>
      <point x="275.0000000000002" y="-120"/>
      <point x="296.0000000000002" y="-131"/>
      <point x="296.0000000000002" y="-155" type="curve" smooth="yes"/>
      <point x="296.0000000000002" y="-186"/>
      <point x="275.0000000000002" y="-202"/>
      <point x="69.00000000000023" y="-221" type="curve"/>
      <point x="69.00000000000023" y="-270" type="line"/>
      <point x="341.0000000000002" y="-245"/>
      <point x="360.0000000000002" y="-206"/>
      <point x="360.0000000000002" y="-151" type="curve" smooth="yes"/>
      <point x="360.0000000000002" y="-106"/>
      <point x="342.0000000000002" y="-84"/>
      <point x="217.00000000000023" y="-65" type="curve"/>
      <point x="201.00000000000023" y="-106" type="line"/>
      <point x="277.0000000000002" y="16" type="line"/>
    </contour>
  </outline>
</glyph>
